<svg width="114" height="125" viewBox="0 0 114 125" fill="none" xmlns="http://www.w3.org/2000/svg">
<circle cx="57" cy="42" r="42" fill="white"/>
<mask id="path-2-outside-1_4243_124" maskUnits="userSpaceOnUse" x="0" y="89" width="114" height="28" fill="black">
<rect fill="white" y="89" width="114" height="28"/>
<path d="M8.32 100.016C8.08533 100.016 7.744 100.027 7.296 100.048C6.86933 100.048 6.368 100.101 5.792 100.208V113.456C5.792 113.691 5.74933 113.84 5.664 113.904C5.57867 113.968 5.41867 114 5.184 114H2.688C2.47467 114 2.31467 113.968 2.208 113.904C2.12267 113.84 2.08 113.691 2.08 113.456V99.76C2.08 98.992 2.21867 98.3947 2.496 97.968C2.77333 97.5413 3.34933 97.2533 4.224 97.104C4.43733 97.0827 4.72533 97.0507 5.088 97.008C5.45067 96.9653 5.83467 96.9333 6.24 96.912C6.64533 96.8907 7.04 96.8693 7.424 96.848C7.808 96.8267 8.13867 96.816 8.416 96.816C9.824 96.816 11.04 96.9653 12.064 97.264C13.1093 97.5627 13.9627 98.0427 14.624 98.704C15.3067 99.344 15.808 100.187 16.128 101.232C16.448 102.277 16.608 103.536 16.608 105.008V113.456C16.608 113.691 16.5653 113.84 16.48 113.904C16.3947 113.968 16.2347 114 16 114H13.472C13.2587 114 13.0987 113.968 12.992 113.904C12.9067 113.84 12.864 113.691 12.864 113.456V104.944C12.864 104.112 12.7893 103.387 12.64 102.768C12.512 102.149 12.2773 101.637 11.936 101.232C11.5947 100.827 11.1253 100.528 10.528 100.336C9.952 100.123 9.216 100.016 8.32 100.016ZM27.7755 96.816C30.2288 96.816 32.0422 97.4453 33.2155 98.704C34.4102 99.9627 35.0075 101.691 35.0075 103.888C35.0075 104.443 34.9435 104.901 34.8155 105.264C34.6875 105.627 34.5062 105.915 34.2715 106.128C34.0368 106.341 33.7595 106.491 33.4395 106.576C33.1408 106.661 32.8102 106.704 32.4475 106.704H23.9355C23.9568 107.536 24.0848 108.24 24.3195 108.816C24.5542 109.371 24.8742 109.829 25.2795 110.192C25.6848 110.533 26.1542 110.779 26.6875 110.928C27.2208 111.077 27.7968 111.152 28.4155 111.152C29.0982 111.152 29.7702 111.067 30.4315 110.896C31.0928 110.725 31.6688 110.523 32.1595 110.288C32.5008 110.139 32.7355 110.203 32.8635 110.48L33.7275 112.304C33.8768 112.645 33.8022 112.891 33.5035 113.04C32.6928 113.531 31.8075 113.872 30.8475 114.064C29.8875 114.256 28.9702 114.352 28.0955 114.352C25.5142 114.352 23.5408 113.659 22.1755 112.272C20.8102 110.885 20.1275 108.688 20.1275 105.68C20.1275 104.272 20.3195 103.024 20.7035 101.936C21.0875 100.827 21.6102 99.8987 22.2715 99.152C22.9542 98.384 23.7648 97.808 24.7035 97.424C25.6422 97.0187 26.6662 96.816 27.7755 96.816ZM27.8395 99.92C27.2635 99.92 26.7515 100.037 26.3035 100.272C25.8555 100.485 25.4715 100.784 25.1515 101.168C24.8315 101.552 24.5755 101.989 24.3835 102.48C24.1915 102.971 24.0848 103.483 24.0635 104.016H31.4235C31.4235 103.44 31.3702 102.907 31.2635 102.416C31.1568 101.925 30.9648 101.499 30.6875 101.136C30.4315 100.752 30.0688 100.453 29.5995 100.24C29.1515 100.027 28.5648 99.92 27.8395 99.92ZM48.5678 113.264C48.5891 113.392 48.5891 113.509 48.5678 113.616C48.5678 113.701 48.4718 113.787 48.2798 113.872C47.5544 114.107 46.8291 114.245 46.1038 114.288C45.3784 114.331 44.8131 114.352 44.4078 114.352C42.6584 114.352 41.4211 113.979 40.6958 113.232C39.9704 112.485 39.6078 111.344 39.6078 109.808V100.048H37.3358C37.1011 100.048 36.9518 100.005 36.8878 99.92C36.8451 99.8133 36.8238 99.6747 36.8238 99.504V98.192C36.8238 98 36.8558 97.8613 36.9198 97.776C36.9838 97.6907 37.1224 97.6267 37.3358 97.584L39.7678 97.04L40.1838 94C40.2264 93.7653 40.2904 93.6053 40.3758 93.52C40.4824 93.4347 40.6531 93.3493 40.8878 93.264L42.7438 92.624C42.9144 92.5813 43.0531 92.6027 43.1598 92.688C43.2664 92.752 43.3198 92.9013 43.3198 93.136V97.2H46.7438C46.9784 97.2 47.1171 97.2533 47.1598 97.36C47.2238 97.4453 47.2558 97.5627 47.2558 97.712V99.504C47.2558 99.696 47.2238 99.8347 47.1598 99.92C47.1171 100.005 46.9784 100.048 46.7438 100.048H43.3198V109.328C43.3198 110.011 43.4798 110.48 43.7998 110.736C44.1198 110.992 44.6104 111.12 45.2718 111.12C45.3998 111.12 45.5704 111.12 45.7838 111.12C45.9971 111.099 46.2104 111.077 46.4238 111.056C46.6584 111.035 46.8824 111.013 47.0958 110.992C47.3304 110.949 47.5224 110.917 47.6718 110.896C47.8851 110.853 48.0238 110.864 48.0878 110.928C48.1518 110.971 48.1944 111.067 48.2158 111.216L48.5678 113.264Z"/>
<path d="M61.0663 110.736C62.0263 110.736 62.9116 110.629 63.7223 110.416C64.5329 110.181 65.2903 109.925 65.9943 109.648C66.2929 109.52 66.4956 109.499 66.6023 109.584C66.7303 109.669 66.8263 109.797 66.8903 109.968L67.7222 111.792C67.8716 112.091 67.9249 112.304 67.8823 112.432C67.8396 112.539 67.7329 112.645 67.5623 112.752C66.4743 113.392 65.3116 113.819 64.0743 114.032C62.8369 114.245 61.6423 114.352 60.4903 114.352C57.2476 114.352 54.7943 113.413 53.1302 111.536C51.4876 109.659 50.6663 106.832 50.6663 103.056C50.6663 101.285 50.9116 99.6747 51.4023 98.224C51.8929 96.7733 52.5756 95.536 53.4503 94.512C54.3249 93.488 55.3809 92.6987 56.6183 92.144C57.8556 91.568 59.2316 91.28 60.7463 91.28C61.7063 91.28 62.6876 91.3653 63.6903 91.536C64.7143 91.7067 65.7489 92.0693 66.7943 92.624C66.9649 92.7093 67.0716 92.816 67.1143 92.944C67.1783 93.0507 67.1463 93.2533 67.0183 93.552L66.1223 95.408C66.0369 95.6213 65.9516 95.76 65.8663 95.824C65.7809 95.888 65.6209 95.8667 65.3863 95.76C64.6823 95.4827 63.9569 95.2693 63.2103 95.12C62.4849 94.9493 61.7169 94.864 60.9063 94.864C59.8396 94.864 58.9116 95.088 58.1223 95.536C57.3543 95.984 56.7143 96.592 56.2023 97.36C55.7116 98.1067 55.3383 98.9813 55.0823 99.984C54.8476 100.965 54.7303 101.989 54.7303 103.056C54.7303 104.123 54.8263 105.125 55.0183 106.064C55.2316 106.981 55.5729 107.792 56.0423 108.496C56.5329 109.179 57.1836 109.723 57.9943 110.128C58.8263 110.533 59.8503 110.736 61.0663 110.736ZM72.942 114C72.2593 114 71.79 113.861 71.534 113.584C71.278 113.285 71.15 112.816 71.15 112.176V93.392C71.15 92.7733 71.278 92.3147 71.534 92.016C71.79 91.7173 72.2593 91.568 72.942 91.568L78.862 91.536C80.59 91.536 82.094 91.8133 83.374 92.368C84.654 92.9227 85.71 93.6907 86.542 94.672C87.374 95.6533 87.9927 96.8267 88.398 98.192C88.8033 99.536 89.006 101.019 89.006 102.64C89.006 104.24 88.8247 105.733 88.462 107.12C88.0993 108.507 87.5233 109.712 86.734 110.736C85.9447 111.739 84.9207 112.539 83.662 113.136C82.4247 113.712 80.9313 114 79.182 114H72.942ZM84.974 102.704C84.974 101.616 84.8673 100.613 84.654 99.696C84.462 98.7573 84.1207 97.9467 83.63 97.264C83.1393 96.56 82.478 96.016 81.646 95.632C80.814 95.2267 79.7793 95.024 78.542 95.024H75.086V110.512H78.638C79.8753 110.512 80.8993 110.32 81.71 109.936C82.5207 109.531 83.1607 108.987 83.63 108.304C84.1207 107.6 84.462 106.779 84.654 105.84C84.8673 104.88 84.974 103.835 84.974 102.704ZM97.0213 97.424V113.328C97.0213 113.627 96.9679 113.819 96.8613 113.904C96.7759 113.968 96.5839 114 96.2853 114H93.9173C93.6826 114 93.5013 113.957 93.3733 113.872C93.2453 113.787 93.1813 113.605 93.1813 113.328V93.52C93.1813 92.8373 93.3093 92.3467 93.5653 92.048C93.8426 91.728 94.3333 91.568 95.0373 91.568H96.1573C96.7119 91.568 97.1173 91.6747 97.3733 91.888C97.6293 92.08 97.9279 92.4427 98.2693 92.976L104.637 103.568L107.357 108.176H107.485V92.24C107.485 91.9627 107.539 91.7813 107.645 91.696C107.752 91.6107 107.944 91.568 108.221 91.568H110.589C110.867 91.568 111.059 91.6107 111.165 91.696C111.272 91.7813 111.325 91.9627 111.325 92.24V112.08C111.325 112.699 111.197 113.179 110.941 113.52C110.685 113.84 110.195 114 109.469 114H108.349C108.072 114 107.837 113.979 107.645 113.936C107.453 113.893 107.283 113.819 107.133 113.712C106.984 113.605 106.835 113.467 106.685 113.296C106.557 113.104 106.408 112.88 106.237 112.624L99.8373 102L97.1493 97.424H97.0213Z"/>
</mask>
<path d="M8.32 100.016C8.08533 100.016 7.744 100.027 7.296 100.048C6.86933 100.048 6.368 100.101 5.792 100.208V113.456C5.792 113.691 5.74933 113.84 5.664 113.904C5.57867 113.968 5.41867 114 5.184 114H2.688C2.47467 114 2.31467 113.968 2.208 113.904C2.12267 113.84 2.08 113.691 2.08 113.456V99.76C2.08 98.992 2.21867 98.3947 2.496 97.968C2.77333 97.5413 3.34933 97.2533 4.224 97.104C4.43733 97.0827 4.72533 97.0507 5.088 97.008C5.45067 96.9653 5.83467 96.9333 6.24 96.912C6.64533 96.8907 7.04 96.8693 7.424 96.848C7.808 96.8267 8.13867 96.816 8.416 96.816C9.824 96.816 11.04 96.9653 12.064 97.264C13.1093 97.5627 13.9627 98.0427 14.624 98.704C15.3067 99.344 15.808 100.187 16.128 101.232C16.448 102.277 16.608 103.536 16.608 105.008V113.456C16.608 113.691 16.5653 113.84 16.48 113.904C16.3947 113.968 16.2347 114 16 114H13.472C13.2587 114 13.0987 113.968 12.992 113.904C12.9067 113.84 12.864 113.691 12.864 113.456V104.944C12.864 104.112 12.7893 103.387 12.64 102.768C12.512 102.149 12.2773 101.637 11.936 101.232C11.5947 100.827 11.1253 100.528 10.528 100.336C9.952 100.123 9.216 100.016 8.32 100.016ZM27.7755 96.816C30.2288 96.816 32.0422 97.4453 33.2155 98.704C34.4102 99.9627 35.0075 101.691 35.0075 103.888C35.0075 104.443 34.9435 104.901 34.8155 105.264C34.6875 105.627 34.5062 105.915 34.2715 106.128C34.0368 106.341 33.7595 106.491 33.4395 106.576C33.1408 106.661 32.8102 106.704 32.4475 106.704H23.9355C23.9568 107.536 24.0848 108.24 24.3195 108.816C24.5542 109.371 24.8742 109.829 25.2795 110.192C25.6848 110.533 26.1542 110.779 26.6875 110.928C27.2208 111.077 27.7968 111.152 28.4155 111.152C29.0982 111.152 29.7702 111.067 30.4315 110.896C31.0928 110.725 31.6688 110.523 32.1595 110.288C32.5008 110.139 32.7355 110.203 32.8635 110.48L33.7275 112.304C33.8768 112.645 33.8022 112.891 33.5035 113.04C32.6928 113.531 31.8075 113.872 30.8475 114.064C29.8875 114.256 28.9702 114.352 28.0955 114.352C25.5142 114.352 23.5408 113.659 22.1755 112.272C20.8102 110.885 20.1275 108.688 20.1275 105.68C20.1275 104.272 20.3195 103.024 20.7035 101.936C21.0875 100.827 21.6102 99.8987 22.2715 99.152C22.9542 98.384 23.7648 97.808 24.7035 97.424C25.6422 97.0187 26.6662 96.816 27.7755 96.816ZM27.8395 99.92C27.2635 99.92 26.7515 100.037 26.3035 100.272C25.8555 100.485 25.4715 100.784 25.1515 101.168C24.8315 101.552 24.5755 101.989 24.3835 102.48C24.1915 102.971 24.0848 103.483 24.0635 104.016H31.4235C31.4235 103.44 31.3702 102.907 31.2635 102.416C31.1568 101.925 30.9648 101.499 30.6875 101.136C30.4315 100.752 30.0688 100.453 29.5995 100.24C29.1515 100.027 28.5648 99.92 27.8395 99.92ZM48.5678 113.264C48.5891 113.392 48.5891 113.509 48.5678 113.616C48.5678 113.701 48.4718 113.787 48.2798 113.872C47.5544 114.107 46.8291 114.245 46.1038 114.288C45.3784 114.331 44.8131 114.352 44.4078 114.352C42.6584 114.352 41.4211 113.979 40.6958 113.232C39.9704 112.485 39.6078 111.344 39.6078 109.808V100.048H37.3358C37.1011 100.048 36.9518 100.005 36.8878 99.92C36.8451 99.8133 36.8238 99.6747 36.8238 99.504V98.192C36.8238 98 36.8558 97.8613 36.9198 97.776C36.9838 97.6907 37.1224 97.6267 37.3358 97.584L39.7678 97.04L40.1838 94C40.2264 93.7653 40.2904 93.6053 40.3758 93.52C40.4824 93.4347 40.6531 93.3493 40.8878 93.264L42.7438 92.624C42.9144 92.5813 43.0531 92.6027 43.1598 92.688C43.2664 92.752 43.3198 92.9013 43.3198 93.136V97.2H46.7438C46.9784 97.2 47.1171 97.2533 47.1598 97.36C47.2238 97.4453 47.2558 97.5627 47.2558 97.712V99.504C47.2558 99.696 47.2238 99.8347 47.1598 99.92C47.1171 100.005 46.9784 100.048 46.7438 100.048H43.3198V109.328C43.3198 110.011 43.4798 110.48 43.7998 110.736C44.1198 110.992 44.6104 111.12 45.2718 111.12C45.3998 111.12 45.5704 111.12 45.7838 111.12C45.9971 111.099 46.2104 111.077 46.4238 111.056C46.6584 111.035 46.8824 111.013 47.0958 110.992C47.3304 110.949 47.5224 110.917 47.6718 110.896C47.8851 110.853 48.0238 110.864 48.0878 110.928C48.1518 110.971 48.1944 111.067 48.2158 111.216L48.5678 113.264Z" fill="#2A3645"/>
<path d="M61.0663 110.736C62.0263 110.736 62.9116 110.629 63.7223 110.416C64.5329 110.181 65.2903 109.925 65.9943 109.648C66.2929 109.52 66.4956 109.499 66.6023 109.584C66.7303 109.669 66.8263 109.797 66.8903 109.968L67.7222 111.792C67.8716 112.091 67.9249 112.304 67.8823 112.432C67.8396 112.539 67.7329 112.645 67.5623 112.752C66.4743 113.392 65.3116 113.819 64.0743 114.032C62.8369 114.245 61.6423 114.352 60.4903 114.352C57.2476 114.352 54.7943 113.413 53.1302 111.536C51.4876 109.659 50.6663 106.832 50.6663 103.056C50.6663 101.285 50.9116 99.6747 51.4023 98.224C51.8929 96.7733 52.5756 95.536 53.4503 94.512C54.3249 93.488 55.3809 92.6987 56.6183 92.144C57.8556 91.568 59.2316 91.28 60.7463 91.28C61.7063 91.28 62.6876 91.3653 63.6903 91.536C64.7143 91.7067 65.7489 92.0693 66.7943 92.624C66.9649 92.7093 67.0716 92.816 67.1143 92.944C67.1783 93.0507 67.1463 93.2533 67.0183 93.552L66.1223 95.408C66.0369 95.6213 65.9516 95.76 65.8663 95.824C65.7809 95.888 65.6209 95.8667 65.3863 95.76C64.6823 95.4827 63.9569 95.2693 63.2103 95.12C62.4849 94.9493 61.7169 94.864 60.9063 94.864C59.8396 94.864 58.9116 95.088 58.1223 95.536C57.3543 95.984 56.7143 96.592 56.2023 97.36C55.7116 98.1067 55.3383 98.9813 55.0823 99.984C54.8476 100.965 54.7303 101.989 54.7303 103.056C54.7303 104.123 54.8263 105.125 55.0183 106.064C55.2316 106.981 55.5729 107.792 56.0423 108.496C56.5329 109.179 57.1836 109.723 57.9943 110.128C58.8263 110.533 59.8503 110.736 61.0663 110.736ZM72.942 114C72.2593 114 71.79 113.861 71.534 113.584C71.278 113.285 71.15 112.816 71.15 112.176V93.392C71.15 92.7733 71.278 92.3147 71.534 92.016C71.79 91.7173 72.2593 91.568 72.942 91.568L78.862 91.536C80.59 91.536 82.094 91.8133 83.374 92.368C84.654 92.9227 85.71 93.6907 86.542 94.672C87.374 95.6533 87.9927 96.8267 88.398 98.192C88.8033 99.536 89.006 101.019 89.006 102.64C89.006 104.24 88.8247 105.733 88.462 107.12C88.0993 108.507 87.5233 109.712 86.734 110.736C85.9447 111.739 84.9207 112.539 83.662 113.136C82.4247 113.712 80.9313 114 79.182 114H72.942ZM84.974 102.704C84.974 101.616 84.8673 100.613 84.654 99.696C84.462 98.7573 84.1207 97.9467 83.63 97.264C83.1393 96.56 82.478 96.016 81.646 95.632C80.814 95.2267 79.7793 95.024 78.542 95.024H75.086V110.512H78.638C79.8753 110.512 80.8993 110.32 81.71 109.936C82.5207 109.531 83.1607 108.987 83.63 108.304C84.1207 107.6 84.462 106.779 84.654 105.84C84.8673 104.88 84.974 103.835 84.974 102.704ZM97.0213 97.424V113.328C97.0213 113.627 96.9679 113.819 96.8613 113.904C96.7759 113.968 96.5839 114 96.2853 114H93.9173C93.6826 114 93.5013 113.957 93.3733 113.872C93.2453 113.787 93.1813 113.605 93.1813 113.328V93.52C93.1813 92.8373 93.3093 92.3467 93.5653 92.048C93.8426 91.728 94.3333 91.568 95.0373 91.568H96.1573C96.7119 91.568 97.1173 91.6747 97.3733 91.888C97.6293 92.08 97.9279 92.4427 98.2693 92.976L104.637 103.568L107.357 108.176H107.485V92.24C107.485 91.9627 107.539 91.7813 107.645 91.696C107.752 91.6107 107.944 91.568 108.221 91.568H110.589C110.867 91.568 111.059 91.6107 111.165 91.696C111.272 91.7813 111.325 91.9627 111.325 92.24V112.08C111.325 112.699 111.197 113.179 110.941 113.52C110.685 113.84 110.195 114 109.469 114H108.349C108.072 114 107.837 113.979 107.645 113.936C107.453 113.893 107.283 113.819 107.133 113.712C106.984 113.605 106.835 113.467 106.685 113.296C106.557 113.104 106.408 112.88 106.237 112.624L99.8373 102L97.1493 97.424H97.0213Z" fill="#E63946"/>
<path d="M7.296 100.048V102.048H7.34359L7.39113 102.046L7.296 100.048ZM5.792 100.208L5.42782 98.2414L3.792 98.5444V100.208H5.792ZM5.664 113.904L4.464 112.304L4.464 112.304L5.664 113.904ZM2.208 113.904L1.008 115.504L1.09054 115.566L1.17901 115.619L2.208 113.904ZM2.496 97.968L0.819113 96.878L0.819112 96.878L2.496 97.968ZM4.224 97.104L4.02498 95.1139L3.95587 95.1208L3.88741 95.1325L4.224 97.104ZM5.088 97.008L5.32168 98.9943L5.32169 98.9943L5.088 97.008ZM6.24 96.912L6.13488 94.9148L6.13488 94.9148L6.24 96.912ZM12.064 97.264L11.504 99.184L11.5146 99.187L12.064 97.264ZM14.624 98.704L13.2098 100.118L13.2326 100.141L13.2561 100.163L14.624 98.704ZM16.128 101.232L14.2156 101.817L14.2156 101.817L16.128 101.232ZM12.992 113.904L11.792 115.504L11.8745 115.566L11.963 115.619L12.992 113.904ZM12.64 102.768L10.6815 103.173L10.6881 103.205L10.6958 103.237L12.64 102.768ZM10.528 100.336L9.83337 102.211L9.87437 102.227L9.91598 102.24L10.528 100.336ZM8.32 98.016C8.03685 98.016 7.65761 98.0285 7.20087 98.0503L7.39113 102.046C7.83039 102.025 8.13381 102.016 8.32 102.016V98.016ZM7.296 98.048C6.71157 98.048 6.08296 98.1201 5.42782 98.2414L6.15618 102.175C6.65304 102.083 7.02709 102.048 7.296 102.048V98.048ZM3.792 100.208V113.456H7.792V100.208H3.792ZM3.792 113.456C3.792 113.456 3.79191 113.434 3.79623 113.395C3.8004 113.358 3.81055 113.287 3.83695 113.195C3.88288 113.034 4.03017 112.629 4.464 112.304L6.864 115.504C7.38316 115.115 7.59445 114.604 7.68305 114.293C7.77436 113.974 7.792 113.675 7.792 113.456H3.792ZM4.464 112.304C4.75317 112.087 5.01544 112.029 5.08777 112.015C5.17947 111.996 5.22159 112 5.184 112V116C5.38107 116 5.62053 115.988 5.87223 115.937C6.10456 115.891 6.4895 115.785 6.864 115.504L4.464 112.304ZM5.184 112H2.688V116H5.184V112ZM2.688 112C2.67533 112 2.71873 111.999 2.80023 112.015C2.87888 112.031 3.04321 112.073 3.23699 112.189L1.17901 115.619C1.74642 115.959 2.33995 116 2.688 116V112ZM3.408 112.304C3.84183 112.629 3.98912 113.034 4.03505 113.195C4.06145 113.287 4.0716 113.358 4.07577 113.395C4.08009 113.434 4.08 113.456 4.08 113.456H0.0800002C0.0800002 113.675 0.0976362 113.974 0.188952 114.293C0.27755 114.604 0.488837 115.115 1.008 115.504L3.408 112.304ZM4.08 113.456V99.76H0.0800002V113.456H4.08ZM4.08 99.76C4.08 99.4919 4.10464 99.307 4.13219 99.1883C4.15937 99.0712 4.18409 99.0407 4.17289 99.058L0.819112 96.878C0.249111 97.7549 0.0800002 98.789 0.0800002 99.76H4.08ZM4.17289 99.058C4.07243 99.2125 3.97749 99.2473 4.03043 99.2209C4.09016 99.191 4.24957 99.1286 4.56059 99.0755L3.88741 95.1325C2.84635 95.3103 1.56234 95.7346 0.819113 96.878L4.17289 99.058ZM4.42302 99.0941C4.65315 99.0711 4.95426 99.0375 5.32168 98.9943L4.85432 95.0217C4.49641 95.0638 4.22152 95.0943 4.02498 95.1139L4.42302 99.0941ZM5.32169 98.9943C5.63723 98.9572 5.97808 98.9286 6.34512 98.9092L6.13488 94.9148C5.69125 94.9381 5.26411 94.9735 4.85431 95.0217L5.32169 98.9943ZM6.34512 98.9092C6.75228 98.8878 7.1489 98.8664 7.53494 98.8449L7.31306 94.8511C6.93111 94.8723 6.53838 94.8935 6.13488 94.9148L6.34512 98.9092ZM7.53494 98.8449C7.89494 98.8249 8.18669 98.816 8.416 98.816V94.816C8.09064 94.816 7.72106 94.8284 7.31306 94.8511L7.53494 98.8449ZM8.416 98.816C9.69121 98.816 10.7094 98.9522 11.504 99.184L12.624 95.344C11.3706 94.9784 9.95679 94.816 8.416 94.816V98.816ZM11.5146 99.187C12.2866 99.4076 12.8253 99.7337 13.2098 100.118L16.0382 97.2898C15.1001 96.3516 13.9321 95.7177 12.6134 95.341L11.5146 99.187ZM13.2561 100.163C13.6442 100.527 13.9804 101.049 14.2156 101.817L18.0404 100.647C17.6356 99.3241 16.9692 98.1611 15.9919 97.2449L13.2561 100.163ZM14.2156 101.817C14.4614 102.62 14.608 103.67 14.608 105.008H18.608C18.608 103.402 18.4346 101.934 18.0404 100.647L14.2156 101.817ZM14.608 105.008V113.456H18.608V105.008H14.608ZM14.608 113.456C14.608 113.456 14.6079 113.434 14.6122 113.395C14.6164 113.358 14.6266 113.287 14.653 113.195C14.6989 113.034 14.8462 112.629 15.28 112.304L17.68 115.504C18.1992 115.115 18.4105 114.604 18.499 114.293C18.5904 113.974 18.608 113.675 18.608 113.456H14.608ZM15.28 112.304C15.5692 112.087 15.8314 112.029 15.9038 112.015C15.9955 111.996 16.0376 112 16 112V116C16.1971 116 16.4365 115.988 16.6882 115.937C16.9206 115.891 17.3055 115.785 17.68 115.504L15.28 112.304ZM16 112H13.472V116H16V112ZM13.472 112C13.4593 112 13.5027 111.999 13.5842 112.015C13.6629 112.031 13.8272 112.073 14.021 112.189L11.963 115.619C12.5304 115.959 13.124 116 13.472 116V112ZM14.192 112.304C14.6258 112.629 14.7731 113.034 14.819 113.195C14.8455 113.287 14.8556 113.358 14.8598 113.395C14.8641 113.434 14.864 113.456 14.864 113.456H10.864C10.864 113.675 10.8816 113.974 10.973 114.293C11.0616 114.604 11.2728 115.115 11.792 115.504L14.192 112.304ZM14.864 113.456V104.944H10.864V113.456H14.864ZM14.864 104.944C14.864 103.999 14.7799 103.11 14.5842 102.299L10.6958 103.237C10.7988 103.664 10.864 104.225 10.864 104.944H14.864ZM14.5985 102.363C14.4161 101.481 14.0588 100.648 13.4658 99.9437L10.4062 102.52C10.4959 102.627 10.6079 102.818 10.6815 103.173L14.5985 102.363ZM13.4658 99.9437C12.841 99.2018 12.0284 98.7175 11.14 98.4319L9.91598 102.24C10.2223 102.339 10.3483 102.452 10.4062 102.52L13.4658 99.9437ZM11.2226 98.4605C10.3473 98.1363 9.35411 98.016 8.32 98.016V102.016C9.0779 102.016 9.55669 102.109 9.83337 102.211L11.2226 98.4605ZM33.2155 98.704L31.7526 100.068L31.7587 100.074L31.7649 100.081L33.2155 98.704ZM34.8155 105.264L32.9295 104.598L32.9295 104.598L34.8155 105.264ZM34.2715 106.128L35.6168 107.608L35.6168 107.608L34.2715 106.128ZM33.4395 106.576L32.9242 104.644L32.9071 104.648L32.8901 104.653L33.4395 106.576ZM23.9355 106.704V104.704H21.8836L21.9362 106.755L23.9355 106.704ZM24.3195 108.816L22.4673 109.571L22.4724 109.583L22.4776 109.595L24.3195 108.816ZM25.2795 110.192L23.9459 111.682L23.9683 111.702L23.9912 111.722L25.2795 110.192ZM26.6875 110.928L26.1482 112.854L26.1482 112.854L26.6875 110.928ZM30.4315 110.896L29.9317 108.959L29.9317 108.959L30.4315 110.896ZM32.1595 110.288L31.3579 108.456L31.327 108.469L31.2966 108.484L32.1595 110.288ZM32.8635 110.48L31.0476 111.318L31.0518 111.327L31.056 111.336L32.8635 110.48ZM33.7275 112.304L35.5598 111.502L35.5478 111.475L35.535 111.448L33.7275 112.304ZM33.5035 113.04L32.6091 111.251L32.5369 111.287L32.4679 111.329L33.5035 113.04ZM30.8475 114.064L31.2397 116.025L31.2397 116.025L30.8475 114.064ZM22.1755 112.272L23.6006 110.869L22.1755 112.272ZM20.7035 101.936L22.5895 102.602L22.5935 102.59L20.7035 101.936ZM22.2715 99.152L20.7767 97.8233L20.7743 97.8259L22.2715 99.152ZM24.7035 97.424L25.4608 99.2751L25.4786 99.2678L25.4964 99.2601L24.7035 97.424ZM26.3035 100.272L27.1634 102.078L27.1978 102.061L27.2315 102.044L26.3035 100.272ZM24.3835 102.48L22.521 101.751L22.521 101.751L24.3835 102.48ZM24.0635 104.016L22.0651 103.936L21.9819 106.016H24.0635V104.016ZM31.4235 104.016V106.016H33.4235V104.016H31.4235ZM31.2635 102.416L29.3091 102.841L29.3091 102.841L31.2635 102.416ZM30.6875 101.136L29.0234 102.245L29.0594 102.299L29.0988 102.351L30.6875 101.136ZM29.5995 100.24L28.7396 102.046L28.7557 102.053L28.7719 102.061L29.5995 100.24ZM27.7755 98.816C29.9148 98.816 31.0952 99.3626 31.7526 100.068L34.6784 97.3402C32.9891 95.5281 30.5429 94.816 27.7755 94.816V98.816ZM31.7649 100.081C32.5197 100.876 33.0075 102.061 33.0075 103.888H37.0075C37.0075 101.321 36.3006 99.0492 34.6661 97.3271L31.7649 100.081ZM33.0075 103.888C33.0075 104.307 32.9567 104.521 32.9295 104.598L36.7015 105.93C36.9303 105.281 37.0075 104.578 37.0075 103.888H33.0075ZM32.9295 104.598C32.9087 104.657 32.8931 104.683 32.891 104.686C32.8898 104.688 32.9002 104.672 32.9262 104.648L35.6168 107.608C36.1432 107.129 36.4866 106.538 36.7015 105.93L32.9295 104.598ZM32.9262 104.648C32.9268 104.648 32.9286 104.646 32.9315 104.644C32.9343 104.642 32.9371 104.64 32.9393 104.639C32.9415 104.638 32.942 104.638 32.9402 104.638C32.9383 104.639 32.9332 104.641 32.9242 104.644L33.9548 108.508C34.5696 108.345 35.1351 108.046 35.6168 107.608L32.9262 104.648ZM32.8901 104.653C32.797 104.68 32.6546 104.704 32.4475 104.704V108.704C32.9657 108.704 33.4846 108.643 33.9889 108.499L32.8901 104.653ZM32.4475 104.704H23.9355V108.704H32.4475V104.704ZM21.9362 106.755C21.9617 107.752 22.1165 108.709 22.4673 109.571L26.1717 108.061C26.0532 107.771 25.952 107.32 25.9348 106.653L21.9362 106.755ZM22.4776 109.595C22.8147 110.392 23.2981 111.103 23.9459 111.682L26.6131 108.702C26.4502 108.556 26.2936 108.349 26.1614 108.037L22.4776 109.595ZM23.9912 111.722C24.625 112.255 25.3525 112.631 26.1482 112.854L27.2268 109.002C26.9558 108.926 26.7447 108.811 26.5678 108.662L23.9912 111.722ZM26.1482 112.854C26.8762 113.058 27.6355 113.152 28.4155 113.152V109.152C27.9581 109.152 27.5654 109.097 27.2268 109.002L26.1482 112.854ZM28.4155 113.152C29.2668 113.152 30.1068 113.045 30.9313 112.833L29.9317 108.959C29.4336 109.088 28.9295 109.152 28.4155 109.152V113.152ZM30.9313 112.833C31.6875 112.637 32.3902 112.395 33.0224 112.092L31.2966 108.484C30.9475 108.651 30.4982 108.813 29.9317 108.959L30.9313 112.833ZM32.9611 112.12C32.9249 112.136 32.5692 112.291 32.0653 112.154C31.4713 111.992 31.1624 111.567 31.0476 111.318L34.6794 109.642C34.4366 109.116 33.9463 108.52 33.1177 108.294C32.3791 108.093 31.7354 108.29 31.3579 108.456L32.9611 112.12ZM31.056 111.336L31.92 113.16L35.535 111.448L34.671 109.624L31.056 111.336ZM31.8952 113.106C31.8634 113.033 31.7175 112.663 31.8702 112.162C32.037 111.613 32.4234 111.344 32.6091 111.251L34.3979 114.829C34.8823 114.587 35.4553 114.12 35.6968 113.326C35.9242 112.579 35.7409 111.916 35.5598 111.502L31.8952 113.106ZM32.4679 111.329C31.8621 111.696 31.1956 111.955 30.4553 112.103L31.2397 116.025C32.4194 115.789 33.5235 115.366 34.5391 114.751L32.4679 111.329ZM30.4553 112.103C29.6094 112.272 28.8239 112.352 28.0955 112.352V116.352C29.1164 116.352 30.1656 116.24 31.2397 116.025L30.4553 112.103ZM28.0955 112.352C25.8685 112.352 24.4794 111.761 23.6006 110.869L20.7504 113.675C22.6023 115.556 25.1598 116.352 28.0955 116.352V112.352ZM23.6006 110.869C22.7616 110.017 22.1275 108.442 22.1275 105.68H18.1275C18.1275 108.934 18.8587 111.754 20.7504 113.675L23.6006 110.869ZM22.1275 105.68C22.1275 104.45 22.2955 103.435 22.5895 102.602L18.8175 101.27C18.3435 102.613 18.1275 104.094 18.1275 105.68H22.1275ZM22.5935 102.59C22.9067 101.685 23.3089 100.997 23.7687 100.478L20.7743 97.8259C19.9115 98.8001 19.2683 99.968 18.8135 101.282L22.5935 102.59ZM23.7663 100.481C24.249 99.9377 24.8084 99.542 25.4608 99.2751L23.9462 95.5729C22.7212 96.074 21.6593 96.8303 20.7767 97.8233L23.7663 100.481ZM25.4964 99.2601C26.1641 98.9718 26.9155 98.816 27.7755 98.816V94.816C26.4169 94.816 25.1203 95.0655 23.9106 95.5879L25.4964 99.2601ZM27.8395 97.92C26.9856 97.92 26.1474 98.096 25.3755 98.5003L27.2315 102.044C27.3556 101.979 27.5414 101.92 27.8395 101.92V97.92ZM25.4436 98.4663C24.7328 98.8048 24.1186 99.2834 23.6151 99.8876L26.6879 102.448C26.8244 102.285 26.9782 102.166 27.1634 102.078L25.4436 98.4663ZM23.6151 99.8876C23.1501 100.446 22.7871 101.071 22.521 101.751L26.246 103.209C26.3639 102.907 26.5129 102.658 26.6879 102.448L23.6151 99.8876ZM22.521 101.751C22.2469 102.452 22.0952 103.183 22.0651 103.936L26.0619 104.096C26.0745 103.782 26.1361 103.49 26.246 103.209L22.521 101.751ZM24.0635 106.016H31.4235V102.016H24.0635V106.016ZM33.4235 104.016C33.4235 103.318 33.3589 102.64 33.2179 101.991L29.3091 102.841C29.3814 103.173 29.4235 103.562 29.4235 104.016H33.4235ZM33.2179 101.991C33.0551 101.242 32.7491 100.54 32.2762 99.9211L29.0988 102.351C29.1805 102.458 29.2586 102.608 29.3091 102.841L33.2179 101.991ZM32.3516 100.027C31.865 99.2967 31.1952 98.7684 30.4271 98.4193L28.7719 102.061C28.9424 102.138 28.998 102.207 29.0234 102.245L32.3516 100.027ZM30.4594 98.4343C29.648 98.0479 28.7357 97.92 27.8395 97.92V101.92C28.3939 101.92 28.655 102.005 28.7396 102.046L30.4594 98.4343ZM48.5678 113.264L50.5406 112.935L50.5388 112.925L48.5678 113.264ZM48.5678 113.616L46.6066 113.224L46.5678 113.418V113.616H48.5678ZM48.2798 113.872L48.8954 115.775L48.9957 115.742L49.092 115.7L48.2798 113.872ZM46.1038 114.288L45.9863 112.291L45.9863 112.291L46.1038 114.288ZM40.6958 113.232L42.1303 111.838L42.1303 111.838L40.6958 113.232ZM39.6078 100.048H41.6078V98.048H39.6078V100.048ZM36.8878 99.92L35.0308 100.663L35.129 100.908L35.2877 101.12L36.8878 99.92ZM37.3358 97.584L37.728 99.5452L37.7502 99.5407L37.7723 99.5358L37.3358 97.584ZM39.7678 97.04L40.2043 98.9918L41.5608 98.6883L41.7493 97.3112L39.7678 97.04ZM40.1838 94L38.216 93.6422L38.2082 93.6854L38.2022 93.7288L40.1838 94ZM40.3758 93.52L39.1264 91.9583L39.0399 92.0275L38.9615 92.1058L40.3758 93.52ZM40.8878 93.264L40.2358 91.3733L40.22 91.3787L40.2043 91.3844L40.8878 93.264ZM42.7438 92.624L42.2587 90.6837L42.1741 90.7048L42.0918 90.7333L42.7438 92.624ZM43.1598 92.688L41.9104 94.2497L42.0154 94.3338L42.1308 94.403L43.1598 92.688ZM43.3198 97.2H41.3198V99.2H43.3198V97.2ZM47.1598 97.36L45.3028 98.1028L45.401 98.3484L45.5597 98.56L47.1598 97.36ZM47.1598 99.92L45.5597 98.72L45.4515 98.8643L45.3709 99.0256L47.1598 99.92ZM43.3198 100.048V98.048H41.3198V100.048H43.3198ZM45.7838 111.12V113.12H45.8835L45.9828 113.11L45.7838 111.12ZM46.4238 111.056L46.2427 109.064L46.2337 109.065L46.2247 109.066L46.4238 111.056ZM47.0958 110.992L47.2948 112.982L47.3746 112.974L47.4535 112.96L47.0958 110.992ZM47.6718 110.896L47.9546 112.876L48.0095 112.868L48.064 112.857L47.6718 110.896ZM48.0878 110.928L46.6735 112.342L46.8136 112.482L46.9783 112.592L48.0878 110.928ZM48.2158 111.216L46.2359 111.499L46.2399 111.527L46.2447 111.555L48.2158 111.216ZM46.595 113.593C46.584 113.527 46.5722 113.396 46.6066 113.224L50.5289 114.008C50.606 113.623 50.5942 113.257 50.5405 112.935L46.595 113.593ZM46.5678 113.616C46.5678 112.85 47.0049 112.393 47.167 112.249C47.2623 112.165 47.3432 112.113 47.3861 112.087C47.4315 112.061 47.4614 112.047 47.4675 112.044L49.092 115.7C49.2727 115.619 49.556 115.477 49.8245 115.239C50.0826 115.009 50.5678 114.467 50.5678 113.616H46.5678ZM47.6641 111.969C47.0923 112.154 46.5341 112.259 45.9863 112.291L46.2212 116.285C47.124 116.231 48.0166 116.059 48.8954 115.775L47.6641 111.969ZM45.9863 112.291C45.2747 112.333 44.7548 112.352 44.4078 112.352V116.352C44.8713 116.352 45.4821 116.328 46.2212 116.285L45.9863 112.291ZM44.4078 112.352C42.8509 112.352 42.291 112.004 42.1303 111.838L39.2612 114.626C40.5511 115.953 42.466 116.352 44.4078 116.352V112.352ZM42.1303 111.838C41.9085 111.61 41.6078 111.069 41.6078 109.808H37.6078C37.6078 111.619 38.0324 113.361 39.2612 114.626L42.1303 111.838ZM41.6078 109.808V100.048H37.6078V109.808H41.6078ZM39.6078 98.048H37.3358V102.048H39.6078V98.048ZM37.3358 98.048C37.3358 98.048 37.3577 98.0479 37.3966 98.0522C37.4342 98.0564 37.5048 98.0665 37.5972 98.093C37.758 98.1389 38.1624 98.2862 38.4878 98.72L35.2877 101.12C35.6771 101.639 36.1882 101.85 36.4983 101.939C36.8179 102.03 37.1171 102.048 37.3358 102.048V98.048ZM38.7447 99.1772C38.7906 99.2921 38.8089 99.3827 38.8165 99.4319C38.8242 99.482 38.8238 99.5085 38.8238 99.504H34.8238C34.8238 99.817 34.8594 100.234 35.0308 100.663L38.7447 99.1772ZM38.8238 99.504V98.192H34.8238V99.504H38.8238ZM38.8238 98.192C38.8238 98.1986 38.824 98.2746 38.7965 98.3937C38.7697 98.51 38.701 98.7344 38.5198 98.976L35.3197 96.576C34.859 97.1903 34.8238 97.8717 34.8238 98.192H38.8238ZM38.5198 98.976C38.2854 99.2885 38.0198 99.4292 37.9099 99.4799C37.846 99.5094 37.7968 99.5259 37.7698 99.534C37.7554 99.5384 37.7447 99.5412 37.7381 99.5428C37.7347 99.5437 37.7321 99.5443 37.7305 99.5446C37.7288 99.545 37.728 99.5452 37.728 99.5452L36.9435 95.6228C36.6721 95.6771 35.8631 95.8515 35.3197 96.576L38.5198 98.976ZM37.7723 99.5358L40.2043 98.9918L39.3312 95.0882L36.8992 95.6322L37.7723 99.5358ZM41.7493 97.3112L42.1653 94.2712L38.2022 93.7288L37.7862 96.7688L41.7493 97.3112ZM42.1515 94.3578C42.1573 94.326 42.1533 94.3654 42.1207 94.4468C42.0919 94.5188 42.0023 94.7219 41.79 94.9342L38.9615 92.1058C38.4201 92.6472 38.2722 93.3334 38.216 93.6422L42.1515 94.3578ZM41.6251 95.0817C41.5769 95.1203 41.5384 95.1455 41.5159 95.1593C41.493 95.1734 41.4793 95.1803 41.4782 95.1809C41.4767 95.1816 41.4833 95.1782 41.4999 95.1713C41.5162 95.1644 41.5397 95.1551 41.5712 95.1436L40.2043 91.3844C39.9049 91.4933 39.4897 91.6676 39.1264 91.9583L41.6251 95.0817ZM41.5397 95.1547L43.3957 94.5147L42.0918 90.7333L40.2358 91.3733L41.5397 95.1547ZM43.2288 94.5643C43.1194 94.5916 42.9227 94.6234 42.6716 94.5847C42.4048 94.5437 42.138 94.4319 41.9104 94.2497L44.4091 91.1263C43.6796 90.5427 42.8441 90.5374 42.2587 90.6837L43.2288 94.5643ZM42.1308 94.403C41.6887 94.1377 41.4816 93.7597 41.3963 93.5207C41.3183 93.3023 41.3198 93.1485 41.3198 93.136H45.3198C45.3198 92.8038 45.2794 91.6274 44.1887 90.973L42.1308 94.403ZM41.3198 93.136V97.2H45.3198V93.136H41.3198ZM43.3198 99.2H46.7438V95.2H43.3198V99.2ZM46.7438 99.2C46.7413 99.2 46.5592 99.2042 46.3058 99.1067C46.0166 98.9955 45.5446 98.7072 45.3028 98.1028L49.0167 96.6172C48.7323 95.9061 48.1696 95.5379 47.7417 95.3733C47.3496 95.2225 46.9808 95.2 46.7438 95.2V99.2ZM45.5597 98.56C45.2783 98.1848 45.2558 97.8265 45.2558 97.712H49.2558C49.2558 97.2988 49.1692 96.7059 48.7598 96.16L45.5597 98.56ZM45.2558 97.712V99.504H49.2558V97.712H45.2558ZM45.2558 99.504C45.2558 99.4974 45.2555 99.4214 45.283 99.3023C45.3098 99.186 45.3785 98.9616 45.5597 98.72L48.7598 101.12C49.2205 100.506 49.2558 99.8243 49.2558 99.504H45.2558ZM45.3709 99.0256C45.6964 98.3745 46.2518 98.161 46.4356 98.1044C46.5472 98.0701 46.6326 98.0577 46.6747 98.0529C46.6979 98.0503 46.7154 98.0491 46.7261 98.0486C46.737 98.048 46.743 98.048 46.7438 98.048V102.048C46.9536 102.048 47.2714 102.032 47.6119 101.928C47.9344 101.828 48.5804 101.551 48.9486 100.814L45.3709 99.0256ZM46.7438 98.048H43.3198V102.048H46.7438V98.048ZM41.3198 100.048V109.328H45.3198V100.048H41.3198ZM41.3198 109.328C41.3198 110.222 41.5148 111.469 42.5504 112.298L45.0491 109.174C45.1413 109.248 45.2098 109.328 45.2576 109.4C45.304 109.47 45.3252 109.524 45.3328 109.547C45.3401 109.568 45.3362 109.564 45.3307 109.525C45.3253 109.486 45.3198 109.422 45.3198 109.328H41.3198ZM42.5504 112.298C43.3849 112.965 44.4155 113.12 45.2718 113.12V109.12C45.0629 109.12 44.9519 109.099 44.9126 109.089C44.8762 109.079 44.9444 109.09 45.0491 109.174L42.5504 112.298ZM45.2718 113.12C45.272 113.12 45.2723 113.12 45.2725 113.12C45.2728 113.12 45.273 113.12 45.2733 113.12C45.2735 113.12 45.2738 113.12 45.274 113.12C45.2743 113.12 45.2745 113.12 45.2748 113.12C45.275 113.12 45.2753 113.12 45.2755 113.12C45.2758 113.12 45.276 113.12 45.2763 113.12C45.2765 113.12 45.2768 113.12 45.277 113.12C45.2773 113.12 45.2775 113.12 45.2778 113.12C45.278 113.12 45.2783 113.12 45.2785 113.12C45.2788 113.12 45.279 113.12 45.2793 113.12C45.2796 113.12 45.2798 113.12 45.2801 113.12C45.2803 113.12 45.2806 113.12 45.2808 113.12C45.2811 113.12 45.2813 113.12 45.2816 113.12C45.2818 113.12 45.2821 113.12 45.2823 113.12C45.2826 113.12 45.2829 113.12 45.2831 113.12C45.2834 113.12 45.2836 113.12 45.2839 113.12C45.2841 113.12 45.2844 113.12 45.2846 113.12C45.2849 113.12 45.2852 113.12 45.2854 113.12C45.2857 113.12 45.2859 113.12 45.2862 113.12C45.2864 113.12 45.2867 113.12 45.2869 113.12C45.2872 113.12 45.2875 113.12 45.2877 113.12C45.288 113.12 45.2882 113.12 45.2885 113.12C45.2887 113.12 45.289 113.12 45.2893 113.12C45.2895 113.12 45.2898 113.12 45.29 113.12C45.2903 113.12 45.2905 113.12 45.2908 113.12C45.2911 113.12 45.2913 113.12 45.2916 113.12C45.2918 113.12 45.2921 113.12 45.2924 113.12C45.2926 113.12 45.2929 113.12 45.2931 113.12C45.2934 113.12 45.2937 113.12 45.2939 113.12C45.2942 113.12 45.2944 113.12 45.2947 113.12C45.2949 113.12 45.2952 113.12 45.2955 113.12C45.2957 113.12 45.296 113.12 45.2963 113.12C45.2965 113.12 45.2968 113.12 45.297 113.12C45.2973 113.12 45.2976 113.12 45.2978 113.12C45.2981 113.12 45.2983 113.12 45.2986 113.12C45.2989 113.12 45.2991 113.12 45.2994 113.12C45.2996 113.12 45.2999 113.12 45.3002 113.12C45.3004 113.12 45.3007 113.12 45.301 113.12C45.3012 113.12 45.3015 113.12 45.3017 113.12C45.302 113.12 45.3023 113.12 45.3025 113.12C45.3028 113.12 45.3031 113.12 45.3033 113.12C45.3036 113.12 45.3038 113.12 45.3041 113.12C45.3044 113.12 45.3046 113.12 45.3049 113.12C45.3052 113.12 45.3054 113.12 45.3057 113.12C45.306 113.12 45.3062 113.12 45.3065 113.12C45.3068 113.12 45.307 113.12 45.3073 113.12C45.3075 113.12 45.3078 113.12 45.3081 113.12C45.3083 113.12 45.3086 113.12 45.3089 113.12C45.3091 113.12 45.3094 113.12 45.3097 113.12C45.3099 113.12 45.3102 113.12 45.3105 113.12C45.3107 113.12 45.311 113.12 45.3113 113.12C45.3115 113.12 45.3118 113.12 45.3121 113.12C45.3123 113.12 45.3126 113.12 45.3129 113.12C45.3131 113.12 45.3134 113.12 45.3137 113.12C45.3139 113.12 45.3142 113.12 45.3145 113.12C45.3147 113.12 45.315 113.12 45.3153 113.12C45.3156 113.12 45.3158 113.12 45.3161 113.12C45.3164 113.12 45.3166 113.12 45.3169 113.12C45.3172 113.12 45.3174 113.12 45.3177 113.12C45.318 113.12 45.3182 113.12 45.3185 113.12C45.3188 113.12 45.319 113.12 45.3193 113.12C45.3196 113.12 45.3199 113.12 45.3201 113.12C45.3204 113.12 45.3207 113.12 45.3209 113.12C45.3212 113.12 45.3215 113.12 45.3218 113.12C45.322 113.12 45.3223 113.12 45.3226 113.12C45.3228 113.12 45.3231 113.12 45.3234 113.12C45.3236 113.12 45.3239 113.12 45.3242 113.12C45.3245 113.12 45.3247 113.12 45.325 113.12C45.3253 113.12 45.3256 113.12 45.3258 113.12C45.3261 113.12 45.3264 113.12 45.3266 113.12C45.3269 113.12 45.3272 113.12 45.3275 113.12C45.3277 113.12 45.328 113.12 45.3283 113.12C45.3286 113.12 45.3288 113.12 45.3291 113.12C45.3294 113.12 45.3297 113.12 45.3299 113.12C45.3302 113.12 45.3305 113.12 45.3307 113.12C45.331 113.12 45.3313 113.12 45.3316 113.12C45.3318 113.12 45.3321 113.12 45.3324 113.12C45.3327 113.12 45.3329 113.12 45.3332 113.12C45.3335 113.12 45.3338 113.12 45.334 113.12C45.3343 113.12 45.3346 113.12 45.3349 113.12C45.3352 113.12 45.3354 113.12 45.3357 113.12C45.336 113.12 45.3363 113.12 45.3365 113.12C45.3368 113.12 45.3371 113.12 45.3374 113.12C45.3376 113.12 45.3379 113.12 45.3382 113.12C45.3385 113.12 45.3388 113.12 45.339 113.12C45.3393 113.12 45.3396 113.12 45.3399 113.12C45.3401 113.12 45.3404 113.12 45.3407 113.12C45.341 113.12 45.3413 113.12 45.3415 113.12C45.3418 113.12 45.3421 113.12 45.3424 113.12C45.3426 113.12 45.3429 113.12 45.3432 113.12C45.3435 113.12 45.3438 113.12 45.344 113.12C45.3443 113.12 45.3446 113.12 45.3449 113.12C45.3452 113.12 45.3454 113.12 45.3457 113.12C45.346 113.12 45.3463 113.12 45.3466 113.12C45.3468 113.12 45.3471 113.12 45.3474 113.12C45.3477 113.12 45.348 113.12 45.3483 113.12C45.3485 113.12 45.3488 113.12 45.3491 113.12C45.3494 113.12 45.3497 113.12 45.3499 113.12C45.3502 113.12 45.3505 113.12 45.3508 113.12C45.3511 113.12 45.3514 113.12 45.3516 113.12C45.3519 113.12 45.3522 113.12 45.3525 113.12C45.3528 113.12 45.353 113.12 45.3533 113.12C45.3536 113.12 45.3539 113.12 45.3542 113.12C45.3545 113.12 45.3547 113.12 45.355 113.12C45.3553 113.12 45.3556 113.12 45.3559 113.12C45.3562 113.12 45.3565 113.12 45.3567 113.12C45.357 113.12 45.3573 113.12 45.3576 113.12C45.3579 113.12 45.3582 113.12 45.3584 113.12C45.3587 113.12 45.359 113.12 45.3593 113.12C45.3596 113.12 45.3599 113.12 45.3602 113.12C45.3604 113.12 45.3607 113.12 45.361 113.12C45.3613 113.12 45.3616 113.12 45.3619 113.12C45.3622 113.12 45.3624 113.12 45.3627 113.12C45.363 113.12 45.3633 113.12 45.3636 113.12C45.3639 113.12 45.3642 113.12 45.3645 113.12C45.3647 113.12 45.365 113.12 45.3653 113.12C45.3656 113.12 45.3659 113.12 45.3662 113.12C45.3665 113.12 45.3668 113.12 45.367 113.12C45.3673 113.12 45.3676 113.12 45.3679 113.12C45.3682 113.12 45.3685 113.12 45.3688 113.12C45.3691 113.12 45.3694 113.12 45.3696 113.12C45.3699 113.12 45.3702 113.12 45.3705 113.12C45.3708 113.12 45.3711 113.12 45.3714 113.12C45.3717 113.12 45.372 113.12 45.3723 113.12C45.3725 113.12 45.3728 113.12 45.3731 113.12C45.3734 113.12 45.3737 113.12 45.374 113.12C45.3743 113.12 45.3746 113.12 45.3749 113.12C45.3752 113.12 45.3755 113.12 45.3758 113.12C45.376 113.12 45.3763 113.12 45.3766 113.12C45.3769 113.12 45.3772 113.12 45.3775 113.12C45.3778 113.12 45.3781 113.12 45.3784 113.12C45.3787 113.12 45.379 113.12 45.3793 113.12C45.3796 113.12 45.3798 113.12 45.3801 113.12C45.3804 113.12 45.3807 113.12 45.381 113.12C45.3813 113.12 45.3816 113.12 45.3819 113.12C45.3822 113.12 45.3825 113.12 45.3828 113.12C45.3831 113.12 45.3834 113.12 45.3837 113.12C45.384 113.12 45.3843 113.12 45.3845 113.12C45.3848 113.12 45.3851 113.12 45.3854 113.12C45.3857 113.12 45.386 113.12 45.3863 113.12C45.3866 113.12 45.3869 113.12 45.3872 113.12C45.3875 113.12 45.3878 113.12 45.3881 113.12C45.3884 113.12 45.3887 113.12 45.389 113.12C45.3893 113.12 45.3896 113.12 45.3899 113.12C45.3902 113.12 45.3905 113.12 45.3908 113.12C45.3911 113.12 45.3914 113.12 45.3917 113.12C45.392 113.12 45.3923 113.12 45.3926 113.12C45.3928 113.12 45.3931 113.12 45.3934 113.12C45.3937 113.12 45.394 113.12 45.3943 113.12C45.3946 113.12 45.3949 113.12 45.3952 113.12C45.3955 113.12 45.3958 113.12 45.3961 113.12C45.3964 113.12 45.3967 113.12 45.397 113.12C45.3973 113.12 45.3976 113.12 45.3979 113.12C45.3982 113.12 45.3985 113.12 45.3988 113.12C45.3991 113.12 45.3994 113.12 45.3997 113.12C45.4 113.12 45.4003 113.12 45.4006 113.12C45.4009 113.12 45.4012 113.12 45.4015 113.12C45.4018 113.12 45.4021 113.12 45.4024 113.12C45.4027 113.12 45.403 113.12 45.4033 113.12C45.4036 113.12 45.4039 113.12 45.4043 113.12C45.4046 113.12 45.4049 113.12 45.4052 113.12C45.4055 113.12 45.4058 113.12 45.4061 113.12C45.4064 113.12 45.4067 113.12 45.407 113.12C45.4073 113.12 45.4076 113.12 45.4079 113.12C45.4082 113.12 45.4085 113.12 45.4088 113.12C45.4091 113.12 45.4094 113.12 45.4097 113.12C45.41 113.12 45.4103 113.12 45.4106 113.12C45.4109 113.12 45.4112 113.12 45.4115 113.12C45.4118 113.12 45.4121 113.12 45.4124 113.12C45.4128 113.12 45.4131 113.12 45.4134 113.12C45.4137 113.12 45.414 113.12 45.4143 113.12C45.4146 113.12 45.4149 113.12 45.4152 113.12C45.4155 113.12 45.4158 113.12 45.4161 113.12C45.4164 113.12 45.4167 113.12 45.417 113.12C45.4173 113.12 45.4176 113.12 45.418 113.12C45.4183 113.12 45.4186 113.12 45.4189 113.12C45.4192 113.12 45.4195 113.12 45.4198 113.12C45.4201 113.12 45.4204 113.12 45.4207 113.12C45.421 113.12 45.4213 113.12 45.4216 113.12C45.422 113.12 45.4223 113.12 45.4226 113.12C45.4229 113.12 45.4232 113.12 45.4235 113.12C45.4238 113.12 45.4241 113.12 45.4244 113.12C45.4247 113.12 45.425 113.12 45.4254 113.12C45.4257 113.12 45.426 113.12 45.4263 113.12C45.4266 113.12 45.4269 113.12 45.4272 113.12C45.4275 113.12 45.4278 113.12 45.4281 113.12C45.4285 113.12 45.4288 113.12 45.4291 113.12C45.4294 113.12 45.4297 113.12 45.43 113.12C45.4303 113.12 45.4306 113.12 45.4309 113.12C45.4313 113.12 45.4316 113.12 45.4319 113.12C45.4322 113.12 45.4325 113.12 45.4328 113.12C45.4331 113.12 45.4334 113.12 45.4338 113.12C45.4341 113.12 45.4344 113.12 45.4347 113.12C45.435 113.12 45.4353 113.12 45.4356 113.12C45.4359 113.12 45.4363 113.12 45.4366 113.12C45.4369 113.12 45.4372 113.12 45.4375 113.12C45.4378 113.12 45.4381 113.12 45.4385 113.12C45.4388 113.12 45.4391 113.12 45.4394 113.12C45.4397 113.12 45.44 113.12 45.4403 113.12C45.4407 113.12 45.441 113.12 45.4413 113.12C45.4416 113.12 45.4419 113.12 45.4422 113.12C45.4425 113.12 45.4429 113.12 45.4432 113.12C45.4435 113.12 45.4438 113.12 45.4441 113.12C45.4444 113.12 45.4448 113.12 45.4451 113.12C45.4454 113.12 45.4457 113.12 45.446 113.12C45.4463 113.12 45.4467 113.12 45.447 113.12C45.4473 113.12 45.4476 113.12 45.4479 113.12C45.4482 113.12 45.4486 113.12 45.4489 113.12C45.4492 113.12 45.4495 113.12 45.4498 113.12C45.4501 113.12 45.4505 113.12 45.4508 113.12C45.4511 113.12 45.4514 113.12 45.4517 113.12C45.4521 113.12 45.4524 113.12 45.4527 113.12C45.453 113.12 45.4533 113.12 45.4537 113.12C45.454 113.12 45.4543 113.12 45.4546 113.12C45.4549 113.12 45.4553 113.12 45.4556 113.12C45.4559 113.12 45.4562 113.12 45.4565 113.12C45.4569 113.12 45.4572 113.12 45.4575 113.12C45.4578 113.12 45.4581 113.12 45.4585 113.12C45.4588 113.12 45.4591 113.12 45.4594 113.12C45.4597 113.12 45.4601 113.12 45.4604 113.12C45.4607 113.12 45.461 113.12 45.4613 113.12C45.4617 113.12 45.462 113.12 45.4623 113.12C45.4626 113.12 45.463 113.12 45.4633 113.12C45.4636 113.12 45.4639 113.12 45.4643 113.12C45.4646 113.12 45.4649 113.12 45.4652 113.12C45.4655 113.12 45.4659 113.12 45.4662 113.12C45.4665 113.12 45.4668 113.12 45.4672 113.12C45.4675 113.12 45.4678 113.12 45.4681 113.12C45.4685 113.12 45.4688 113.12 45.4691 113.12C45.4694 113.12 45.4698 113.12 45.4701 113.12C45.4704 113.12 45.4707 113.12 45.4711 113.12C45.4714 113.12 45.4717 113.12 45.472 113.12C45.4724 113.12 45.4727 113.12 45.473 113.12C45.4733 113.12 45.4737 113.12 45.474 113.12C45.4743 113.12 45.4746 113.12 45.475 113.12C45.4753 113.12 45.4756 113.12 45.4759 113.12C45.4763 113.12 45.4766 113.12 45.4769 113.12C45.4773 113.12 45.4776 113.12 45.4779 113.12C45.4782 113.12 45.4786 113.12 45.4789 113.12C45.4792 113.12 45.4795 113.12 45.4799 113.12C45.4802 113.12 45.4805 113.12 45.4809 113.12C45.4812 113.12 45.4815 113.12 45.4818 113.12C45.4822 113.12 45.4825 113.12 45.4828 113.12C45.4832 113.12 45.4835 113.12 45.4838 113.12C45.4842 113.12 45.4845 113.12 45.4848 113.12C45.4851 113.12 45.4855 113.12 45.4858 113.12C45.4861 113.12 45.4865 113.12 45.4868 113.12C45.4871 113.12 45.4875 113.12 45.4878 113.12C45.4881 113.12 45.4884 113.12 45.4888 113.12C45.4891 113.12 45.4894 113.12 45.4898 113.12C45.4901 113.12 45.4904 113.12 45.4908 113.12C45.4911 113.12 45.4914 113.12 45.4918 113.12C45.4921 113.12 45.4924 113.12 45.4928 113.12C45.4931 113.12 45.4934 113.12 45.4938 113.12C45.4941 113.12 45.4944 113.12 45.4948 113.12C45.4951 113.12 45.4954 113.12 45.4958 113.12C45.4961 113.12 45.4964 113.12 45.4968 113.12C45.4971 113.12 45.4974 113.12 45.4978 113.12C45.4981 113.12 45.4984 113.12 45.4988 113.12C45.4991 113.12 45.4994 113.12 45.4998 113.12C45.5001 113.12 45.5004 113.12 45.5008 113.12C45.5011 113.12 45.5014 113.12 45.5018 113.12C45.5021 113.12 45.5024 113.12 45.5028 113.12C45.5031 113.12 45.5034 113.12 45.5038 113.12C45.5041 113.12 45.5045 113.12 45.5048 113.12C45.5051 113.12 45.5055 113.12 45.5058 113.12C45.5061 113.12 45.5065 113.12 45.5068 113.12C45.5071 113.12 45.5075 113.12 45.5078 113.12C45.5082 113.12 45.5085 113.12 45.5088 113.12C45.5092 113.12 45.5095 113.12 45.5098 113.12C45.5102 113.12 45.5105 113.12 45.5109 113.12C45.5112 113.12 45.5115 113.12 45.5119 113.12C45.5122 113.12 45.5126 113.12 45.5129 113.12C45.5132 113.12 45.5136 113.12 45.5139 113.12C45.5142 113.12 45.5146 113.12 45.5149 113.12C45.5153 113.12 45.5156 113.12 45.5159 113.12C45.5163 113.12 45.5166 113.12 45.517 113.12C45.5173 113.12 45.5176 113.12 45.518 113.12C45.5183 113.12 45.5187 113.12 45.519 113.12C45.5193 113.12 45.5197 113.12 45.52 113.12C45.5204 113.12 45.5207 113.12 45.5211 113.12C45.5214 113.12 45.5217 113.12 45.5221 113.12C45.5224 113.12 45.5228 113.12 45.5231 113.12C45.5234 113.12 45.5238 113.12 45.5241 113.12C45.5245 113.12 45.5248 113.12 45.5252 113.12C45.5255 113.12 45.5258 113.12 45.5262 113.12C45.5265 113.12 45.5269 113.12 45.5272 113.12C45.5276 113.12 45.5279 113.12 45.5283 113.12C45.5286 113.12 45.5289 113.12 45.5293 113.12C45.5296 113.12 45.53 113.12 45.5303 113.12C45.5307 113.12 45.531 113.12 45.5313 113.12C45.5317 113.12 45.532 113.12 45.5324 113.12C45.5327 113.12 45.5331 113.12 45.5334 113.12C45.5338 113.12 45.5341 113.12 45.5345 113.12C45.5348 113.12 45.5351 113.12 45.5355 113.12C45.5358 113.12 45.5362 113.12 45.5365 113.12C45.5369 113.12 45.5372 113.12 45.5376 113.12C45.5379 113.12 45.5383 113.12 45.5386 113.12C45.539 113.12 45.5393 113.12 45.5397 113.12C45.54 113.12 45.5403 113.12 45.5407 113.12C45.541 113.12 45.5414 113.12 45.5417 113.12C45.5421 113.12 45.5424 113.12 45.5428 113.12C45.5431 113.12 45.5435 113.12 45.5438 113.12C45.5442 113.12 45.5445 113.12 45.5449 113.12C45.5452 113.12 45.5456 113.12 45.5459 113.12C45.5463 113.12 45.5466 113.12 45.547 113.12C45.5473 113.12 45.5477 113.12 45.548 113.12C45.5484 113.12 45.5487 113.12 45.5491 113.12C45.5494 113.12 45.5498 113.12 45.5501 113.12C45.5505 113.12 45.5508 113.12 45.5512 113.12C45.5515 113.12 45.5519 113.12 45.5522 113.12C45.5526 113.12 45.5529 113.12 45.5533 113.12C45.5536 113.12 45.554 113.12 45.5543 113.12C45.5547 113.12 45.555 113.12 45.5554 113.12C45.5557 113.12 45.5561 113.12 45.5565 113.12C45.5568 113.12 45.5572 113.12 45.5575 113.12C45.5579 113.12 45.5582 113.12 45.5586 113.12C45.5589 113.12 45.5593 113.12 45.5596 113.12C45.56 113.12 45.5603 113.12 45.5607 113.12C45.561 113.12 45.5614 113.12 45.5618 113.12C45.5621 113.12 45.5625 113.12 45.5628 113.12C45.5632 113.12 45.5635 113.12 45.5639 113.12C45.5642 113.12 45.5646 113.12 45.5649 113.12C45.5653 113.12 45.5657 113.12 45.566 113.12C45.5664 113.12 45.5667 113.12 45.5671 113.12C45.5674 113.12 45.5678 113.12 45.5681 113.12C45.5685 113.12 45.5689 113.12 45.5692 113.12C45.5696 113.12 45.5699 113.12 45.5703 113.12C45.5706 113.12 45.571 113.12 45.5714 113.12C45.5717 113.12 45.5721 113.12 45.5724 113.12C45.5728 113.12 45.5731 113.12 45.5735 113.12C45.5739 113.12 45.5742 113.12 45.5746 113.12C45.5749 113.12 45.5753 113.12 45.5756 113.12C45.576 113.12 45.5764 113.12 45.5767 113.12C45.5771 113.12 45.5774 113.12 45.5778 113.12C45.5782 113.12 45.5785 113.12 45.5789 113.12C45.5792 113.12 45.5796 113.12 45.58 113.12C45.5803 113.12 45.5807 113.12 45.581 113.12C45.5814 113.12 45.5818 113.12 45.5821 113.12C45.5825 113.12 45.5828 113.12 45.5832 113.12C45.5836 113.12 45.5839 113.12 45.5843 113.12C45.5846 113.12 45.585 113.12 45.5854 113.12C45.5857 113.12 45.5861 113.12 45.5864 113.12C45.5868 113.12 45.5872 113.12 45.5875 113.12C45.5879 113.12 45.5883 113.12 45.5886 113.12C45.589 113.12 45.5893 113.12 45.5897 113.12C45.5901 113.12 45.5904 113.12 45.5908 113.12C45.5912 113.12 45.5915 113.12 45.5919 113.12C45.5922 113.12 45.5926 113.12 45.593 113.12C45.5933 113.12 45.5937 113.12 45.5941 113.12C45.5944 113.12 45.5948 113.12 45.5952 113.12C45.5955 113.12 45.5959 113.12 45.5963 113.12C45.5966 113.12 45.597 113.12 45.5973 113.12C45.5977 113.12 45.5981 113.12 45.5984 113.12C45.5988 113.12 45.5992 113.12 45.5995 113.12C45.5999 113.12 45.6003 113.12 45.6006 113.12C45.601 113.12 45.6014 113.12 45.6017 113.12C45.6021 113.12 45.6025 113.12 45.6028 113.12C45.6032 113.12 45.6036 113.12 45.6039 113.12C45.6043 113.12 45.6047 113.12 45.605 113.12C45.6054 113.12 45.6058 113.12 45.6061 113.12C45.6065 113.12 45.6069 113.12 45.6072 113.12C45.6076 113.12 45.608 113.12 45.6083 113.12C45.6087 113.12 45.6091 113.12 45.6094 113.12C45.6098 113.12 45.6102 113.12 45.6106 113.12C45.6109 113.12 45.6113 113.12 45.6117 113.12C45.612 113.12 45.6124 113.12 45.6128 113.12C45.6131 113.12 45.6135 113.12 45.6139 113.12C45.6142 113.12 45.6146 113.12 45.615 113.12C45.6154 113.12 45.6157 113.12 45.6161 113.12C45.6165 113.12 45.6168 113.12 45.6172 113.12C45.6176 113.12 45.6179 113.12 45.6183 113.12C45.6187 113.12 45.6191 113.12 45.6194 113.12C45.6198 113.12 45.6202 113.12 45.6205 113.12C45.6209 113.12 45.6213 113.12 45.6217 113.12C45.622 113.12 45.6224 113.12 45.6228 113.12C45.6232 113.12 45.6235 113.12 45.6239 113.12C45.6243 113.12 45.6246 113.12 45.625 113.12C45.6254 113.12 45.6258 113.12 45.6261 113.12C45.6265 113.12 45.6269 113.12 45.6273 113.12C45.6276 113.12 45.628 113.12 45.6284 113.12C45.6288 113.12 45.6291 113.12 45.6295 113.12C45.6299 113.12 45.6303 113.12 45.6306 113.12C45.631 113.12 45.6314 113.12 45.6318 113.12C45.6321 113.12 45.6325 113.12 45.6329 113.12C45.6333 113.12 45.6336 113.12 45.634 113.12C45.6344 113.12 45.6348 113.12 45.6351 113.12C45.6355 113.12 45.6359 113.12 45.6363 113.12C45.6366 113.12 45.637 113.12 45.6374 113.12C45.6378 113.12 45.6381 113.12 45.6385 113.12C45.6389 113.12 45.6393 113.12 45.6396 113.12C45.64 113.12 45.6404 113.12 45.6408 113.12C45.6412 113.12 45.6415 113.12 45.6419 113.12C45.6423 113.12 45.6427 113.12 45.643 113.12C45.6434 113.12 45.6438 113.12 45.6442 113.12C45.6446 113.12 45.6449 113.12 45.6453 113.12C45.6457 113.12 45.6461 113.12 45.6465 113.12C45.6468 113.12 45.6472 113.12 45.6476 113.12C45.648 113.12 45.6484 113.12 45.6487 113.12C45.6491 113.12 45.6495 113.12 45.6499 113.12C45.6503 113.12 45.6506 113.12 45.651 113.12C45.6514 113.12 45.6518 113.12 45.6522 113.12C45.6525 113.12 45.6529 113.12 45.6533 113.12C45.6537 113.12 45.6541 113.12 45.6544 113.12C45.6548 113.12 45.6552 113.12 45.6556 113.12C45.656 113.12 45.6564 113.12 45.6567 113.12C45.6571 113.12 45.6575 113.12 45.6579 113.12C45.6583 113.12 45.6586 113.12 45.659 113.12C45.6594 113.12 45.6598 113.12 45.6602 113.12C45.6606 113.12 45.6609 113.12 45.6613 113.12C45.6617 113.12 45.6621 113.12 45.6625 113.12C45.6629 113.12 45.6632 113.12 45.6636 113.12C45.664 113.12 45.6644 113.12 45.6648 113.12C45.6652 113.12 45.6656 113.12 45.6659 113.12C45.6663 113.12 45.6667 113.12 45.6671 113.12C45.6675 113.12 45.6679 113.12 45.6683 113.12C45.6686 113.12 45.669 113.12 45.6694 113.12C45.6698 113.12 45.6702 113.12 45.6706 113.12C45.671 113.12 45.6713 113.12 45.6717 113.12C45.6721 113.12 45.6725 113.12 45.6729 113.12C45.6733 113.12 45.6737 113.12 45.674 113.12C45.6744 113.12 45.6748 113.12 45.6752 113.12C45.6756 113.12 45.676 113.12 45.6764 113.12C45.6768 113.12 45.6771 113.12 45.6775 113.12C45.6779 113.12 45.6783 113.12 45.6787 113.12C45.6791 113.12 45.6795 113.12 45.6799 113.12C45.6803 113.12 45.6806 113.12 45.681 113.12C45.6814 113.12 45.6818 113.12 45.6822 113.12C45.6826 113.12 45.683 113.12 45.6834 113.12C45.6838 113.12 45.6841 113.12 45.6845 113.12C45.6849 113.12 45.6853 113.12 45.6857 113.12C45.6861 113.12 45.6865 113.12 45.6869 113.12C45.6873 113.12 45.6877 113.12 45.688 113.12C45.6884 113.12 45.6888 113.12 45.6892 113.12C45.6896 113.12 45.69 113.12 45.6904 113.12C45.6908 113.12 45.6912 113.12 45.6916 113.12C45.692 113.12 45.6924 113.12 45.6927 113.12C45.6931 113.12 45.6935 113.12 45.6939 113.12C45.6943 113.12 45.6947 113.12 45.6951 113.12C45.6955 113.12 45.6959 113.12 45.6963 113.12C45.6967 113.12 45.6971 113.12 45.6975 113.12C45.6979 113.12 45.6982 113.12 45.6986 113.12C45.699 113.12 45.6994 113.12 45.6998 113.12C45.7002 113.12 45.7006 113.12 45.701 113.12C45.7014 113.12 45.7018 113.12 45.7022 113.12C45.7026 113.12 45.703 113.12 45.7034 113.12C45.7038 113.12 45.7042 113.12 45.7046 113.12C45.705 113.12 45.7054 113.12 45.7058 113.12C45.7061 113.12 45.7065 113.12 45.7069 113.12C45.7073 113.12 45.7077 113.12 45.7081 113.12C45.7085 113.12 45.7089 113.12 45.7093 113.12C45.7097 113.12 45.7101 113.12 45.7105 113.12C45.7109 113.12 45.7113 113.12 45.7117 113.12C45.7121 113.12 45.7125 113.12 45.7129 113.12C45.7133 113.12 45.7137 113.12 45.7141 113.12C45.7145 113.12 45.7149 113.12 45.7153 113.12C45.7157 113.12 45.7161 113.12 45.7165 113.12C45.7169 113.12 45.7173 113.12 45.7177 113.12C45.7181 113.12 45.7185 113.12 45.7189 113.12C45.7193 113.12 45.7197 113.12 45.7201 113.12C45.7205 113.12 45.7209 113.12 45.7213 113.12C45.7217 113.12 45.7221 113.12 45.7225 113.12C45.7229 113.12 45.7233 113.12 45.7237 113.12C45.7241 113.12 45.7245 113.12 45.7249 113.12C45.7253 113.12 45.7257 113.12 45.7261 113.12C45.7265 113.12 45.7269 113.12 45.7273 113.12C45.7277 113.12 45.7281 113.12 45.7285 113.12C45.7289 113.12 45.7293 113.12 45.7297 113.12C45.7301 113.12 45.7305 113.12 45.7309 113.12C45.7313 113.12 45.7317 113.12 45.7321 113.12C45.7325 113.12 45.7329 113.12 45.7333 113.12C45.7337 113.12 45.7341 113.12 45.7345 113.12C45.7349 113.12 45.7353 113.12 45.7357 113.12C45.7361 113.12 45.7366 113.12 45.737 113.12C45.7374 113.12 45.7378 113.12 45.7382 113.12C45.7386 113.12 45.739 113.12 45.7394 113.12C45.7398 113.12 45.7402 113.12 45.7406 113.12C45.741 113.12 45.7414 113.12 45.7418 113.12C45.7422 113.12 45.7426 113.12 45.743 113.12C45.7434 113.12 45.7438 113.12 45.7443 113.12C45.7447 113.12 45.7451 113.12 45.7455 113.12C45.7459 113.12 45.7463 113.12 45.7467 113.12C45.7471 113.12 45.7475 113.12 45.7479 113.12C45.7483 113.12 45.7487 113.12 45.7491 113.12C45.7495 113.12 45.7499 113.12 45.7504 113.12C45.7508 113.12 45.7512 113.12 45.7516 113.12C45.752 113.12 45.7524 113.12 45.7528 113.12C45.7532 113.12 45.7536 113.12 45.754 113.12C45.7544 113.12 45.7548 113.12 45.7553 113.12C45.7557 113.12 45.7561 113.12 45.7565 113.12C45.7569 113.12 45.7573 113.12 45.7577 113.12C45.7581 113.12 45.7585 113.12 45.7589 113.12C45.7594 113.12 45.7598 113.12 45.7602 113.12C45.7606 113.12 45.761 113.12 45.7614 113.12C45.7618 113.12 45.7622 113.12 45.7626 113.12C45.7631 113.12 45.7635 113.12 45.7639 113.12C45.7643 113.12 45.7647 113.12 45.7651 113.12C45.7655 113.12 45.7659 113.12 45.7663 113.12C45.7668 113.12 45.7672 113.12 45.7676 113.12C45.768 113.12 45.7684 113.12 45.7688 113.12C45.7692 113.12 45.7696 113.12 45.7701 113.12C45.7705 113.12 45.7709 113.12 45.7713 113.12C45.7717 113.12 45.7721 113.12 45.7725 113.12C45.773 113.12 45.7734 113.12 45.7738 113.12C45.7742 113.12 45.7746 113.12 45.775 113.12C45.7754 113.12 45.7759 113.12 45.7763 113.12C45.7767 113.12 45.7771 113.12 45.7775 113.12C45.7779 113.12 45.7783 113.12 45.7788 113.12C45.7792 113.12 45.7796 113.12 45.78 113.12C45.7804 113.12 45.7808 113.12 45.7813 113.12C45.7817 113.12 45.7821 113.12 45.7825 113.12C45.7829 113.12 45.7833 113.12 45.7838 113.12V109.12C45.7833 109.12 45.7829 109.12 45.7825 109.12C45.7821 109.12 45.7817 109.12 45.7813 109.12C45.7808 109.12 45.7804 109.12 45.78 109.12C45.7796 109.12 45.7792 109.12 45.7788 109.12C45.7783 109.12 45.7779 109.12 45.7775 109.12C45.7771 109.12 45.7767 109.12 45.7763 109.12C45.7759 109.12 45.7754 109.12 45.775 109.12C45.7746 109.12 45.7742 109.12 45.7738 109.12C45.7734 109.12 45.773 109.12 45.7725 109.12C45.7721 109.12 45.7717 109.12 45.7713 109.12C45.7709 109.12 45.7705 109.12 45.7701 109.12C45.7696 109.12 45.7692 109.12 45.7688 109.12C45.7684 109.12 45.768 109.12 45.7676 109.12C45.7672 109.12 45.7668 109.12 45.7663 109.12C45.7659 109.12 45.7655 109.12 45.7651 109.12C45.7647 109.12 45.7643 109.12 45.7639 109.12C45.7635 109.12 45.7631 109.12 45.7626 109.12C45.7622 109.12 45.7618 109.12 45.7614 109.12C45.761 109.12 45.7606 109.12 45.7602 109.12C45.7598 109.12 45.7594 109.12 45.7589 109.12C45.7585 109.12 45.7581 109.12 45.7577 109.12C45.7573 109.12 45.7569 109.12 45.7565 109.12C45.7561 109.12 45.7557 109.12 45.7553 109.12C45.7548 109.12 45.7544 109.12 45.754 109.12C45.7536 109.12 45.7532 109.12 45.7528 109.12C45.7524 109.12 45.752 109.12 45.7516 109.12C45.7512 109.12 45.7508 109.12 45.7504 109.12C45.7499 109.12 45.7495 109.12 45.7491 109.12C45.7487 109.12 45.7483 109.12 45.7479 109.12C45.7475 109.12 45.7471 109.12 45.7467 109.12C45.7463 109.12 45.7459 109.12 45.7455 109.12C45.7451 109.12 45.7447 109.12 45.7443 109.12C45.7438 109.12 45.7434 109.12 45.743 109.12C45.7426 109.12 45.7422 109.12 45.7418 109.12C45.7414 109.12 45.741 109.12 45.7406 109.12C45.7402 109.12 45.7398 109.12 45.7394 109.12C45.739 109.12 45.7386 109.12 45.7382 109.12C45.7378 109.12 45.7374 109.12 45.737 109.12C45.7366 109.12 45.7361 109.12 45.7357 109.12C45.7353 109.12 45.7349 109.12 45.7345 109.12C45.7341 109.12 45.7337 109.12 45.7333 109.12C45.7329 109.12 45.7325 109.12 45.7321 109.12C45.7317 109.12 45.7313 109.12 45.7309 109.12C45.7305 109.12 45.7301 109.12 45.7297 109.12C45.7293 109.12 45.7289 109.12 45.7285 109.12C45.7281 109.12 45.7277 109.12 45.7273 109.12C45.7269 109.12 45.7265 109.12 45.7261 109.12C45.7257 109.12 45.7253 109.12 45.7249 109.12C45.7245 109.12 45.7241 109.12 45.7237 109.12C45.7233 109.12 45.7229 109.12 45.7225 109.12C45.7221 109.12 45.7217 109.12 45.7213 109.12C45.7209 109.12 45.7205 109.12 45.7201 109.12C45.7197 109.12 45.7193 109.12 45.7189 109.12C45.7185 109.12 45.7181 109.12 45.7177 109.12C45.7173 109.12 45.7169 109.12 45.7165 109.12C45.7161 109.12 45.7157 109.12 45.7153 109.12C45.7149 109.12 45.7145 109.12 45.7141 109.12C45.7137 109.12 45.7133 109.12 45.7129 109.12C45.7125 109.12 45.7121 109.12 45.7117 109.12C45.7113 109.12 45.7109 109.12 45.7105 109.12C45.7101 109.12 45.7097 109.12 45.7093 109.12C45.7089 109.12 45.7085 109.12 45.7081 109.12C45.7077 109.12 45.7073 109.12 45.7069 109.12C45.7065 109.12 45.7061 109.12 45.7058 109.12C45.7054 109.12 45.705 109.12 45.7046 109.12C45.7042 109.12 45.7038 109.12 45.7034 109.12C45.703 109.12 45.7026 109.12 45.7022 109.12C45.7018 109.12 45.7014 109.12 45.701 109.12C45.7006 109.12 45.7002 109.12 45.6998 109.12C45.6994 109.12 45.699 109.12 45.6986 109.12C45.6982 109.12 45.6979 109.12 45.6975 109.12C45.6971 109.12 45.6967 109.12 45.6963 109.12C45.6959 109.12 45.6955 109.12 45.6951 109.12C45.6947 109.12 45.6943 109.12 45.6939 109.12C45.6935 109.12 45.6931 109.12 45.6927 109.12C45.6924 109.12 45.692 109.12 45.6916 109.12C45.6912 109.12 45.6908 109.12 45.6904 109.12C45.69 109.12 45.6896 109.12 45.6892 109.12C45.6888 109.12 45.6884 109.12 45.688 109.12C45.6877 109.12 45.6873 109.12 45.6869 109.12C45.6865 109.12 45.6861 109.12 45.6857 109.12C45.6853 109.12 45.6849 109.12 45.6845 109.12C45.6841 109.12 45.6838 109.12 45.6834 109.12C45.683 109.12 45.6826 109.12 45.6822 109.12C45.6818 109.12 45.6814 109.12 45.681 109.12C45.6806 109.12 45.6803 109.12 45.6799 109.12C45.6795 109.12 45.6791 109.12 45.6787 109.12C45.6783 109.12 45.6779 109.12 45.6775 109.12C45.6771 109.12 45.6768 109.12 45.6764 109.12C45.676 109.12 45.6756 109.12 45.6752 109.12C45.6748 109.12 45.6744 109.12 45.674 109.12C45.6737 109.12 45.6733 109.12 45.6729 109.12C45.6725 109.12 45.6721 109.12 45.6717 109.12C45.6713 109.12 45.671 109.12 45.6706 109.12C45.6702 109.12 45.6698 109.12 45.6694 109.12C45.669 109.12 45.6686 109.12 45.6683 109.12C45.6679 109.12 45.6675 109.12 45.6671 109.12C45.6667 109.12 45.6663 109.12 45.6659 109.12C45.6656 109.12 45.6652 109.12 45.6648 109.12C45.6644 109.12 45.664 109.12 45.6636 109.12C45.6632 109.12 45.6629 109.12 45.6625 109.12C45.6621 109.12 45.6617 109.12 45.6613 109.12C45.6609 109.12 45.6606 109.12 45.6602 109.12C45.6598 109.12 45.6594 109.12 45.659 109.12C45.6586 109.12 45.6583 109.12 45.6579 109.12C45.6575 109.12 45.6571 109.12 45.6567 109.12C45.6564 109.12 45.656 109.12 45.6556 109.12C45.6552 109.12 45.6548 109.12 45.6544 109.12C45.6541 109.12 45.6537 109.12 45.6533 109.12C45.6529 109.12 45.6525 109.12 45.6522 109.12C45.6518 109.12 45.6514 109.12 45.651 109.12C45.6506 109.12 45.6503 109.12 45.6499 109.12C45.6495 109.12 45.6491 109.12 45.6487 109.12C45.6484 109.12 45.648 109.12 45.6476 109.12C45.6472 109.12 45.6468 109.12 45.6465 109.12C45.6461 109.12 45.6457 109.12 45.6453 109.12C45.6449 109.12 45.6446 109.12 45.6442 109.12C45.6438 109.12 45.6434 109.12 45.643 109.12C45.6427 109.12 45.6423 109.12 45.6419 109.12C45.6415 109.12 45.6412 109.12 45.6408 109.12C45.6404 109.12 45.64 109.12 45.6396 109.12C45.6393 109.12 45.6389 109.12 45.6385 109.12C45.6381 109.12 45.6378 109.12 45.6374 109.12C45.637 109.12 45.6366 109.12 45.6363 109.12C45.6359 109.12 45.6355 109.12 45.6351 109.12C45.6348 109.12 45.6344 109.12 45.634 109.12C45.6336 109.12 45.6333 109.12 45.6329 109.12C45.6325 109.12 45.6321 109.12 45.6318 109.12C45.6314 109.12 45.631 109.12 45.6306 109.12C45.6303 109.12 45.6299 109.12 45.6295 109.12C45.6291 109.12 45.6288 109.12 45.6284 109.12C45.628 109.12 45.6276 109.12 45.6273 109.12C45.6269 109.12 45.6265 109.12 45.6261 109.12C45.6258 109.12 45.6254 109.12 45.625 109.12C45.6246 109.12 45.6243 109.12 45.6239 109.12C45.6235 109.12 45.6232 109.12 45.6228 109.12C45.6224 109.12 45.622 109.12 45.6217 109.12C45.6213 109.12 45.6209 109.12 45.6205 109.12C45.6202 109.12 45.6198 109.12 45.6194 109.12C45.6191 109.12 45.6187 109.12 45.6183 109.12C45.6179 109.12 45.6176 109.12 45.6172 109.12C45.6168 109.12 45.6165 109.12 45.6161 109.12C45.6157 109.12 45.6154 109.12 45.615 109.12C45.6146 109.12 45.6142 109.12 45.6139 109.12C45.6135 109.12 45.6131 109.12 45.6128 109.12C45.6124 109.12 45.612 109.12 45.6117 109.12C45.6113 109.12 45.6109 109.12 45.6106 109.12C45.6102 109.12 45.6098 109.12 45.6094 109.12C45.6091 109.12 45.6087 109.12 45.6083 109.12C45.608 109.12 45.6076 109.12 45.6072 109.12C45.6069 109.12 45.6065 109.12 45.6061 109.12C45.6058 109.12 45.6054 109.12 45.605 109.12C45.6047 109.12 45.6043 109.12 45.6039 109.12C45.6036 109.12 45.6032 109.12 45.6028 109.12C45.6025 109.12 45.6021 109.12 45.6017 109.12C45.6014 109.12 45.601 109.12 45.6006 109.12C45.6003 109.12 45.5999 109.12 45.5995 109.12C45.5992 109.12 45.5988 109.12 45.5984 109.12C45.5981 109.12 45.5977 109.12 45.5973 109.12C45.597 109.12 45.5966 109.12 45.5963 109.12C45.5959 109.12 45.5955 109.12 45.5952 109.12C45.5948 109.12 45.5944 109.12 45.5941 109.12C45.5937 109.12 45.5933 109.12 45.593 109.12C45.5926 109.12 45.5922 109.12 45.5919 109.12C45.5915 109.12 45.5912 109.12 45.5908 109.12C45.5904 109.12 45.5901 109.12 45.5897 109.12C45.5893 109.12 45.589 109.12 45.5886 109.12C45.5883 109.12 45.5879 109.12 45.5875 109.12C45.5872 109.12 45.5868 109.12 45.5864 109.12C45.5861 109.12 45.5857 109.12 45.5854 109.12C45.585 109.12 45.5846 109.12 45.5843 109.12C45.5839 109.12 45.5836 109.12 45.5832 109.12C45.5828 109.12 45.5825 109.12 45.5821 109.12C45.5818 109.12 45.5814 109.12 45.581 109.12C45.5807 109.12 45.5803 109.12 45.58 109.12C45.5796 109.12 45.5792 109.12 45.5789 109.12C45.5785 109.12 45.5782 109.12 45.5778 109.12C45.5774 109.12 45.5771 109.12 45.5767 109.12C45.5764 109.12 45.576 109.12 45.5756 109.12C45.5753 109.12 45.5749 109.12 45.5746 109.12C45.5742 109.12 45.5739 109.12 45.5735 109.12C45.5731 109.12 45.5728 109.12 45.5724 109.12C45.5721 109.12 45.5717 109.12 45.5714 109.12C45.571 109.12 45.5706 109.12 45.5703 109.12C45.5699 109.12 45.5696 109.12 45.5692 109.12C45.5689 109.12 45.5685 109.12 45.5681 109.12C45.5678 109.12 45.5674 109.12 45.5671 109.12C45.5667 109.12 45.5664 109.12 45.566 109.12C45.5657 109.12 45.5653 109.12 45.5649 109.12C45.5646 109.12 45.5642 109.12 45.5639 109.12C45.5635 109.12 45.5632 109.12 45.5628 109.12C45.5625 109.12 45.5621 109.12 45.5618 109.12C45.5614 109.12 45.561 109.12 45.5607 109.12C45.5603 109.12 45.56 109.12 45.5596 109.12C45.5593 109.12 45.5589 109.12 45.5586 109.12C45.5582 109.12 45.5579 109.12 45.5575 109.12C45.5572 109.12 45.5568 109.12 45.5565 109.12C45.5561 109.12 45.5557 109.12 45.5554 109.12C45.555 109.12 45.5547 109.12 45.5543 109.12C45.554 109.12 45.5536 109.12 45.5533 109.12C45.5529 109.12 45.5526 109.12 45.5522 109.12C45.5519 109.12 45.5515 109.12 45.5512 109.12C45.5508 109.12 45.5505 109.12 45.5501 109.12C45.5498 109.12 45.5494 109.12 45.5491 109.12C45.5487 109.12 45.5484 109.12 45.548 109.12C45.5477 109.12 45.5473 109.12 45.547 109.12C45.5466 109.12 45.5463 109.12 45.5459 109.12C45.5456 109.12 45.5452 109.12 45.5449 109.12C45.5445 109.12 45.5442 109.12 45.5438 109.12C45.5435 109.12 45.5431 109.12 45.5428 109.12C45.5424 109.12 45.5421 109.12 45.5417 109.12C45.5414 109.12 45.541 109.12 45.5407 109.12C45.5403 109.12 45.54 109.12 45.5397 109.12C45.5393 109.12 45.539 109.12 45.5386 109.12C45.5383 109.12 45.5379 109.12 45.5376 109.12C45.5372 109.12 45.5369 109.12 45.5365 109.12C45.5362 109.12 45.5358 109.12 45.5355 109.12C45.5351 109.12 45.5348 109.12 45.5345 109.12C45.5341 109.12 45.5338 109.12 45.5334 109.12C45.5331 109.12 45.5327 109.12 45.5324 109.12C45.532 109.12 45.5317 109.12 45.5313 109.12C45.531 109.12 45.5307 109.12 45.5303 109.12C45.53 109.12 45.5296 109.12 45.5293 109.12C45.5289 109.12 45.5286 109.12 45.5283 109.12C45.5279 109.12 45.5276 109.12 45.5272 109.12C45.5269 109.12 45.5265 109.12 45.5262 109.12C45.5258 109.12 45.5255 109.12 45.5252 109.12C45.5248 109.12 45.5245 109.12 45.5241 109.12C45.5238 109.12 45.5234 109.12 45.5231 109.12C45.5228 109.12 45.5224 109.12 45.5221 109.12C45.5217 109.12 45.5214 109.12 45.5211 109.12C45.5207 109.12 45.5204 109.12 45.52 109.12C45.5197 109.12 45.5193 109.12 45.519 109.12C45.5187 109.12 45.5183 109.12 45.518 109.12C45.5176 109.12 45.5173 109.12 45.517 109.12C45.5166 109.12 45.5163 109.12 45.5159 109.12C45.5156 109.12 45.5153 109.12 45.5149 109.12C45.5146 109.12 45.5142 109.12 45.5139 109.12C45.5136 109.12 45.5132 109.12 45.5129 109.12C45.5126 109.12 45.5122 109.12 45.5119 109.12C45.5115 109.12 45.5112 109.12 45.5109 109.12C45.5105 109.12 45.5102 109.12 45.5098 109.12C45.5095 109.12 45.5092 109.12 45.5088 109.12C45.5085 109.12 45.5082 109.12 45.5078 109.12C45.5075 109.12 45.5071 109.12 45.5068 109.12C45.5065 109.12 45.5061 109.12 45.5058 109.12C45.5055 109.12 45.5051 109.12 45.5048 109.12C45.5045 109.12 45.5041 109.12 45.5038 109.12C45.5034 109.12 45.5031 109.12 45.5028 109.12C45.5024 109.12 45.5021 109.12 45.5018 109.12C45.5014 109.12 45.5011 109.12 45.5008 109.12C45.5004 109.12 45.5001 109.12 45.4998 109.12C45.4994 109.12 45.4991 109.12 45.4988 109.12C45.4984 109.12 45.4981 109.12 45.4978 109.12C45.4974 109.12 45.4971 109.12 45.4968 109.12C45.4964 109.12 45.4961 109.12 45.4958 109.12C45.4954 109.12 45.4951 109.12 45.4948 109.12C45.4944 109.12 45.4941 109.12 45.4938 109.12C45.4934 109.12 45.4931 109.12 45.4928 109.12C45.4924 109.12 45.4921 109.12 45.4918 109.12C45.4914 109.12 45.4911 109.12 45.4908 109.12C45.4904 109.12 45.4901 109.12 45.4898 109.12C45.4894 109.12 45.4891 109.12 45.4888 109.12C45.4884 109.12 45.4881 109.12 45.4878 109.12C45.4875 109.12 45.4871 109.12 45.4868 109.12C45.4865 109.12 45.4861 109.12 45.4858 109.12C45.4855 109.12 45.4851 109.12 45.4848 109.12C45.4845 109.12 45.4842 109.12 45.4838 109.12C45.4835 109.12 45.4832 109.12 45.4828 109.12C45.4825 109.12 45.4822 109.12 45.4818 109.12C45.4815 109.12 45.4812 109.12 45.4809 109.12C45.4805 109.12 45.4802 109.12 45.4799 109.12C45.4795 109.12 45.4792 109.12 45.4789 109.12C45.4786 109.12 45.4782 109.12 45.4779 109.12C45.4776 109.12 45.4773 109.12 45.4769 109.12C45.4766 109.12 45.4763 109.12 45.4759 109.12C45.4756 109.12 45.4753 109.12 45.475 109.12C45.4746 109.12 45.4743 109.12 45.474 109.12C45.4737 109.12 45.4733 109.12 45.473 109.12C45.4727 109.12 45.4724 109.12 45.472 109.12C45.4717 109.12 45.4714 109.12 45.4711 109.12C45.4707 109.12 45.4704 109.12 45.4701 109.12C45.4698 109.12 45.4694 109.12 45.4691 109.12C45.4688 109.12 45.4685 109.12 45.4681 109.12C45.4678 109.12 45.4675 109.12 45.4672 109.12C45.4668 109.12 45.4665 109.12 45.4662 109.12C45.4659 109.12 45.4655 109.12 45.4652 109.12C45.4649 109.12 45.4646 109.12 45.4643 109.12C45.4639 109.12 45.4636 109.12 45.4633 109.12C45.463 109.12 45.4626 109.12 45.4623 109.12C45.462 109.12 45.4617 109.12 45.4613 109.12C45.461 109.12 45.4607 109.12 45.4604 109.12C45.4601 109.12 45.4597 109.12 45.4594 109.12C45.4591 109.12 45.4588 109.12 45.4585 109.12C45.4581 109.12 45.4578 109.12 45.4575 109.12C45.4572 109.12 45.4569 109.12 45.4565 109.12C45.4562 109.12 45.4559 109.12 45.4556 109.12C45.4553 109.12 45.4549 109.12 45.4546 109.12C45.4543 109.12 45.454 109.12 45.4537 109.12C45.4533 109.12 45.453 109.12 45.4527 109.12C45.4524 109.12 45.4521 109.12 45.4517 109.12C45.4514 109.12 45.4511 109.12 45.4508 109.12C45.4505 109.12 45.4501 109.12 45.4498 109.12C45.4495 109.12 45.4492 109.12 45.4489 109.12C45.4486 109.12 45.4482 109.12 45.4479 109.12C45.4476 109.12 45.4473 109.12 45.447 109.12C45.4467 109.12 45.4463 109.12 45.446 109.12C45.4457 109.12 45.4454 109.12 45.4451 109.12C45.4448 109.12 45.4444 109.12 45.4441 109.12C45.4438 109.12 45.4435 109.12 45.4432 109.12C45.4429 109.12 45.4425 109.12 45.4422 109.12C45.4419 109.12 45.4416 109.12 45.4413 109.12C45.441 109.12 45.4407 109.12 45.4403 109.12C45.44 109.12 45.4397 109.12 45.4394 109.12C45.4391 109.12 45.4388 109.12 45.4385 109.12C45.4381 109.12 45.4378 109.12 45.4375 109.12C45.4372 109.12 45.4369 109.12 45.4366 109.12C45.4363 109.12 45.4359 109.12 45.4356 109.12C45.4353 109.12 45.435 109.12 45.4347 109.12C45.4344 109.12 45.4341 109.12 45.4338 109.12C45.4334 109.12 45.4331 109.12 45.4328 109.12C45.4325 109.12 45.4322 109.12 45.4319 109.12C45.4316 109.12 45.4313 109.12 45.4309 109.12C45.4306 109.12 45.4303 109.12 45.43 109.12C45.4297 109.12 45.4294 109.12 45.4291 109.12C45.4288 109.12 45.4285 109.12 45.4281 109.12C45.4278 109.12 45.4275 109.12 45.4272 109.12C45.4269 109.12 45.4266 109.12 45.4263 109.12C45.426 109.12 45.4257 109.12 45.4254 109.12C45.425 109.12 45.4247 109.12 45.4244 109.12C45.4241 109.12 45.4238 109.12 45.4235 109.12C45.4232 109.12 45.4229 109.12 45.4226 109.12C45.4223 109.12 45.422 109.12 45.4216 109.12C45.4213 109.12 45.421 109.12 45.4207 109.12C45.4204 109.12 45.4201 109.12 45.4198 109.12C45.4195 109.12 45.4192 109.12 45.4189 109.12C45.4186 109.12 45.4183 109.12 45.418 109.12C45.4176 109.12 45.4173 109.12 45.417 109.12C45.4167 109.12 45.4164 109.12 45.4161 109.12C45.4158 109.12 45.4155 109.12 45.4152 109.12C45.4149 109.12 45.4146 109.12 45.4143 109.12C45.414 109.12 45.4137 109.12 45.4134 109.12C45.4131 109.12 45.4128 109.12 45.4124 109.12C45.4121 109.12 45.4118 109.12 45.4115 109.12C45.4112 109.12 45.4109 109.12 45.4106 109.12C45.4103 109.12 45.41 109.12 45.4097 109.12C45.4094 109.12 45.4091 109.12 45.4088 109.12C45.4085 109.12 45.4082 109.12 45.4079 109.12C45.4076 109.12 45.4073 109.12 45.407 109.12C45.4067 109.12 45.4064 109.12 45.4061 109.12C45.4058 109.12 45.4055 109.12 45.4052 109.12C45.4049 109.12 45.4046 109.12 45.4043 109.12C45.4039 109.12 45.4036 109.12 45.4033 109.12C45.403 109.12 45.4027 109.12 45.4024 109.12C45.4021 109.12 45.4018 109.12 45.4015 109.12C45.4012 109.12 45.4009 109.12 45.4006 109.12C45.4003 109.12 45.4 109.12 45.3997 109.12C45.3994 109.12 45.3991 109.12 45.3988 109.12C45.3985 109.12 45.3982 109.12 45.3979 109.12C45.3976 109.12 45.3973 109.12 45.397 109.12C45.3967 109.12 45.3964 109.12 45.3961 109.12C45.3958 109.12 45.3955 109.12 45.3952 109.12C45.3949 109.12 45.3946 109.12 45.3943 109.12C45.394 109.12 45.3937 109.12 45.3934 109.12C45.3931 109.12 45.3928 109.12 45.3926 109.12C45.3923 109.12 45.392 109.12 45.3917 109.12C45.3914 109.12 45.3911 109.12 45.3908 109.12C45.3905 109.12 45.3902 109.12 45.3899 109.12C45.3896 109.12 45.3893 109.12 45.389 109.12C45.3887 109.12 45.3884 109.12 45.3881 109.12C45.3878 109.12 45.3875 109.12 45.3872 109.12C45.3869 109.12 45.3866 109.12 45.3863 109.12C45.386 109.12 45.3857 109.12 45.3854 109.12C45.3851 109.12 45.3848 109.12 45.3845 109.12C45.3843 109.12 45.384 109.12 45.3837 109.12C45.3834 109.12 45.3831 109.12 45.3828 109.12C45.3825 109.12 45.3822 109.12 45.3819 109.12C45.3816 109.12 45.3813 109.12 45.381 109.12C45.3807 109.12 45.3804 109.12 45.3801 109.12C45.3798 109.12 45.3796 109.12 45.3793 109.12C45.379 109.12 45.3787 109.12 45.3784 109.12C45.3781 109.12 45.3778 109.12 45.3775 109.12C45.3772 109.12 45.3769 109.12 45.3766 109.12C45.3763 109.12 45.376 109.12 45.3758 109.12C45.3755 109.12 45.3752 109.12 45.3749 109.12C45.3746 109.12 45.3743 109.12 45.374 109.12C45.3737 109.12 45.3734 109.12 45.3731 109.12C45.3728 109.12 45.3725 109.12 45.3723 109.12C45.372 109.12 45.3717 109.12 45.3714 109.12C45.3711 109.12 45.3708 109.12 45.3705 109.12C45.3702 109.12 45.3699 109.12 45.3696 109.12C45.3694 109.12 45.3691 109.12 45.3688 109.12C45.3685 109.12 45.3682 109.12 45.3679 109.12C45.3676 109.12 45.3673 109.12 45.367 109.12C45.3668 109.12 45.3665 109.12 45.3662 109.12C45.3659 109.12 45.3656 109.12 45.3653 109.12C45.365 109.12 45.3647 109.12 45.3645 109.12C45.3642 109.12 45.3639 109.12 45.3636 109.12C45.3633 109.12 45.363 109.12 45.3627 109.12C45.3624 109.12 45.3622 109.12 45.3619 109.12C45.3616 109.12 45.3613 109.12 45.361 109.12C45.3607 109.12 45.3604 109.12 45.3602 109.12C45.3599 109.12 45.3596 109.12 45.3593 109.12C45.359 109.12 45.3587 109.12 45.3584 109.12C45.3582 109.12 45.3579 109.12 45.3576 109.12C45.3573 109.12 45.357 109.12 45.3567 109.12C45.3565 109.12 45.3562 109.12 45.3559 109.12C45.3556 109.12 45.3553 109.12 45.355 109.12C45.3547 109.12 45.3545 109.12 45.3542 109.12C45.3539 109.12 45.3536 109.12 45.3533 109.12C45.353 109.12 45.3528 109.12 45.3525 109.12C45.3522 109.12 45.3519 109.12 45.3516 109.12C45.3514 109.12 45.3511 109.12 45.3508 109.12C45.3505 109.12 45.3502 109.12 45.3499 109.12C45.3497 109.12 45.3494 109.12 45.3491 109.12C45.3488 109.12 45.3485 109.12 45.3483 109.12C45.348 109.12 45.3477 109.12 45.3474 109.12C45.3471 109.12 45.3468 109.12 45.3466 109.12C45.3463 109.12 45.346 109.12 45.3457 109.12C45.3454 109.12 45.3452 109.12 45.3449 109.12C45.3446 109.12 45.3443 109.12 45.344 109.12C45.3438 109.12 45.3435 109.12 45.3432 109.12C45.3429 109.12 45.3426 109.12 45.3424 109.12C45.3421 109.12 45.3418 109.12 45.3415 109.12C45.3413 109.12 45.341 109.12 45.3407 109.12C45.3404 109.12 45.3401 109.12 45.3399 109.12C45.3396 109.12 45.3393 109.12 45.339 109.12C45.3388 109.12 45.3385 109.12 45.3382 109.12C45.3379 109.12 45.3376 109.12 45.3374 109.12C45.3371 109.12 45.3368 109.12 45.3365 109.12C45.3363 109.12 45.336 109.12 45.3357 109.12C45.3354 109.12 45.3352 109.12 45.3349 109.12C45.3346 109.12 45.3343 109.12 45.334 109.12C45.3338 109.12 45.3335 109.12 45.3332 109.12C45.3329 109.12 45.3327 109.12 45.3324 109.12C45.3321 109.12 45.3318 109.12 45.3316 109.12C45.3313 109.12 45.331 109.12 45.3307 109.12C45.3305 109.12 45.3302 109.12 45.3299 109.12C45.3297 109.12 45.3294 109.12 45.3291 109.12C45.3288 109.12 45.3286 109.12 45.3283 109.12C45.328 109.12 45.3277 109.12 45.3275 109.12C45.3272 109.12 45.3269 109.12 45.3266 109.12C45.3264 109.12 45.3261 109.12 45.3258 109.12C45.3256 109.12 45.3253 109.12 45.325 109.12C45.3247 109.12 45.3245 109.12 45.3242 109.12C45.3239 109.12 45.3236 109.12 45.3234 109.12C45.3231 109.12 45.3228 109.12 45.3226 109.12C45.3223 109.12 45.322 109.12 45.3218 109.12C45.3215 109.12 45.3212 109.12 45.3209 109.12C45.3207 109.12 45.3204 109.12 45.3201 109.12C45.3199 109.12 45.3196 109.12 45.3193 109.12C45.319 109.12 45.3188 109.12 45.3185 109.12C45.3182 109.12 45.318 109.12 45.3177 109.12C45.3174 109.12 45.3172 109.12 45.3169 109.12C45.3166 109.12 45.3164 109.12 45.3161 109.12C45.3158 109.12 45.3156 109.12 45.3153 109.12C45.315 109.12 45.3147 109.12 45.3145 109.12C45.3142 109.12 45.3139 109.12 45.3137 109.12C45.3134 109.12 45.3131 109.12 45.3129 109.12C45.3126 109.12 45.3123 109.12 45.3121 109.12C45.3118 109.12 45.3115 109.12 45.3113 109.12C45.311 109.12 45.3107 109.12 45.3105 109.12C45.3102 109.12 45.3099 109.12 45.3097 109.12C45.3094 109.12 45.3091 109.12 45.3089 109.12C45.3086 109.12 45.3083 109.12 45.3081 109.12C45.3078 109.12 45.3075 109.12 45.3073 109.12C45.307 109.12 45.3068 109.12 45.3065 109.12C45.3062 109.12 45.306 109.12 45.3057 109.12C45.3054 109.12 45.3052 109.12 45.3049 109.12C45.3046 109.12 45.3044 109.12 45.3041 109.12C45.3038 109.12 45.3036 109.12 45.3033 109.12C45.3031 109.12 45.3028 109.12 45.3025 109.12C45.3023 109.12 45.302 109.12 45.3017 109.12C45.3015 109.12 45.3012 109.12 45.301 109.12C45.3007 109.12 45.3004 109.12 45.3002 109.12C45.2999 109.12 45.2996 109.12 45.2994 109.12C45.2991 109.12 45.2989 109.12 45.2986 109.12C45.2983 109.12 45.2981 109.12 45.2978 109.12C45.2976 109.12 45.2973 109.12 45.297 109.12C45.2968 109.12 45.2965 109.12 45.2963 109.12C45.296 109.12 45.2957 109.12 45.2955 109.12C45.2952 109.12 45.2949 109.12 45.2947 109.12C45.2944 109.12 45.2942 109.12 45.2939 109.12C45.2937 109.12 45.2934 109.12 45.2931 109.12C45.2929 109.12 45.2926 109.12 45.2924 109.12C45.2921 109.12 45.2918 109.12 45.2916 109.12C45.2913 109.12 45.2911 109.12 45.2908 109.12C45.2905 109.12 45.2903 109.12 45.29 109.12C45.2898 109.12 45.2895 109.12 45.2893 109.12C45.289 109.12 45.2887 109.12 45.2885 109.12C45.2882 109.12 45.288 109.12 45.2877 109.12C45.2875 109.12 45.2872 109.12 45.2869 109.12C45.2867 109.12 45.2864 109.12 45.2862 109.12C45.2859 109.12 45.2857 109.12 45.2854 109.12C45.2852 109.12 45.2849 109.12 45.2846 109.12C45.2844 109.12 45.2841 109.12 45.2839 109.12C45.2836 109.12 45.2834 109.12 45.2831 109.12C45.2829 109.12 45.2826 109.12 45.2823 109.12C45.2821 109.12 45.2818 109.12 45.2816 109.12C45.2813 109.12 45.2811 109.12 45.2808 109.12C45.2806 109.12 45.2803 109.12 45.2801 109.12C45.2798 109.12 45.2796 109.12 45.2793 109.12C45.279 109.12 45.2788 109.12 45.2785 109.12C45.2783 109.12 45.278 109.12 45.2778 109.12C45.2775 109.12 45.2773 109.12 45.277 109.12C45.2768 109.12 45.2765 109.12 45.2763 109.12C45.276 109.12 45.2758 109.12 45.2755 109.12C45.2753 109.12 45.275 109.12 45.2748 109.12C45.2745 109.12 45.2743 109.12 45.274 109.12C45.2738 109.12 45.2735 109.12 45.2733 109.12C45.273 109.12 45.2728 109.12 45.2725 109.12C45.2723 109.12 45.272 109.12 45.2718 109.12V113.12ZM45.9828 113.11C46.1961 113.089 46.4094 113.067 46.6228 113.046L46.2247 109.066C46.0114 109.087 45.7981 109.109 45.5847 109.13L45.9828 113.11ZM46.6048 113.048C46.8449 113.026 47.0749 113.004 47.2948 112.982L46.8967 109.002C46.6899 109.023 46.4719 109.043 46.2427 109.064L46.6048 113.048ZM47.4535 112.96C47.6758 112.919 47.8403 112.892 47.9546 112.876L47.3889 108.916C47.2045 108.942 46.9851 108.979 46.738 109.024L47.4535 112.96ZM48.064 112.857C48.0628 112.857 48.0397 112.862 47.9988 112.866C47.9598 112.869 47.8841 112.874 47.7824 112.866C47.6202 112.854 47.1194 112.788 46.6735 112.342L49.502 109.514C48.9921 109.004 48.39 108.901 48.0891 108.878C47.7648 108.853 47.4768 108.895 47.2795 108.935L48.064 112.857ZM46.9783 112.592C46.5996 112.34 46.4183 112.02 46.3401 111.844C46.2618 111.668 46.241 111.535 46.2359 111.499L50.1956 110.933C50.1628 110.703 50.0273 109.817 49.1972 109.264L46.9783 112.592ZM46.2447 111.555L46.5967 113.603L50.5388 112.925L50.1868 110.877L46.2447 111.555ZM63.7223 110.416L64.2312 112.35L64.2549 112.344L64.2784 112.337L63.7223 110.416ZM65.9943 109.648L66.7273 111.509L66.7549 111.498L66.7821 111.486L65.9943 109.648ZM66.6023 109.584L65.3529 111.146L65.4206 111.2L65.4928 111.248L66.6023 109.584ZM66.8903 109.968L65.0176 110.67L65.0419 110.735L65.0706 110.798L66.8903 109.968ZM67.7222 111.792L65.9026 112.622L65.9174 112.654L65.9334 112.686L67.7222 111.792ZM67.8823 112.432L69.7392 113.175L69.761 113.12L69.7796 113.064L67.8823 112.432ZM67.5623 112.752L68.5763 114.476L68.5995 114.462L68.6222 114.448L67.5623 112.752ZM64.0743 114.032L64.4141 116.003L64.4141 116.003L64.0743 114.032ZM53.1302 111.536L51.6251 112.853L51.6336 112.863L53.1302 111.536ZM51.4023 98.224L49.5077 97.5832L49.5077 97.5832L51.4023 98.224ZM53.4503 94.512L51.9295 93.213L51.9295 93.213L53.4503 94.512ZM56.6183 92.144L57.4364 93.969L57.4494 93.9632L57.4623 93.9572L56.6183 92.144ZM63.6903 91.536L63.3546 93.5077L63.3615 93.5088L63.6903 91.536ZM66.7943 92.624L65.8568 94.3907L65.8782 94.402L65.8998 94.4129L66.7943 92.624ZM67.1143 92.944L65.2169 93.5764L65.2863 93.7847L65.3993 93.973L67.1143 92.944ZM67.0183 93.552L68.8194 94.4215L68.8389 94.3811L68.8565 94.3398L67.0183 93.552ZM66.1223 95.408L64.3211 94.5385L64.291 94.6009L64.2653 94.6652L66.1223 95.408ZM65.3863 95.76L66.2139 93.9393L66.1671 93.918L66.1193 93.8992L65.3863 95.76ZM63.2103 95.12L62.7522 97.0668L62.785 97.0746L62.818 97.0812L63.2103 95.12ZM58.1223 95.536L57.135 93.7966L57.1247 93.8025L57.1145 93.8084L58.1223 95.536ZM56.2023 97.36L54.5381 96.2506L54.5308 96.2616L56.2023 97.36ZM55.0823 99.984L53.1444 99.4892L53.1406 99.504L53.1371 99.5189L55.0823 99.984ZM55.0183 106.064L53.0588 106.465L53.0642 106.491L53.0702 106.517L55.0183 106.064ZM56.0423 108.496L54.3781 109.605L54.3977 109.635L54.4182 109.663L56.0423 108.496ZM57.9943 110.128L57.0998 111.917L57.109 111.921L57.1183 111.926L57.9943 110.128ZM61.0663 112.736C62.1737 112.736 63.2324 112.613 64.2312 112.35L63.2133 108.482C62.5907 108.646 61.8788 108.736 61.0663 108.736V112.736ZM64.2784 112.337C65.1422 112.087 65.9591 111.811 66.7273 111.509L65.2612 107.787C64.6214 108.039 63.9236 108.276 63.1661 108.495L64.2784 112.337ZM66.7821 111.486C66.8429 111.46 66.7598 111.506 66.5796 111.525C66.412 111.543 65.8746 111.563 65.3529 111.146L67.8516 108.022C67.2232 107.52 66.5312 107.508 66.1609 107.547C65.7781 107.587 65.4443 107.708 65.2064 107.81L66.7821 111.486ZM65.4928 111.248C65.211 111.06 65.0729 110.818 65.0176 110.67L68.7629 109.266C68.5796 108.777 68.2495 108.278 67.7117 107.92L65.4928 111.248ZM65.0706 110.798L65.9026 112.622L69.5419 110.962L68.7099 109.138L65.0706 110.798ZM65.9334 112.686C65.9727 112.765 65.9559 112.749 65.934 112.661C65.922 112.613 65.9014 112.516 65.8972 112.382C65.8931 112.249 65.9041 112.042 65.9849 111.8L69.7796 113.064C69.975 112.478 69.881 111.957 69.8145 111.691C69.7393 111.39 69.6211 111.118 69.5111 110.898L65.9334 112.686ZM66.0253 111.689C66.1307 111.426 66.2749 111.259 66.356 111.178C66.4385 111.095 66.499 111.058 66.5023 111.056L68.6222 114.448C68.9126 114.267 69.4588 113.876 69.7392 113.175L66.0253 111.689ZM66.5482 111.028C65.6671 111.546 64.7327 111.889 63.7344 112.061L64.4141 116.003C65.8905 115.748 67.2814 115.238 68.5763 114.476L66.5482 111.028ZM63.7344 112.061C62.5994 112.257 61.5187 112.352 60.4903 112.352V116.352C61.7658 116.352 63.0744 116.234 64.4141 116.003L63.7344 112.061ZM60.4903 112.352C57.6415 112.352 55.8073 111.541 54.6269 110.209L51.6336 112.863C53.7812 115.286 56.8536 116.352 60.4903 116.352V112.352ZM54.6354 110.219C53.4407 108.854 52.6663 106.588 52.6663 103.056H48.6663C48.6663 107.076 49.5345 110.464 51.6251 112.853L54.6354 110.219ZM52.6663 103.056C52.6663 101.47 52.8859 100.08 53.2968 98.8648L49.5077 97.5832C48.9372 99.2697 48.6663 101.101 48.6663 103.056H52.6663ZM53.2968 98.8648C53.717 97.6225 54.2828 96.6167 54.971 95.811L51.9295 93.213C50.8684 94.4553 50.0688 95.9242 49.5077 97.5832L53.2968 98.8648ZM54.971 95.811C55.6519 95.0138 56.4674 94.4034 57.4364 93.969L55.8001 90.319C54.2945 90.9939 52.9979 91.9622 51.9295 93.213L54.971 95.811ZM57.4623 93.9572C58.4075 93.5172 59.4909 93.28 60.7463 93.28V89.28C58.9722 89.28 57.3037 89.6188 55.7742 90.3308L57.4623 93.9572ZM60.7463 93.28C61.5874 93.28 62.4563 93.3547 63.3547 93.5076L64.0258 89.5644C62.9188 89.3759 61.8252 89.28 60.7463 89.28V93.28ZM63.3615 93.5088C64.1454 93.6394 64.9757 93.9232 65.8568 94.3907L67.7317 90.8573C66.5221 90.2155 65.2831 89.7739 64.019 89.5632L63.3615 93.5088ZM65.8998 94.4129C65.7948 94.3603 65.4011 94.1291 65.2169 93.5764L69.0116 92.3115C68.7421 91.5028 68.1351 91.0583 67.6887 90.8351L65.8998 94.4129ZM65.3993 93.973C65.2319 93.694 65.1737 93.4295 65.1549 93.2478C65.1364 93.0692 65.1517 92.9336 65.1627 92.8641C65.1831 92.7353 65.2119 92.6897 65.18 92.7642L68.8565 94.3398C68.9526 94.1156 69.0615 93.8193 69.1138 93.4879C69.1589 93.2019 69.2164 92.5603 68.8292 91.915L65.3993 93.973ZM65.2171 92.6825L64.3211 94.5385L67.9234 96.2775L68.8194 94.4215L65.2171 92.6825ZM64.2653 94.6652C64.2493 94.7053 64.255 94.6822 64.2909 94.6238C64.3102 94.5925 64.3456 94.5388 64.4004 94.4737C64.4544 94.4096 64.5411 94.3178 64.6662 94.224L67.0663 97.424C67.6299 97.0013 67.8818 96.3943 67.9792 96.1508L64.2653 94.6652ZM64.6662 94.224C65.2149 93.8125 65.769 93.8499 65.9466 93.8735C66.1417 93.8996 66.2455 93.9536 66.2139 93.9393L64.5586 97.5807C64.7617 97.673 65.0628 97.7911 65.4179 97.8385C65.7555 97.8835 66.4322 97.8995 67.0663 97.424L64.6662 94.224ZM66.1193 93.8992C65.3042 93.5781 64.4648 93.3313 63.6025 93.1588L62.818 97.0812C63.4491 97.2074 64.0603 97.3873 64.6532 97.6208L66.1193 93.8992ZM63.6683 93.1732C62.7804 92.9642 61.8578 92.864 60.9063 92.864V96.864C61.5761 96.864 62.1895 96.9344 62.7522 97.0668L63.6683 93.1732ZM60.9063 92.864C59.5545 92.864 58.2743 93.15 57.135 93.7966L59.1095 97.2754C59.5489 97.026 60.1246 96.864 60.9063 96.864V92.864ZM57.1145 93.8084C56.0734 94.4158 55.2124 95.2392 54.5381 96.2506L57.8664 98.4694C58.2161 97.9448 58.6351 97.5522 59.13 97.2636L57.1145 93.8084ZM54.5308 96.2616C53.901 97.2201 53.4467 98.3053 53.1444 99.4892L57.0201 100.479C57.2298 99.6574 57.5221 98.9933 57.8737 98.4584L54.5308 96.2616ZM53.1371 99.5189C52.864 100.661 52.7303 101.842 52.7303 103.056H56.7303C56.7303 102.137 56.8312 101.27 57.0274 100.449L53.1371 99.5189ZM52.7303 103.056C52.7303 104.242 52.837 105.38 53.0588 106.465L56.9777 105.663C56.8155 104.87 56.7303 104.003 56.7303 103.056H52.7303ZM53.0702 106.517C53.3319 107.642 53.7613 108.68 54.3781 109.605L57.7064 107.387C57.3846 106.904 57.1313 106.321 56.9663 105.611L53.0702 106.517ZM54.4182 109.663C55.1127 110.63 56.0224 111.378 57.0998 111.917L58.8887 108.339C58.3448 108.067 57.9531 107.728 57.6663 107.329L54.4182 109.663ZM57.1183 111.926C58.2949 112.499 59.6381 112.736 61.0663 112.736V108.736C60.0624 108.736 59.3576 108.567 58.8702 108.33L57.1183 111.926ZM71.534 113.584L70.0155 114.886L70.0394 114.914L70.0644 114.941L71.534 113.584ZM72.942 91.568L72.942 93.568L72.9528 93.568L72.942 91.568ZM78.862 91.536L78.862 89.536L78.8512 89.536L78.862 91.536ZM83.374 92.368L84.1692 90.5329L84.1692 90.5329L83.374 92.368ZM86.542 94.672L88.0675 93.3786L88.0675 93.3786L86.542 94.672ZM88.398 98.192L86.4807 98.7612L86.4832 98.7695L88.398 98.192ZM88.462 107.12L90.3969 107.626L90.3969 107.626L88.462 107.12ZM86.734 110.736L88.3055 111.973L88.3118 111.965L88.318 111.957L86.734 110.736ZM83.662 113.136L84.5061 114.949L84.5128 114.946L84.5195 114.943L83.662 113.136ZM84.654 99.696L82.6946 100.097L82.6999 100.123L82.706 100.149L84.654 99.696ZM83.63 97.264L81.9892 98.4076L81.9975 98.4195L82.006 98.4313L83.63 97.264ZM81.646 95.632L80.7701 97.43L80.7889 97.4391L80.8079 97.4479L81.646 95.632ZM75.086 95.024V93.024H73.086V95.024H75.086ZM75.086 110.512H73.086V112.512H75.086V110.512ZM81.71 109.936L82.5662 111.743L82.5854 111.734L82.6044 111.725L81.71 109.936ZM83.63 108.304L81.9892 107.16L81.9819 107.171L83.63 108.304ZM84.654 105.84L82.7016 105.406L82.698 105.423L82.6946 105.439L84.654 105.84ZM72.942 112C72.8377 112 72.7613 111.995 72.709 111.988C72.6562 111.982 72.6374 111.976 72.6447 111.978C72.6556 111.981 72.8243 112.033 73.0036 112.227L70.0644 114.941C70.9106 115.857 72.1175 116 72.942 116V112ZM73.0525 112.282C73.1573 112.405 73.1796 112.497 73.1755 112.482C73.1736 112.475 73.1669 112.447 73.1608 112.395C73.1548 112.342 73.15 112.27 73.15 112.176H69.15C69.15 113.014 69.3054 114.057 70.0155 114.886L73.0525 112.282ZM73.15 112.176V93.392H69.15V112.176H73.15ZM73.15 93.392C73.15 93.3055 73.1545 93.2404 73.16 93.194C73.1656 93.1475 73.1715 93.1249 73.1724 93.1216C73.1741 93.1155 73.1504 93.2034 73.0525 93.3176L70.0155 90.7144C69.3138 91.5331 69.15 92.5552 69.15 93.392H73.15ZM73.0525 93.3176C72.8844 93.5138 72.7153 93.576 72.6844 93.5859C72.6698 93.5905 72.6812 93.5854 72.7271 93.5794C72.7726 93.5735 72.8428 93.568 72.942 93.568V89.568C72.0839 89.568 70.8545 89.7356 70.0155 90.7144L73.0525 93.3176ZM72.9528 93.568L78.8728 93.536L78.8512 89.536L72.9312 89.568L72.9528 93.568ZM78.862 93.536C80.3798 93.536 81.6021 93.7799 82.5788 94.2031L84.1692 90.5329C82.5859 89.8468 80.8002 89.536 78.862 89.536V93.536ZM82.5788 94.2031C83.6012 94.6461 84.3995 95.2376 85.0165 95.9654L88.0675 93.3786C87.0205 92.1437 85.7068 91.1992 84.1692 90.5329L82.5788 94.2031ZM85.0165 95.9654C85.6507 96.7135 86.1458 97.6332 86.4807 98.7612L90.3153 97.6228C89.8395 96.0201 89.0973 94.5932 88.0675 93.3786L85.0165 95.9654ZM86.4832 98.7695C86.8241 99.8998 87.006 101.185 87.006 102.64H91.006C91.006 100.853 90.7826 99.1722 90.3128 97.6145L86.4832 98.7695ZM87.006 102.64C87.006 104.089 86.8419 105.41 86.5271 106.614L90.3969 107.626C90.8075 106.056 91.006 104.391 91.006 102.64H87.006ZM86.5271 106.614C86.2249 107.769 85.7587 108.725 85.15 109.515L88.318 111.957C89.288 110.699 89.9738 109.244 90.3969 107.626L86.5271 106.614ZM85.1625 109.499C84.5811 110.237 83.8104 110.852 82.8045 111.329L84.5195 114.943C86.0309 114.226 87.3082 113.24 88.3055 111.973L85.1625 109.499ZM82.8179 111.323C81.9084 111.746 80.7189 112 79.182 112V116C81.1437 116 82.9409 115.678 84.5061 114.949L82.8179 111.323ZM79.182 112H72.942V116H79.182V112ZM86.974 102.704C86.974 101.486 86.8547 100.33 86.602 99.243L82.706 100.149C82.8799 100.897 82.974 101.746 82.974 102.704H86.974ZM86.6134 99.2952C86.3728 98.1188 85.9308 97.0383 85.254 96.0967L82.006 98.4313C82.3106 98.855 82.5512 99.3959 82.6946 100.097L86.6134 99.2952ZM85.2708 96.1204C84.5632 95.1052 83.6159 94.3385 82.4841 93.8161L80.8079 97.4479C81.3401 97.6935 81.7155 98.0148 81.9892 98.4076L85.2708 96.1204ZM82.5219 93.834C81.3412 93.2588 79.9854 93.024 78.542 93.024V97.024C79.5733 97.024 80.2868 97.1945 80.7701 97.43L82.5219 93.834ZM78.542 93.024H75.086V97.024H78.542V93.024ZM73.086 95.024V110.512H77.086V95.024H73.086ZM75.086 112.512H78.638V108.512H75.086V112.512ZM78.638 112.512C80.0657 112.512 81.4064 112.293 82.5662 111.743L80.8538 108.129C80.3922 108.347 79.685 108.512 78.638 108.512V112.512ZM82.6044 111.725C83.6886 111.183 84.5994 110.424 85.2781 109.437L81.9819 107.171C81.7219 107.549 81.3528 107.879 80.8156 108.147L82.6044 111.725ZM85.2708 109.448C85.9343 108.496 86.3732 107.415 86.6134 106.241L82.6946 105.439C82.5508 106.142 82.307 106.704 81.9892 107.16L85.2708 109.448ZM86.6064 106.274C86.8557 105.152 86.974 103.959 86.974 102.704H82.974C82.974 103.71 82.879 104.608 82.7016 105.406L86.6064 106.274ZM97.0213 97.424V95.424H95.0213V97.424H97.0213ZM96.8613 113.904L98.0612 115.504L98.0862 115.485L98.1106 115.466L96.8613 113.904ZM93.3733 113.872L92.2638 115.536L92.2639 115.536L93.3733 113.872ZM93.5653 92.048L92.0538 90.7381L92.0467 90.7464L93.5653 92.048ZM97.3733 91.888L96.0929 93.4244L96.1323 93.4572L96.1732 93.488L97.3733 91.888ZM98.2693 92.976L99.9833 91.9455L99.9689 91.9215L99.9538 91.8979L98.2693 92.976ZM104.637 103.568L106.36 102.551L106.355 102.544L106.351 102.537L104.637 103.568ZM107.357 108.176L105.635 109.193L106.215 110.176H107.357V108.176ZM107.485 108.176V110.176H109.485V108.176H107.485ZM110.941 113.52L112.503 114.769L112.523 114.745L112.541 114.72L110.941 113.52ZM107.133 113.712L108.296 112.085L108.296 112.085L107.133 113.712ZM106.685 113.296L105.021 114.405L105.094 114.514L105.18 114.613L106.685 113.296ZM106.237 112.624L104.524 113.656L104.548 113.695L104.573 113.733L106.237 112.624ZM99.8373 102L98.1128 103.013L98.1184 103.023L98.1241 103.032L99.8373 102ZM97.1493 97.424L98.8737 96.411L98.294 95.424H97.1493V97.424ZM95.0213 97.424V113.328H99.0213V97.424H95.0213ZM95.0213 113.328C95.0213 113.377 95.0148 113.303 95.0542 113.161C95.0907 113.03 95.2177 112.658 95.6119 112.342L98.1106 115.466C98.6115 115.065 98.8185 114.554 98.9083 114.231C99.001 113.897 99.0213 113.578 99.0213 113.328H95.0213ZM95.6613 112.304C95.8549 112.159 96.0299 112.088 96.123 112.056C96.2221 112.022 96.2952 112.008 96.3245 112.003C96.3783 111.994 96.376 112 96.2853 112V116C96.4931 116 96.7362 115.99 96.982 115.949C97.1738 115.917 97.629 115.828 98.0612 115.504L95.6613 112.304ZM96.2853 112H93.9173V116H96.2853V112ZM93.9173 112C93.9186 112 93.9319 112 93.9553 112.002C93.9786 112.005 94.0156 112.01 94.0633 112.021C94.1573 112.043 94.3112 112.094 94.4826 112.208L92.2639 115.536C92.851 115.928 93.4811 116 93.9173 116V112ZM94.4827 112.208C94.8605 112.46 95.0398 112.793 95.1152 113.006C95.1517 113.11 95.1672 113.192 95.1741 113.242C95.181 113.292 95.1813 113.322 95.1813 113.328H91.1813C91.1813 113.751 91.2524 114.862 92.2638 115.536L94.4827 112.208ZM95.1813 113.328V93.52H91.1813V113.328H95.1813ZM95.1813 93.52C95.1813 93.4108 95.1864 93.3254 95.1935 93.2609C95.2005 93.196 95.2088 93.1591 95.2125 93.1448C95.2212 93.1113 95.2019 93.2117 95.0838 93.3496L92.0467 90.7464C91.3215 91.5926 91.1813 92.679 91.1813 93.52H95.1813ZM95.0766 93.3579C95.0068 93.4384 94.9344 93.4958 94.8732 93.534C94.8139 93.5711 94.772 93.586 94.7613 93.5895C94.7512 93.5928 94.7663 93.5868 94.8147 93.5803C94.8629 93.5738 94.9357 93.568 95.0373 93.568V89.568C94.1252 89.568 92.901 89.7607 92.0539 90.7381L95.0766 93.3579ZM95.0373 93.568H96.1573V89.568H95.0373V93.568ZM96.1573 93.568C96.2327 93.568 96.2875 93.5717 96.3244 93.5758C96.3615 93.5799 96.3745 93.5838 96.3683 93.5821C96.3586 93.5796 96.24 93.547 96.0929 93.4244L98.6536 90.3516C97.8666 89.6957 96.893 89.568 96.1573 89.568V93.568ZM96.1732 93.488C96.1298 93.4554 96.1547 93.4653 96.2454 93.5754C96.3301 93.6782 96.4433 93.8332 96.5847 94.0541L99.9538 91.8979C99.5844 91.3207 99.1282 90.7042 98.5733 90.288L96.1732 93.488ZM96.5552 94.0065L102.923 104.599L106.351 102.537L99.9833 91.9455L96.5552 94.0065ZM102.915 104.585L105.635 109.193L109.08 107.159L106.36 102.551L102.915 104.585ZM107.357 110.176H107.485V106.176H107.357V110.176ZM109.485 108.176V92.24H105.485V108.176H109.485ZM109.485 92.24C109.485 92.212 109.49 92.3039 109.444 92.4603C109.398 92.6162 109.263 92.9631 108.895 93.2577L106.396 90.1343C105.921 90.5142 105.706 90.9945 105.607 91.3317C105.507 91.6694 105.485 91.9907 105.485 92.24H109.485ZM108.895 93.2577C108.628 93.4709 108.383 93.5345 108.303 93.5524C108.212 93.5726 108.174 93.568 108.221 93.568V89.568C107.881 89.568 107.074 89.5916 106.396 90.1343L108.895 93.2577ZM108.221 93.568H110.589V89.568H108.221V93.568ZM110.589 93.568C110.636 93.568 110.599 93.5726 110.507 93.5524C110.427 93.5345 110.182 93.4709 109.916 93.2577L112.415 90.1343C111.736 89.5916 110.929 89.568 110.589 89.568V93.568ZM109.916 93.2577C109.548 92.9631 109.412 92.6162 109.367 92.4603C109.321 92.3039 109.325 92.212 109.325 92.24H113.325C113.325 91.9907 113.303 91.6694 113.204 91.3317C113.105 90.9945 112.89 90.5142 112.415 90.1343L109.916 93.2577ZM109.325 92.24V112.08H113.325V92.24H109.325ZM109.325 112.08C109.325 112.256 109.307 112.352 109.297 112.389C109.288 112.421 109.293 112.385 109.341 112.32L112.541 114.72C113.151 113.908 113.325 112.944 113.325 112.08H109.325ZM109.38 112.271C109.551 112.056 109.732 111.988 109.761 111.979C109.775 111.974 109.76 111.98 109.708 111.987C109.657 111.994 109.579 112 109.469 112V116C110.356 116 111.657 115.827 112.503 114.769L109.38 112.271ZM109.469 112H108.349V116H109.469V112ZM108.349 112C108.261 112 108.194 111.997 108.146 111.992C108.098 111.988 108.077 111.983 108.079 111.984L107.211 115.888C107.591 115.973 107.98 116 108.349 116V112ZM108.079 111.984C108.13 111.995 108.211 112.024 108.296 112.085L105.971 115.339C106.354 115.613 106.776 115.792 107.211 115.888L108.079 111.984ZM108.296 112.085C108.298 112.086 108.261 112.059 108.19 111.979L105.18 114.613C105.408 114.874 105.67 115.125 105.971 115.339L108.296 112.085ZM108.349 112.187C108.221 111.995 108.072 111.771 107.901 111.515L104.573 113.733C104.744 113.989 104.893 114.213 105.021 114.405L108.349 112.187ZM107.95 111.592L101.55 100.968L98.1241 103.032L104.524 113.656L107.95 111.592ZM101.562 100.987L98.8737 96.411L95.4248 98.437L98.1128 103.013L101.562 100.987ZM97.1493 95.424H97.0213V99.424H97.1493V95.424Z" fill="white" mask="url(#path-2-outside-1_4243_124)"/>
<path d="M72.4376 73.4114C76.5627 71.3841 80.248 68.5642 83.2832 65.1127C86.3184 61.6611 88.644 57.6455 90.1273 53.2952C91.6106 48.9448 92.2225 44.3449 91.9281 39.7581C91.6337 35.1713 90.4387 30.6874 88.4114 26.5623C86.3841 22.4373 83.5642 18.752 80.1127 15.7168C76.6611 12.6816 72.6455 10.356 68.2952 8.87268C63.9448 7.38938 59.3449 6.77746 54.7581 7.07188C50.1713 7.36629 45.6873 8.56126 41.5623 10.5886L57 42L72.4376 73.4114Z" fill="#E63946"/>
<path d="M41.2824 10.7277C37.1757 12.7918 33.5157 15.6445 30.5114 19.123C27.5072 22.6016 25.2175 26.6378 23.7731 31.0012C22.3287 35.3646 21.7579 39.9698 22.0933 44.5538C22.4287 49.1378 23.6636 53.6109 25.7277 57.7176C27.7918 61.8243 30.6445 65.4843 34.123 68.4886C37.6016 71.4928 41.6378 73.7825 46.0012 75.2269C50.3646 76.6713 54.9698 77.2421 59.5538 76.9067C64.1378 76.5713 68.6109 75.3364 72.7176 73.2723L57 42L41.2824 10.7277Z" fill="white"/>
<path d="M50.9236 51.6192C50.8781 55.1031 48.0548 57.89 44.6178 57.8438C41.1808 57.7976 38.4314 54.9358 38.477 51.4518C38.5226 47.9679 41.3458 45.181 44.7829 45.2272C48.2199 45.2734 50.9692 48.1352 50.9236 51.6192ZM42.2511 51.5026C42.2331 52.8737 43.3152 54 44.6678 54.0182C46.0205 54.0364 47.1316 52.9396 47.1496 51.5684C47.1675 50.1973 46.0855 49.071 44.7328 49.0528C43.3801 49.0346 42.269 50.1314 42.2511 51.5026Z" fill="#E63946"/>
<path d="M49.5447 33.9735L54.1424 37.9012L48.8498 50.0599L43.4836 47.4324L49.5447 33.9735Z" fill="#E63946"/>
<path d="M47.5 38.5L50.0068 32.8574C50.0068 32.8574 50.2277 32.3457 50.7452 32.3344C51.1336 32.326 51.4385 32.8245 51.4385 32.8245L76.2598 70.8244L71.3698 74.1589L47.5 38.5Z" fill="#E63946"/>
<path d="M63.1027 31.8291C63.1483 28.3451 65.9715 25.5582 69.4086 25.6045C72.8456 25.6507 75.5949 28.5124 75.5493 31.9964C75.5038 35.4804 72.6805 38.2672 69.2435 38.221C65.8065 38.1748 63.0571 35.313 63.1027 31.8291ZM71.7753 31.9457C71.7932 30.5745 70.7112 29.4482 69.3585 29.43C68.0058 29.4119 66.8947 30.5087 66.8768 31.8798C66.8588 33.251 67.9409 34.3772 69.2935 34.3954C70.6462 34.4136 71.7573 33.3168 71.7753 31.9457Z" fill="white"/>
<path d="M65.0262 48.4486L59.9471 45.623L65.0507 33.3838L70.376 35.896L65.0262 48.4486Z" fill="white"/>
<path d="M66.5268 44.9491L64.2284 50.4491C64.2284 50.4491 64.0264 50.9482 63.5266 50.9476C63.1516 50.9471 62.846 50.4491 62.846 50.4491L38.0269 12.4491L42.6776 9.27488L66.5268 44.9491Z" fill="white"/>
<path d="M96 42C96 63.5391 78.5391 81 57 81C35.4609 81 18 63.5391 18 42C18 20.4609 35.4609 3 57 3C78.5391 3 96 20.4609 96 42ZM26.2099 42C26.2099 59.0049 39.9951 72.7901 57 72.7901C74.0049 72.7901 87.7901 59.0049 87.7901 42C87.7901 24.9951 74.0049 11.2099 57 11.2099C39.9951 11.2099 26.2099 24.9951 26.2099 42Z" fill="#E63946"/>
</svg>
