<svg width="114" height="123" viewBox="0 0 114 123" fill="none" xmlns="http://www.w3.org/2000/svg">
<circle cx="57" cy="40" r="40" fill="white"/>
<mask id="path-2-outside-1_4937_224" maskUnits="userSpaceOnUse" x="1" y="88" width="112" height="26" fill="black">
<rect fill="white" x="1" y="88" width="112" height="26"/>
<path d="M8.32 98.016C8.08533 98.016 7.744 98.0267 7.296 98.048C6.86933 98.048 6.368 98.1013 5.792 98.208V111.456C5.792 111.691 5.74933 111.84 5.664 111.904C5.57867 111.968 5.41867 112 5.184 112H2.688C2.47467 112 2.31467 111.968 2.208 111.904C2.12267 111.84 2.08 111.691 2.08 111.456V97.76C2.08 96.992 2.21867 96.3947 2.496 95.968C2.77333 95.5413 3.34933 95.2533 4.224 95.104C4.43733 95.0827 4.72533 95.0507 5.088 95.008C5.45067 94.9653 5.83467 94.9333 6.24 94.912C6.64533 94.8907 7.04 94.8693 7.424 94.848C7.808 94.8267 8.13867 94.816 8.416 94.816C9.824 94.816 11.04 94.9653 12.064 95.264C13.1093 95.5627 13.9627 96.0427 14.624 96.704C15.3067 97.344 15.808 98.1867 16.128 99.232C16.448 100.277 16.608 101.536 16.608 103.008V111.456C16.608 111.691 16.5653 111.84 16.48 111.904C16.3947 111.968 16.2347 112 16 112H13.472C13.2587 112 13.0987 111.968 12.992 111.904C12.9067 111.84 12.864 111.691 12.864 111.456V102.944C12.864 102.112 12.7893 101.387 12.64 100.768C12.512 100.149 12.2773 99.6373 11.936 99.232C11.5947 98.8267 11.1253 98.528 10.528 98.336C9.952 98.1227 9.216 98.016 8.32 98.016ZM27.7755 94.816C30.2288 94.816 32.0422 95.4453 33.2155 96.704C34.4102 97.9627 35.0075 99.6907 35.0075 101.888C35.0075 102.443 34.9435 102.901 34.8155 103.264C34.6875 103.627 34.5062 103.915 34.2715 104.128C34.0368 104.341 33.7595 104.491 33.4395 104.576C33.1408 104.661 32.8102 104.704 32.4475 104.704H23.9355C23.9568 105.536 24.0848 106.24 24.3195 106.816C24.5542 107.371 24.8742 107.829 25.2795 108.192C25.6848 108.533 26.1542 108.779 26.6875 108.928C27.2208 109.077 27.7968 109.152 28.4155 109.152C29.0982 109.152 29.7702 109.067 30.4315 108.896C31.0928 108.725 31.6688 108.523 32.1595 108.288C32.5008 108.139 32.7355 108.203 32.8635 108.48L33.7275 110.304C33.8768 110.645 33.8022 110.891 33.5035 111.04C32.6928 111.531 31.8075 111.872 30.8475 112.064C29.8875 112.256 28.9702 112.352 28.0955 112.352C25.5142 112.352 23.5408 111.659 22.1755 110.272C20.8102 108.885 20.1275 106.688 20.1275 103.68C20.1275 102.272 20.3195 101.024 20.7035 99.936C21.0875 98.8267 21.6102 97.8987 22.2715 97.152C22.9542 96.384 23.7648 95.808 24.7035 95.424C25.6422 95.0187 26.6662 94.816 27.7755 94.816ZM27.8395 97.92C27.2635 97.92 26.7515 98.0373 26.3035 98.272C25.8555 98.4853 25.4715 98.784 25.1515 99.168C24.8315 99.552 24.5755 99.9893 24.3835 100.48C24.1915 100.971 24.0848 101.483 24.0635 102.016H31.4235C31.4235 101.44 31.3702 100.907 31.2635 100.416C31.1568 99.9253 30.9648 99.4987 30.6875 99.136C30.4315 98.752 30.0688 98.4533 29.5995 98.24C29.1515 98.0267 28.5648 97.92 27.8395 97.92ZM48.5678 111.264C48.5891 111.392 48.5891 111.509 48.5678 111.616C48.5678 111.701 48.4718 111.787 48.2798 111.872C47.5544 112.107 46.8291 112.245 46.1038 112.288C45.3784 112.331 44.8131 112.352 44.4078 112.352C42.6584 112.352 41.4211 111.979 40.6958 111.232C39.9704 110.485 39.6078 109.344 39.6078 107.808V98.048H37.3358C37.1011 98.048 36.9518 98.0053 36.8878 97.92C36.8451 97.8133 36.8238 97.6747 36.8238 97.504V96.192C36.8238 96 36.8558 95.8613 36.9198 95.776C36.9838 95.6907 37.1224 95.6267 37.3358 95.584L39.7678 95.04L40.1838 92C40.2264 91.7653 40.2904 91.6053 40.3758 91.52C40.4824 91.4347 40.6531 91.3493 40.8878 91.264L42.7438 90.624C42.9144 90.5813 43.0531 90.6027 43.1598 90.688C43.2664 90.752 43.3198 90.9013 43.3198 91.136V95.2H46.7438C46.9784 95.2 47.1171 95.2533 47.1598 95.36C47.2238 95.4453 47.2558 95.5627 47.2558 95.712V97.504C47.2558 97.696 47.2238 97.8347 47.1598 97.92C47.1171 98.0053 46.9784 98.048 46.7438 98.048H43.3198V107.328C43.3198 108.011 43.4798 108.48 43.7998 108.736C44.1198 108.992 44.6104 109.12 45.2718 109.12C45.3998 109.12 45.5704 109.12 45.7838 109.12C45.9971 109.099 46.2104 109.077 46.4238 109.056C46.6584 109.035 46.8824 109.013 47.0958 108.992C47.3304 108.949 47.5224 108.917 47.6718 108.896C47.8851 108.853 48.0238 108.864 48.0878 108.928C48.1518 108.971 48.1944 109.067 48.2158 109.216L48.5678 111.264Z"/>
<path d="M61.0663 108.736C62.0263 108.736 62.9116 108.629 63.7223 108.416C64.5329 108.181 65.2903 107.925 65.9943 107.648C66.2929 107.52 66.4956 107.499 66.6023 107.584C66.7303 107.669 66.8263 107.797 66.8903 107.968L67.7222 109.792C67.8716 110.091 67.9249 110.304 67.8823 110.432C67.8396 110.539 67.7329 110.645 67.5623 110.752C66.4743 111.392 65.3116 111.819 64.0743 112.032C62.8369 112.245 61.6423 112.352 60.4903 112.352C57.2476 112.352 54.7943 111.413 53.1302 109.536C51.4876 107.659 50.6663 104.832 50.6663 101.056C50.6663 99.2853 50.9116 97.6747 51.4023 96.224C51.8929 94.7733 52.5756 93.536 53.4503 92.512C54.3249 91.488 55.3809 90.6987 56.6183 90.144C57.8556 89.568 59.2316 89.28 60.7463 89.28C61.7063 89.28 62.6876 89.3653 63.6903 89.536C64.7143 89.7067 65.7489 90.0693 66.7943 90.624C66.9649 90.7093 67.0716 90.816 67.1143 90.944C67.1783 91.0507 67.1463 91.2533 67.0183 91.552L66.1223 93.408C66.0369 93.6213 65.9516 93.76 65.8663 93.824C65.7809 93.888 65.6209 93.8667 65.3863 93.76C64.6823 93.4827 63.9569 93.2693 63.2103 93.12C62.4849 92.9493 61.7169 92.864 60.9063 92.864C59.8396 92.864 58.9116 93.088 58.1223 93.536C57.3543 93.984 56.7143 94.592 56.2023 95.36C55.7116 96.1067 55.3383 96.9813 55.0823 97.984C54.8476 98.9653 54.7303 99.9893 54.7303 101.056C54.7303 102.123 54.8263 103.125 55.0183 104.064C55.2316 104.981 55.5729 105.792 56.0423 106.496C56.5329 107.179 57.1836 107.723 57.9943 108.128C58.8263 108.533 59.8503 108.736 61.0663 108.736ZM72.942 112C72.2593 112 71.79 111.861 71.534 111.584C71.278 111.285 71.15 110.816 71.15 110.176V91.392C71.15 90.7733 71.278 90.3147 71.534 90.016C71.79 89.7173 72.2593 89.568 72.942 89.568L78.862 89.536C80.59 89.536 82.094 89.8133 83.374 90.368C84.654 90.9227 85.71 91.6907 86.542 92.672C87.374 93.6533 87.9927 94.8267 88.398 96.192C88.8033 97.536 89.006 99.0187 89.006 100.64C89.006 102.24 88.8247 103.733 88.462 105.12C88.0993 106.507 87.5233 107.712 86.734 108.736C85.9447 109.739 84.9207 110.539 83.662 111.136C82.4247 111.712 80.9313 112 79.182 112H72.942ZM84.974 100.704C84.974 99.616 84.8673 98.6133 84.654 97.696C84.462 96.7573 84.1207 95.9467 83.63 95.264C83.1393 94.56 82.478 94.016 81.646 93.632C80.814 93.2267 79.7793 93.024 78.542 93.024H75.086V108.512H78.638C79.8753 108.512 80.8993 108.32 81.71 107.936C82.5207 107.531 83.1607 106.987 83.63 106.304C84.1207 105.6 84.462 104.779 84.654 103.84C84.8673 102.88 84.974 101.835 84.974 100.704ZM97.0213 95.424V111.328C97.0213 111.627 96.9679 111.819 96.8613 111.904C96.7759 111.968 96.5839 112 96.2853 112H93.9173C93.6826 112 93.5013 111.957 93.3733 111.872C93.2453 111.787 93.1813 111.605 93.1813 111.328V91.52C93.1813 90.8373 93.3093 90.3467 93.5653 90.048C93.8426 89.728 94.3333 89.568 95.0373 89.568H96.1573C96.7119 89.568 97.1173 89.6747 97.3733 89.888C97.6293 90.08 97.9279 90.4427 98.2693 90.976L104.637 101.568L107.357 106.176H107.485V90.24C107.485 89.9627 107.539 89.7813 107.645 89.696C107.752 89.6107 107.944 89.568 108.221 89.568H110.589C110.867 89.568 111.059 89.6107 111.165 89.696C111.272 89.7813 111.325 89.9627 111.325 90.24V110.08C111.325 110.699 111.197 111.179 110.941 111.52C110.685 111.84 110.195 112 109.469 112H108.349C108.072 112 107.837 111.979 107.645 111.936C107.453 111.893 107.283 111.819 107.133 111.712C106.984 111.605 106.835 111.467 106.685 111.296C106.557 111.104 106.408 110.88 106.237 110.624L99.8373 100L97.1493 95.424H97.0213Z"/>
</mask>
<path d="M8.32 98.016C8.08533 98.016 7.744 98.0267 7.296 98.048C6.86933 98.048 6.368 98.1013 5.792 98.208V111.456C5.792 111.691 5.74933 111.84 5.664 111.904C5.57867 111.968 5.41867 112 5.184 112H2.688C2.47467 112 2.31467 111.968 2.208 111.904C2.12267 111.84 2.08 111.691 2.08 111.456V97.76C2.08 96.992 2.21867 96.3947 2.496 95.968C2.77333 95.5413 3.34933 95.2533 4.224 95.104C4.43733 95.0827 4.72533 95.0507 5.088 95.008C5.45067 94.9653 5.83467 94.9333 6.24 94.912C6.64533 94.8907 7.04 94.8693 7.424 94.848C7.808 94.8267 8.13867 94.816 8.416 94.816C9.824 94.816 11.04 94.9653 12.064 95.264C13.1093 95.5627 13.9627 96.0427 14.624 96.704C15.3067 97.344 15.808 98.1867 16.128 99.232C16.448 100.277 16.608 101.536 16.608 103.008V111.456C16.608 111.691 16.5653 111.84 16.48 111.904C16.3947 111.968 16.2347 112 16 112H13.472C13.2587 112 13.0987 111.968 12.992 111.904C12.9067 111.84 12.864 111.691 12.864 111.456V102.944C12.864 102.112 12.7893 101.387 12.64 100.768C12.512 100.149 12.2773 99.6373 11.936 99.232C11.5947 98.8267 11.1253 98.528 10.528 98.336C9.952 98.1227 9.216 98.016 8.32 98.016ZM27.7755 94.816C30.2288 94.816 32.0422 95.4453 33.2155 96.704C34.4102 97.9627 35.0075 99.6907 35.0075 101.888C35.0075 102.443 34.9435 102.901 34.8155 103.264C34.6875 103.627 34.5062 103.915 34.2715 104.128C34.0368 104.341 33.7595 104.491 33.4395 104.576C33.1408 104.661 32.8102 104.704 32.4475 104.704H23.9355C23.9568 105.536 24.0848 106.24 24.3195 106.816C24.5542 107.371 24.8742 107.829 25.2795 108.192C25.6848 108.533 26.1542 108.779 26.6875 108.928C27.2208 109.077 27.7968 109.152 28.4155 109.152C29.0982 109.152 29.7702 109.067 30.4315 108.896C31.0928 108.725 31.6688 108.523 32.1595 108.288C32.5008 108.139 32.7355 108.203 32.8635 108.48L33.7275 110.304C33.8768 110.645 33.8022 110.891 33.5035 111.04C32.6928 111.531 31.8075 111.872 30.8475 112.064C29.8875 112.256 28.9702 112.352 28.0955 112.352C25.5142 112.352 23.5408 111.659 22.1755 110.272C20.8102 108.885 20.1275 106.688 20.1275 103.68C20.1275 102.272 20.3195 101.024 20.7035 99.936C21.0875 98.8267 21.6102 97.8987 22.2715 97.152C22.9542 96.384 23.7648 95.808 24.7035 95.424C25.6422 95.0187 26.6662 94.816 27.7755 94.816ZM27.8395 97.92C27.2635 97.92 26.7515 98.0373 26.3035 98.272C25.8555 98.4853 25.4715 98.784 25.1515 99.168C24.8315 99.552 24.5755 99.9893 24.3835 100.48C24.1915 100.971 24.0848 101.483 24.0635 102.016H31.4235C31.4235 101.44 31.3702 100.907 31.2635 100.416C31.1568 99.9253 30.9648 99.4987 30.6875 99.136C30.4315 98.752 30.0688 98.4533 29.5995 98.24C29.1515 98.0267 28.5648 97.92 27.8395 97.92ZM48.5678 111.264C48.5891 111.392 48.5891 111.509 48.5678 111.616C48.5678 111.701 48.4718 111.787 48.2798 111.872C47.5544 112.107 46.8291 112.245 46.1038 112.288C45.3784 112.331 44.8131 112.352 44.4078 112.352C42.6584 112.352 41.4211 111.979 40.6958 111.232C39.9704 110.485 39.6078 109.344 39.6078 107.808V98.048H37.3358C37.1011 98.048 36.9518 98.0053 36.8878 97.92C36.8451 97.8133 36.8238 97.6747 36.8238 97.504V96.192C36.8238 96 36.8558 95.8613 36.9198 95.776C36.9838 95.6907 37.1224 95.6267 37.3358 95.584L39.7678 95.04L40.1838 92C40.2264 91.7653 40.2904 91.6053 40.3758 91.52C40.4824 91.4347 40.6531 91.3493 40.8878 91.264L42.7438 90.624C42.9144 90.5813 43.0531 90.6027 43.1598 90.688C43.2664 90.752 43.3198 90.9013 43.3198 91.136V95.2H46.7438C46.9784 95.2 47.1171 95.2533 47.1598 95.36C47.2238 95.4453 47.2558 95.5627 47.2558 95.712V97.504C47.2558 97.696 47.2238 97.8347 47.1598 97.92C47.1171 98.0053 46.9784 98.048 46.7438 98.048H43.3198V107.328C43.3198 108.011 43.4798 108.48 43.7998 108.736C44.1198 108.992 44.6104 109.12 45.2718 109.12C45.3998 109.12 45.5704 109.12 45.7838 109.12C45.9971 109.099 46.2104 109.077 46.4238 109.056C46.6584 109.035 46.8824 109.013 47.0958 108.992C47.3304 108.949 47.5224 108.917 47.6718 108.896C47.8851 108.853 48.0238 108.864 48.0878 108.928C48.1518 108.971 48.1944 109.067 48.2158 109.216L48.5678 111.264Z" fill="#2A3645"/>
<path d="M61.0663 108.736C62.0263 108.736 62.9116 108.629 63.7223 108.416C64.5329 108.181 65.2903 107.925 65.9943 107.648C66.2929 107.52 66.4956 107.499 66.6023 107.584C66.7303 107.669 66.8263 107.797 66.8903 107.968L67.7222 109.792C67.8716 110.091 67.9249 110.304 67.8823 110.432C67.8396 110.539 67.7329 110.645 67.5623 110.752C66.4743 111.392 65.3116 111.819 64.0743 112.032C62.8369 112.245 61.6423 112.352 60.4903 112.352C57.2476 112.352 54.7943 111.413 53.1302 109.536C51.4876 107.659 50.6663 104.832 50.6663 101.056C50.6663 99.2853 50.9116 97.6747 51.4023 96.224C51.8929 94.7733 52.5756 93.536 53.4503 92.512C54.3249 91.488 55.3809 90.6987 56.6183 90.144C57.8556 89.568 59.2316 89.28 60.7463 89.28C61.7063 89.28 62.6876 89.3653 63.6903 89.536C64.7143 89.7067 65.7489 90.0693 66.7943 90.624C66.9649 90.7093 67.0716 90.816 67.1143 90.944C67.1783 91.0507 67.1463 91.2533 67.0183 91.552L66.1223 93.408C66.0369 93.6213 65.9516 93.76 65.8663 93.824C65.7809 93.888 65.6209 93.8667 65.3863 93.76C64.6823 93.4827 63.9569 93.2693 63.2103 93.12C62.4849 92.9493 61.7169 92.864 60.9063 92.864C59.8396 92.864 58.9116 93.088 58.1223 93.536C57.3543 93.984 56.7143 94.592 56.2023 95.36C55.7116 96.1067 55.3383 96.9813 55.0823 97.984C54.8476 98.9653 54.7303 99.9893 54.7303 101.056C54.7303 102.123 54.8263 103.125 55.0183 104.064C55.2316 104.981 55.5729 105.792 56.0423 106.496C56.5329 107.179 57.1836 107.723 57.9943 108.128C58.8263 108.533 59.8503 108.736 61.0663 108.736ZM72.942 112C72.2593 112 71.79 111.861 71.534 111.584C71.278 111.285 71.15 110.816 71.15 110.176V91.392C71.15 90.7733 71.278 90.3147 71.534 90.016C71.79 89.7173 72.2593 89.568 72.942 89.568L78.862 89.536C80.59 89.536 82.094 89.8133 83.374 90.368C84.654 90.9227 85.71 91.6907 86.542 92.672C87.374 93.6533 87.9927 94.8267 88.398 96.192C88.8033 97.536 89.006 99.0187 89.006 100.64C89.006 102.24 88.8247 103.733 88.462 105.12C88.0993 106.507 87.5233 107.712 86.734 108.736C85.9447 109.739 84.9207 110.539 83.662 111.136C82.4247 111.712 80.9313 112 79.182 112H72.942ZM84.974 100.704C84.974 99.616 84.8673 98.6133 84.654 97.696C84.462 96.7573 84.1207 95.9467 83.63 95.264C83.1393 94.56 82.478 94.016 81.646 93.632C80.814 93.2267 79.7793 93.024 78.542 93.024H75.086V108.512H78.638C79.8753 108.512 80.8993 108.32 81.71 107.936C82.5207 107.531 83.1607 106.987 83.63 106.304C84.1207 105.6 84.462 104.779 84.654 103.84C84.8673 102.88 84.974 101.835 84.974 100.704ZM97.0213 95.424V111.328C97.0213 111.627 96.9679 111.819 96.8613 111.904C96.7759 111.968 96.5839 112 96.2853 112H93.9173C93.6826 112 93.5013 111.957 93.3733 111.872C93.2453 111.787 93.1813 111.605 93.1813 111.328V91.52C93.1813 90.8373 93.3093 90.3467 93.5653 90.048C93.8426 89.728 94.3333 89.568 95.0373 89.568H96.1573C96.7119 89.568 97.1173 89.6747 97.3733 89.888C97.6293 90.08 97.9279 90.4427 98.2693 90.976L104.637 101.568L107.357 106.176H107.485V90.24C107.485 89.9627 107.539 89.7813 107.645 89.696C107.752 89.6107 107.944 89.568 108.221 89.568H110.589C110.867 89.568 111.059 89.6107 111.165 89.696C111.272 89.7813 111.325 89.9627 111.325 90.24V110.08C111.325 110.699 111.197 111.179 110.941 111.52C110.685 111.84 110.195 112 109.469 112H108.349C108.072 112 107.837 111.979 107.645 111.936C107.453 111.893 107.283 111.819 107.133 111.712C106.984 111.605 106.835 111.467 106.685 111.296C106.557 111.104 106.408 110.88 106.237 110.624L99.8373 100L97.1493 95.424H97.0213Z" fill="#E63946"/>
<path d="M7.296 98.048V99.048H7.3198L7.34357 99.0469L7.296 98.048ZM5.792 98.208L5.60991 97.2247L4.792 97.3762V98.208H5.792ZM5.664 111.904L5.064 111.104L5.064 111.104L5.664 111.904ZM2.208 111.904L1.608 112.704L1.64927 112.735L1.6935 112.761L2.208 111.904ZM2.496 95.968L1.65756 95.423L1.65756 95.423L2.496 95.968ZM4.224 95.104L4.12449 94.109L4.08994 94.1124L4.0557 94.1183L4.224 95.104ZM5.088 95.008L5.20484 96.0012L5.20484 96.0011L5.088 95.008ZM6.24 94.912L6.18744 93.9134L6.18744 93.9134L6.24 94.912ZM12.064 95.264L11.784 96.224L11.7893 96.2255L12.064 95.264ZM14.624 96.704L13.9169 97.4111L13.9283 97.4225L13.9401 97.4335L14.624 96.704ZM16.128 99.232L15.1718 99.5247L15.1718 99.5247L16.128 99.232ZM12.992 111.904L12.392 112.704L12.4333 112.735L12.4775 112.761L12.992 111.904ZM12.64 100.768L11.6607 100.971L11.6641 100.987L11.6679 101.003L12.64 100.768ZM10.528 98.336L10.1807 99.2737L10.2012 99.2813L10.222 99.288L10.528 98.336ZM8.32 97.016C8.06109 97.016 7.7008 97.0276 7.24844 97.0491L7.34357 99.0469C7.7872 99.0257 8.10957 99.016 8.32 99.016V97.016ZM7.296 97.048C6.79045 97.048 6.22548 97.1107 5.60991 97.2247L5.97409 99.1913C6.51052 99.0919 6.94821 99.048 7.296 99.048V97.048ZM4.792 98.208V111.456H6.792V98.208H4.792ZM4.792 111.456C4.792 111.523 4.78482 111.517 4.79848 111.469C4.81078 111.426 4.86842 111.251 5.064 111.104L6.264 112.704C6.54491 112.493 6.66656 112.211 6.72152 112.019C6.77785 111.822 6.792 111.624 6.792 111.456H4.792ZM5.064 111.104C5.1295 111.055 5.18703 111.028 5.2216 111.015C5.25655 111.001 5.27943 110.996 5.28388 110.995C5.28973 110.994 5.26146 111 5.184 111V113C5.3412 113 5.51027 112.99 5.67612 112.957C5.83228 112.925 6.05542 112.86 6.264 112.704L5.064 111.104ZM5.184 111H2.688V113H5.184V111ZM2.688 111C2.65935 111 2.6381 110.999 2.6234 110.998C2.60859 110.996 2.60265 110.995 2.60412 110.995C2.60548 110.996 2.61722 110.998 2.63672 111.005C2.65627 111.012 2.68635 111.025 2.7225 111.047L1.6935 112.761C2.03055 112.964 2.40731 113 2.688 113V111ZM2.808 111.104C3.00358 111.251 3.06123 111.426 3.07352 111.469C3.08718 111.517 3.08 111.523 3.08 111.456H1.08C1.08 111.624 1.09415 111.822 1.15048 112.019C1.20544 112.211 1.32709 112.493 1.608 112.704L2.808 111.104ZM3.08 111.456V97.76H1.08V111.456H3.08ZM3.08 97.76C3.08 97.0935 3.20344 96.7145 3.33444 96.513L1.65756 95.423C1.23389 96.0748 1.08 96.8905 1.08 97.76H3.08ZM3.33444 96.513C3.37883 96.4447 3.60082 96.2249 4.3923 96.0897L4.0557 94.1183C3.09784 94.2818 2.16784 94.638 1.65756 95.423L3.33444 96.513ZM4.32351 96.099C4.54524 96.0769 4.8398 96.0441 5.20484 96.0012L4.97116 94.0148C4.61087 94.0572 4.32943 94.0885 4.12449 94.109L4.32351 96.099ZM5.20484 96.0011C5.54395 95.9613 5.90638 95.9309 6.29256 95.9106L6.18744 93.9134C5.76296 93.9357 5.35739 93.9694 4.97116 94.0148L5.20484 96.0011ZM6.29256 95.9106C6.69881 95.8892 7.09445 95.8678 7.47947 95.8465L7.36853 93.8495C6.98555 93.8708 6.59186 93.8921 6.18744 93.9134L6.29256 95.9106ZM7.47947 95.8465C7.85147 95.8258 8.16268 95.816 8.416 95.816V93.816C8.11465 93.816 7.76453 93.8275 7.36853 93.8495L7.47947 95.8465ZM8.416 95.816C9.75761 95.816 10.8747 95.9588 11.784 96.224L12.344 94.304C11.2053 93.9719 9.89039 93.816 8.416 93.816V95.816ZM11.7893 96.2255C12.6979 96.4851 13.394 96.8882 13.9169 97.4111L15.3311 95.9969C14.5314 95.1972 13.5207 94.6402 12.3387 94.3025L11.7893 96.2255ZM13.9401 97.4335C14.4754 97.9354 14.8942 98.6179 15.1718 99.5247L17.0842 98.9393C16.7218 97.7554 16.1379 96.7526 15.3079 95.9745L13.9401 97.4335ZM15.1718 99.5247C15.4547 100.449 15.608 101.603 15.608 103.008H17.608C17.608 101.469 17.4413 100.106 17.0842 98.9393L15.1718 99.5247ZM15.608 103.008V111.456H17.608V103.008H15.608ZM15.608 111.456C15.608 111.523 15.6008 111.517 15.6145 111.469C15.6268 111.426 15.6844 111.251 15.88 111.104L17.08 112.704C17.3609 112.493 17.4826 112.211 17.5375 112.019C17.5939 111.822 17.608 111.624 17.608 111.456H15.608ZM15.88 111.104C15.9455 111.055 16.003 111.028 16.0376 111.015C16.0726 111.001 16.0954 110.996 16.0999 110.995C16.1057 110.994 16.0775 111 16 111V113C16.1572 113 16.3263 112.99 16.4921 112.957C16.6483 112.925 16.8714 112.86 17.08 112.704L15.88 111.104ZM16 111H13.472V113H16V111ZM13.472 111C13.4434 111 13.4221 110.999 13.4074 110.998C13.3926 110.996 13.3866 110.995 13.3881 110.995C13.3895 110.996 13.4012 110.998 13.4207 111.005C13.4403 111.012 13.4704 111.025 13.5065 111.047L12.4775 112.761C12.8145 112.964 13.1913 113 13.472 113V111ZM13.592 111.104C13.7876 111.251 13.8452 111.426 13.8575 111.469C13.8712 111.517 13.864 111.523 13.864 111.456H11.864C11.864 111.624 11.8782 111.822 11.9345 112.019C11.9894 112.211 12.1111 112.493 12.392 112.704L13.592 111.104ZM13.864 111.456V102.944H11.864V111.456H13.864ZM13.864 102.944C13.864 102.056 13.7846 101.248 13.6121 100.533L11.6679 101.003C11.794 101.525 11.864 102.168 11.864 102.944H13.864ZM13.6193 100.565C13.4641 99.8152 13.1681 99.1426 12.7009 98.5879L11.1711 99.8761C11.3866 100.132 11.5599 100.483 11.6607 100.971L13.6193 100.565ZM12.7009 98.5879C12.2178 98.0142 11.5769 97.6227 10.834 97.384L10.222 99.288C10.6738 99.4333 10.9715 99.6391 11.1711 99.8761L12.7009 98.5879ZM10.8753 97.3983C10.1497 97.1295 9.28505 97.016 8.32 97.016V99.016C9.14695 99.016 9.75435 99.1158 10.1807 99.2737L10.8753 97.3983ZM33.2155 96.704L32.484 97.3859L32.4902 97.3924L33.2155 96.704ZM34.8155 103.264L33.8725 102.931L33.8725 102.931L34.8155 103.264ZM34.2715 104.128L34.9442 104.868L34.9442 104.868L34.2715 104.128ZM33.4395 104.576L33.1818 103.61L33.1733 103.612L33.1648 103.614L33.4395 104.576ZM23.9355 104.704V103.704H22.9095L22.9358 104.73L23.9355 104.704ZM24.3195 106.816L23.3933 107.193L23.3985 107.206L24.3195 106.816ZM25.2795 108.192L24.6127 108.937L24.6239 108.947L24.6354 108.957L25.2795 108.192ZM26.6875 108.928L26.4179 109.891L26.4179 109.891L26.6875 108.928ZM30.4315 108.896L30.1816 107.928L30.1816 107.928L30.4315 108.896ZM32.1595 108.288L31.7587 107.372L31.7432 107.379L31.728 107.386L32.1595 108.288ZM32.8635 108.48L31.9555 108.899L31.9598 108.908L32.8635 108.48ZM33.7275 110.304L34.6437 109.903L34.6377 109.889L34.6312 109.876L33.7275 110.304ZM33.5035 111.04L33.0563 110.146L33.0202 110.164L32.9857 110.184L33.5035 111.04ZM30.8475 112.064L31.0436 113.045L31.0436 113.045L30.8475 112.064ZM22.1755 110.272L22.8881 109.57L22.1755 110.272ZM20.7035 99.936L21.6465 100.269L21.6485 100.263L20.7035 99.936ZM22.2715 97.152L21.5241 96.4876L21.5229 96.489L22.2715 97.152ZM24.7035 95.424L25.0821 96.3495L25.0911 96.3459L25.0999 96.3421L24.7035 95.424ZM26.3035 98.272L26.7334 99.1749L26.7506 99.1667L26.7675 99.1578L26.3035 98.272ZM24.3835 100.48L23.4523 100.116L23.4523 100.116L24.3835 100.48ZM24.0635 102.016L23.0643 101.976L23.0227 103.016H24.0635V102.016ZM31.4235 102.016V103.016H32.4235V102.016H31.4235ZM31.2635 100.416L30.2863 100.628L30.2863 100.628L31.2635 100.416ZM30.6875 99.136L29.8555 99.6907L29.8734 99.7177L29.8931 99.7434L30.6875 99.136ZM29.5995 98.24L29.1696 99.1429L29.1776 99.1467L29.1857 99.1504L29.5995 98.24ZM27.7755 95.816C30.0718 95.816 31.5687 96.404 32.484 97.3859L33.947 96.0221C32.5156 94.4867 30.3859 93.816 27.7755 93.816V95.816ZM32.4902 97.3924C33.4649 98.4194 34.0075 99.8757 34.0075 101.888H36.0075C36.0075 99.5056 35.3554 97.5059 33.9408 96.0156L32.4902 97.3924ZM34.0075 101.888C34.0075 102.375 33.9501 102.711 33.8725 102.931L35.7585 103.597C35.9369 103.091 36.0075 102.51 36.0075 101.888H34.0075ZM33.8725 102.931C33.7879 103.171 33.6877 103.307 33.5988 103.388L34.9442 104.868C35.3247 104.522 35.5871 104.083 35.7585 103.597L33.8725 102.931ZM33.5988 103.388C33.4877 103.489 33.3545 103.564 33.1818 103.61L33.6972 105.542C34.1645 105.418 34.586 105.194 34.9442 104.868L33.5988 103.388ZM33.1648 103.614C32.9689 103.67 32.7324 103.704 32.4475 103.704V105.704C32.8879 105.704 33.3127 105.652 33.7142 105.538L33.1648 103.614ZM32.4475 103.704H23.9355V105.704H32.4475V103.704ZM22.9358 104.73C22.9593 105.644 23.1007 106.475 23.3934 107.193L25.2456 106.439C25.069 106.005 24.9544 105.428 24.9352 104.678L22.9358 104.73ZM23.3985 107.206C23.6844 107.881 24.0861 108.466 24.6127 108.937L25.9463 107.447C25.6622 107.193 25.4239 106.86 25.2405 106.426L23.3985 107.206ZM24.6354 108.957C25.1549 109.394 25.7533 109.705 26.4179 109.891L26.9571 107.965C26.555 107.852 26.2148 107.672 25.9236 107.427L24.6354 108.957ZM26.4179 109.891C27.0485 110.068 27.7162 110.152 28.4155 110.152V108.152C27.8775 108.152 27.3931 108.087 26.9571 107.965L26.4179 109.891ZM28.4155 110.152C29.1825 110.152 29.9385 110.056 30.6814 109.864L30.1816 107.928C29.6019 108.077 29.0138 108.152 28.4155 108.152V110.152ZM30.6814 109.864C31.3901 109.681 32.0295 109.459 32.591 109.19L31.728 107.386C31.3082 107.587 30.7955 107.769 30.1816 107.928L30.6814 109.864ZM32.5603 109.204C32.6275 109.175 32.5217 109.241 32.3284 109.189C32.2252 109.161 32.1331 109.107 32.0621 109.04C31.9956 108.978 31.9654 108.92 31.9555 108.899L33.7715 108.061C33.618 107.729 33.3276 107.388 32.8546 107.259C32.4266 107.143 32.0328 107.252 31.7587 107.372L32.5603 109.204ZM31.9598 108.908L32.8238 110.732L34.6312 109.876L33.7672 108.052L31.9598 108.908ZM32.8113 110.705C32.8328 110.754 32.7692 110.642 32.8268 110.453C32.8916 110.24 33.0381 110.155 33.0563 110.146L33.9507 111.934C34.2676 111.776 34.6007 111.493 34.7402 111.035C34.8725 110.6 34.7715 110.196 34.6437 109.903L32.8113 110.705ZM32.9857 110.184C32.2775 110.613 31.5015 110.913 30.6514 111.083L31.0436 113.045C32.1135 112.831 33.1082 112.448 34.0213 111.896L32.9857 110.184ZM30.6514 111.083C29.7484 111.264 28.8971 111.352 28.0955 111.352V113.352C29.0433 113.352 30.0266 113.248 31.0436 113.045L30.6514 111.083ZM28.0955 111.352C25.6913 111.352 24.0101 110.71 22.8881 109.57L21.4629 110.974C23.0716 112.607 25.337 113.352 28.0955 113.352V111.352ZM22.8881 109.57C21.7859 108.451 21.1275 106.565 21.1275 103.68H19.1275C19.1275 106.811 19.8344 109.32 21.4629 110.974L22.8881 109.57ZM21.1275 103.68C21.1275 102.361 21.3075 101.229 21.6465 100.269L19.7605 99.6032C19.3315 100.819 19.1275 102.183 19.1275 103.68H21.1275ZM21.6485 100.263C21.9971 99.256 22.4595 98.4479 23.0201 97.815L21.5229 96.489C20.7608 97.3494 20.1779 98.3973 19.7585 99.6089L21.6485 100.263ZM23.0189 97.8164C23.6016 97.1609 24.2866 96.675 25.0821 96.3495L24.3249 94.4985C23.243 94.941 22.3068 95.6071 21.5241 96.4876L23.0189 97.8164ZM25.0999 96.3421C25.9031 95.9952 26.7908 95.816 27.7755 95.816V93.816C26.5415 93.816 25.3812 94.0421 24.3071 94.5059L25.0999 96.3421ZM27.8395 96.92C27.1245 96.92 26.4495 97.0667 25.8395 97.3862L26.7675 99.1578C27.0535 99.008 27.4025 98.92 27.8395 98.92V96.92ZM25.8736 97.3691C25.2942 97.645 24.795 98.0337 24.3833 98.5278L25.9197 99.8082C26.148 99.5343 26.4168 99.3256 26.7334 99.1749L25.8736 97.3691ZM24.3833 98.5278C23.9908 98.9988 23.6813 99.5303 23.4523 100.116L25.3147 100.844C25.4697 100.448 25.6722 100.105 25.9197 99.8082L24.3833 98.5278ZM23.4523 100.116C23.2192 100.711 23.09 101.333 23.0643 101.976L25.0627 102.056C25.0796 101.632 25.1638 101.23 25.3147 100.844L23.4523 100.116ZM24.0635 103.016H31.4235V101.016H24.0635V103.016ZM32.4235 102.016C32.4235 101.379 32.3645 100.773 32.2407 100.204L30.2863 100.628C30.3758 101.04 30.4235 101.501 30.4235 102.016H32.4235ZM32.2407 100.204C32.106 99.5839 31.857 99.0191 31.4819 98.5285L29.8931 99.7434C30.0727 99.9782 30.2077 100.267 30.2863 100.628L32.2407 100.204ZM31.5196 98.5813C31.1482 98.0243 30.632 97.6109 30.0133 97.3296L29.1857 99.1504C29.5056 99.2958 29.7148 99.4797 29.8555 99.6907L31.5196 98.5813ZM30.0294 97.3371C29.3998 97.0373 28.6503 96.92 27.8395 96.92V98.92C28.4794 98.92 28.9032 99.016 29.1696 99.1429L30.0294 97.3371ZM48.5678 111.264L49.5542 111.1L49.5533 111.095L48.5678 111.264ZM48.5678 111.616L47.5872 111.42L47.5678 111.517V111.616H48.5678ZM48.2798 111.872L48.5876 112.823L48.6377 112.807L48.6859 112.786L48.2798 111.872ZM46.1038 112.288L46.045 111.29L46.045 111.29L46.1038 112.288ZM40.6958 111.232L41.413 110.535L41.413 110.535L40.6958 111.232ZM39.6078 98.048H40.6078V97.048H39.6078V98.048ZM36.8878 97.92L35.9593 98.2914L36.0084 98.4142L36.0877 98.52L36.8878 97.92ZM37.3358 95.584L37.5319 96.5646L37.543 96.5624L37.554 96.5599L37.3358 95.584ZM39.7678 95.04L39.986 96.0159L40.6643 95.8642L40.7585 95.1756L39.7678 95.04ZM40.1838 92L39.1999 91.8211L39.196 91.8427L39.193 91.8644L40.1838 92ZM40.3758 91.52L39.7511 90.7391L39.7078 90.7737L39.6686 90.8129L40.3758 91.52ZM40.8878 91.264L40.5618 90.3186L40.5539 90.3214L40.546 90.3242L40.8878 91.264ZM42.7438 90.624L42.5012 89.6539L42.4589 89.6644L42.4178 89.6786L42.7438 90.624ZM43.1598 90.688L42.5351 91.4689L42.5876 91.5109L42.6453 91.5455L43.1598 90.688ZM43.3198 95.2H42.3198V96.2H43.3198V95.2ZM47.1598 95.36L46.2313 95.7314L46.2804 95.8542L46.3597 95.96L47.1598 95.36ZM47.1598 97.92L46.3597 97.32L46.3056 97.3921L46.2653 97.4728L47.1598 97.92ZM43.3198 98.048V97.048H42.3198V98.048H43.3198ZM45.7838 109.12V110.12H45.8336L45.8833 110.115L45.7838 109.12ZM46.4238 109.056L46.3332 108.06L46.3242 108.061L46.4238 109.056ZM47.0958 108.992L47.1953 109.987L47.2352 109.983L47.2746 109.976L47.0958 108.992ZM47.6718 108.896L47.8132 109.886L47.8406 109.882L47.8679 109.877L47.6718 108.896ZM48.0878 108.928L47.3806 109.635L47.4507 109.705L47.533 109.76L48.0878 108.928ZM48.2158 109.216L47.2258 109.357L47.2278 109.371L47.2302 109.385L48.2158 109.216ZM47.5814 111.428C47.5865 111.459 47.5806 111.453 47.5872 111.42L49.5483 111.812C49.5975 111.566 49.5916 111.325 49.5541 111.1L47.5814 111.428ZM47.5678 111.616C47.5678 111.254 47.7743 111.047 47.8314 110.997C47.8936 110.941 47.9273 110.934 47.8736 110.958L48.6859 112.786C48.8242 112.724 49.0019 112.632 49.1601 112.491C49.3132 112.355 49.5678 112.063 49.5678 111.616H47.5678ZM47.9719 110.921C47.3233 111.13 46.6816 111.252 46.045 111.29L46.1625 113.286C46.9766 113.238 47.7855 113.083 48.5876 112.823L47.9719 110.921ZM46.045 111.29C45.3266 111.332 44.784 111.352 44.4078 111.352V113.352C44.8422 113.352 45.4303 113.329 46.1625 113.286L46.045 111.29ZM44.4078 111.352C42.7546 111.352 41.8561 110.991 41.413 110.535L39.9785 111.929C40.9861 112.966 42.5622 113.352 44.4078 113.352V111.352ZM41.413 110.535C40.9394 110.048 40.6078 109.206 40.6078 107.808H38.6078C38.6078 109.482 39.0014 110.923 39.9785 111.929L41.413 110.535ZM40.6078 107.808V98.048H38.6078V107.808H40.6078ZM39.6078 97.048H37.3358V99.048H39.6078V97.048ZM37.3358 97.048C37.2691 97.048 37.2747 97.0408 37.3225 97.0545C37.3655 97.0668 37.5411 97.1244 37.6878 97.32L36.0877 98.52C36.2984 98.8009 36.5806 98.9226 36.773 98.9775C36.9702 99.0338 37.1678 99.048 37.3358 99.048V97.048ZM37.8162 97.5486C37.8285 97.5794 37.8297 97.594 37.8281 97.5839C37.8266 97.5743 37.8238 97.5489 37.8238 97.504H35.8238C35.8238 97.7459 35.8523 98.0238 35.9593 98.2914L37.8162 97.5486ZM37.8238 97.504V96.192H35.8238V97.504H37.8238ZM37.8238 96.192C37.8238 96.1473 37.8279 96.144 37.8221 96.1689C37.8167 96.1923 37.7944 96.2765 37.7198 96.376L36.1197 95.176C35.8574 95.5258 35.8238 95.9359 35.8238 96.192H37.8238ZM37.7198 96.376C37.6186 96.5109 37.5111 96.5626 37.4908 96.572C37.4659 96.5834 37.4725 96.5765 37.5319 96.5646L37.1396 94.6034C36.8973 94.6519 36.4234 94.7711 36.1197 95.176L37.7198 96.376ZM37.554 96.5599L39.986 96.0159L39.5495 94.0641L37.1175 94.6081L37.554 96.5599ZM40.7585 95.1756L41.1745 92.1356L39.193 91.8644L38.777 94.9044L40.7585 95.1756ZM41.1676 92.1789C41.1741 92.1434 41.1802 92.1172 41.1851 92.0989C41.1901 92.0804 41.193 92.0734 41.1922 92.0754C41.1916 92.077 41.1851 92.093 41.1699 92.1179C41.1548 92.1429 41.1273 92.1827 41.0829 92.2271L39.6686 90.8129C39.3553 91.1263 39.2493 91.5493 39.1999 91.8211L41.1676 92.1789ZM41.0004 92.3009C40.9819 92.3157 40.9858 92.309 41.031 92.2864C41.0735 92.2652 41.1379 92.2371 41.2295 92.2038L40.546 90.3242C40.279 90.4213 39.9861 90.5511 39.7511 90.7391L41.0004 92.3009ZM41.2137 92.2094L43.0697 91.5694L42.4178 89.6786L40.5618 90.3186L41.2137 92.2094ZM42.9863 91.5941C42.9742 91.5972 42.9146 91.6104 42.8237 91.5964C42.7249 91.5812 42.6222 91.5386 42.5351 91.4689L43.7844 89.9071C43.3664 89.5727 42.8792 89.5593 42.5012 89.6539L42.9863 91.5941ZM42.6453 91.5455C42.4509 91.4289 42.3674 91.2665 42.338 91.1843C42.3124 91.1125 42.3198 91.0836 42.3198 91.136H44.3198C44.3198 90.8526 44.2729 90.1897 43.6742 89.8305L42.6453 91.5455ZM42.3198 91.136V95.2H44.3198V91.136H42.3198ZM43.3198 96.2H46.7438V94.2H43.3198V96.2ZM46.7438 96.2C46.8012 96.2 46.7568 96.2087 46.6648 96.1733C46.5548 96.1311 46.3415 96.0069 46.2313 95.7314L48.0882 94.9886C47.9353 94.6064 47.6313 94.4023 47.3827 94.3067C47.152 94.2179 46.921 94.2 46.7438 94.2V96.2ZM46.3597 95.96C46.251 95.8151 46.2558 95.6946 46.2558 95.712H48.2558C48.2558 95.4307 48.1965 95.0756 47.9598 94.76L46.3597 95.96ZM46.2558 95.712V97.504H48.2558V95.712H46.2558ZM46.2558 97.504C46.2558 97.5487 46.2516 97.552 46.2574 97.5271C46.2628 97.5037 46.2851 97.4195 46.3597 97.32L47.9598 98.52C48.2221 98.1702 48.2558 97.7601 48.2558 97.504H46.2558ZM46.2653 97.4728C46.4174 97.1686 46.6724 97.0778 46.7297 97.0602C46.7959 97.0398 46.8148 97.048 46.7438 97.048V99.048C46.9073 99.048 47.1129 99.0348 47.3178 98.9718C47.5137 98.9115 47.8594 98.7567 48.0542 98.3672L46.2653 97.4728ZM46.7438 97.048H43.3198V99.048H46.7438V97.048ZM42.3198 98.048V107.328H44.3198V98.048H42.3198ZM42.3198 107.328C42.3198 108.116 42.4973 108.975 43.1751 109.517L44.4244 107.955C44.4418 107.969 44.4178 107.962 44.3863 107.869C44.3522 107.769 44.3198 107.598 44.3198 107.328H42.3198ZM43.1751 109.517C43.7523 109.979 44.5129 110.12 45.2718 110.12V108.12C44.7079 108.12 44.4872 108.005 44.4244 107.955L43.1751 109.517ZM45.2718 110.12C45.272 110.12 45.2723 110.12 45.2725 110.12C45.2728 110.12 45.273 110.12 45.2733 110.12C45.2735 110.12 45.2738 110.12 45.274 110.12C45.2743 110.12 45.2745 110.12 45.2748 110.12C45.275 110.12 45.2753 110.12 45.2755 110.12C45.2758 110.12 45.276 110.12 45.2763 110.12C45.2765 110.12 45.2768 110.12 45.277 110.12C45.2773 110.12 45.2775 110.12 45.2778 110.12C45.278 110.12 45.2783 110.12 45.2785 110.12C45.2788 110.12 45.279 110.12 45.2793 110.12C45.2796 110.12 45.2798 110.12 45.2801 110.12C45.2803 110.12 45.2806 110.12 45.2808 110.12C45.2811 110.12 45.2813 110.12 45.2816 110.12C45.2818 110.12 45.2821 110.12 45.2823 110.12C45.2826 110.12 45.2829 110.12 45.2831 110.12C45.2834 110.12 45.2836 110.12 45.2839 110.12C45.2841 110.12 45.2844 110.12 45.2846 110.12C45.2849 110.12 45.2852 110.12 45.2854 110.12C45.2857 110.12 45.2859 110.12 45.2862 110.12C45.2864 110.12 45.2867 110.12 45.2869 110.12C45.2872 110.12 45.2875 110.12 45.2877 110.12C45.288 110.12 45.2882 110.12 45.2885 110.12C45.2887 110.12 45.289 110.12 45.2893 110.12C45.2895 110.12 45.2898 110.12 45.29 110.12C45.2903 110.12 45.2905 110.12 45.2908 110.12C45.2911 110.12 45.2913 110.12 45.2916 110.12C45.2918 110.12 45.2921 110.12 45.2924 110.12C45.2926 110.12 45.2929 110.12 45.2931 110.12C45.2934 110.12 45.2937 110.12 45.2939 110.12C45.2942 110.12 45.2944 110.12 45.2947 110.12C45.2949 110.12 45.2952 110.12 45.2955 110.12C45.2957 110.12 45.296 110.12 45.2963 110.12C45.2965 110.12 45.2968 110.12 45.297 110.12C45.2973 110.12 45.2976 110.12 45.2978 110.12C45.2981 110.12 45.2983 110.12 45.2986 110.12C45.2989 110.12 45.2991 110.12 45.2994 110.12C45.2996 110.12 45.2999 110.12 45.3002 110.12C45.3004 110.12 45.3007 110.12 45.301 110.12C45.3012 110.12 45.3015 110.12 45.3017 110.12C45.302 110.12 45.3023 110.12 45.3025 110.12C45.3028 110.12 45.3031 110.12 45.3033 110.12C45.3036 110.12 45.3038 110.12 45.3041 110.12C45.3044 110.12 45.3046 110.12 45.3049 110.12C45.3052 110.12 45.3054 110.12 45.3057 110.12C45.306 110.12 45.3062 110.12 45.3065 110.12C45.3068 110.12 45.307 110.12 45.3073 110.12C45.3075 110.12 45.3078 110.12 45.3081 110.12C45.3083 110.12 45.3086 110.12 45.3089 110.12C45.3091 110.12 45.3094 110.12 45.3097 110.12C45.3099 110.12 45.3102 110.12 45.3105 110.12C45.3107 110.12 45.311 110.12 45.3113 110.12C45.3115 110.12 45.3118 110.12 45.3121 110.12C45.3123 110.12 45.3126 110.12 45.3129 110.12C45.3131 110.12 45.3134 110.12 45.3137 110.12C45.3139 110.12 45.3142 110.12 45.3145 110.12C45.3147 110.12 45.315 110.12 45.3153 110.12C45.3156 110.12 45.3158 110.12 45.3161 110.12C45.3164 110.12 45.3166 110.12 45.3169 110.12C45.3172 110.12 45.3174 110.12 45.3177 110.12C45.318 110.12 45.3182 110.12 45.3185 110.12C45.3188 110.12 45.319 110.12 45.3193 110.12C45.3196 110.12 45.3199 110.12 45.3201 110.12C45.3204 110.12 45.3207 110.12 45.3209 110.12C45.3212 110.12 45.3215 110.12 45.3218 110.12C45.322 110.12 45.3223 110.12 45.3226 110.12C45.3228 110.12 45.3231 110.12 45.3234 110.12C45.3236 110.12 45.3239 110.12 45.3242 110.12C45.3245 110.12 45.3247 110.12 45.325 110.12C45.3253 110.12 45.3256 110.12 45.3258 110.12C45.3261 110.12 45.3264 110.12 45.3266 110.12C45.3269 110.12 45.3272 110.12 45.3275 110.12C45.3277 110.12 45.328 110.12 45.3283 110.12C45.3286 110.12 45.3288 110.12 45.3291 110.12C45.3294 110.12 45.3297 110.12 45.3299 110.12C45.3302 110.12 45.3305 110.12 45.3307 110.12C45.331 110.12 45.3313 110.12 45.3316 110.12C45.3318 110.12 45.3321 110.12 45.3324 110.12C45.3327 110.12 45.3329 110.12 45.3332 110.12C45.3335 110.12 45.3338 110.12 45.334 110.12C45.3343 110.12 45.3346 110.12 45.3349 110.12C45.3352 110.12 45.3354 110.12 45.3357 110.12C45.336 110.12 45.3363 110.12 45.3365 110.12C45.3368 110.12 45.3371 110.12 45.3374 110.12C45.3376 110.12 45.3379 110.12 45.3382 110.12C45.3385 110.12 45.3388 110.12 45.339 110.12C45.3393 110.12 45.3396 110.12 45.3399 110.12C45.3401 110.12 45.3404 110.12 45.3407 110.12C45.341 110.12 45.3413 110.12 45.3415 110.12C45.3418 110.12 45.3421 110.12 45.3424 110.12C45.3426 110.12 45.3429 110.12 45.3432 110.12C45.3435 110.12 45.3438 110.12 45.344 110.12C45.3443 110.12 45.3446 110.12 45.3449 110.12C45.3452 110.12 45.3454 110.12 45.3457 110.12C45.346 110.12 45.3463 110.12 45.3466 110.12C45.3468 110.12 45.3471 110.12 45.3474 110.12C45.3477 110.12 45.348 110.12 45.3483 110.12C45.3485 110.12 45.3488 110.12 45.3491 110.12C45.3494 110.12 45.3497 110.12 45.3499 110.12C45.3502 110.12 45.3505 110.12 45.3508 110.12C45.3511 110.12 45.3514 110.12 45.3516 110.12C45.3519 110.12 45.3522 110.12 45.3525 110.12C45.3528 110.12 45.353 110.12 45.3533 110.12C45.3536 110.12 45.3539 110.12 45.3542 110.12C45.3545 110.12 45.3547 110.12 45.355 110.12C45.3553 110.12 45.3556 110.12 45.3559 110.12C45.3562 110.12 45.3565 110.12 45.3567 110.12C45.357 110.12 45.3573 110.12 45.3576 110.12C45.3579 110.12 45.3582 110.12 45.3584 110.12C45.3587 110.12 45.359 110.12 45.3593 110.12C45.3596 110.12 45.3599 110.12 45.3602 110.12C45.3604 110.12 45.3607 110.12 45.361 110.12C45.3613 110.12 45.3616 110.12 45.3619 110.12C45.3622 110.12 45.3624 110.12 45.3627 110.12C45.363 110.12 45.3633 110.12 45.3636 110.12C45.3639 110.12 45.3642 110.12 45.3645 110.12C45.3647 110.12 45.365 110.12 45.3653 110.12C45.3656 110.12 45.3659 110.12 45.3662 110.12C45.3665 110.12 45.3668 110.12 45.367 110.12C45.3673 110.12 45.3676 110.12 45.3679 110.12C45.3682 110.12 45.3685 110.12 45.3688 110.12C45.3691 110.12 45.3694 110.12 45.3696 110.12C45.3699 110.12 45.3702 110.12 45.3705 110.12C45.3708 110.12 45.3711 110.12 45.3714 110.12C45.3717 110.12 45.372 110.12 45.3723 110.12C45.3725 110.12 45.3728 110.12 45.3731 110.12C45.3734 110.12 45.3737 110.12 45.374 110.12C45.3743 110.12 45.3746 110.12 45.3749 110.12C45.3752 110.12 45.3755 110.12 45.3758 110.12C45.376 110.12 45.3763 110.12 45.3766 110.12C45.3769 110.12 45.3772 110.12 45.3775 110.12C45.3778 110.12 45.3781 110.12 45.3784 110.12C45.3787 110.12 45.379 110.12 45.3793 110.12C45.3796 110.12 45.3798 110.12 45.3801 110.12C45.3804 110.12 45.3807 110.12 45.381 110.12C45.3813 110.12 45.3816 110.12 45.3819 110.12C45.3822 110.12 45.3825 110.12 45.3828 110.12C45.3831 110.12 45.3834 110.12 45.3837 110.12C45.384 110.12 45.3843 110.12 45.3845 110.12C45.3848 110.12 45.3851 110.12 45.3854 110.12C45.3857 110.12 45.386 110.12 45.3863 110.12C45.3866 110.12 45.3869 110.12 45.3872 110.12C45.3875 110.12 45.3878 110.12 45.3881 110.12C45.3884 110.12 45.3887 110.12 45.389 110.12C45.3893 110.12 45.3896 110.12 45.3899 110.12C45.3902 110.12 45.3905 110.12 45.3908 110.12C45.3911 110.12 45.3914 110.12 45.3917 110.12C45.392 110.12 45.3923 110.12 45.3926 110.12C45.3928 110.12 45.3931 110.12 45.3934 110.12C45.3937 110.12 45.394 110.12 45.3943 110.12C45.3946 110.12 45.3949 110.12 45.3952 110.12C45.3955 110.12 45.3958 110.12 45.3961 110.12C45.3964 110.12 45.3967 110.12 45.397 110.12C45.3973 110.12 45.3976 110.12 45.3979 110.12C45.3982 110.12 45.3985 110.12 45.3988 110.12C45.3991 110.12 45.3994 110.12 45.3997 110.12C45.4 110.12 45.4003 110.12 45.4006 110.12C45.4009 110.12 45.4012 110.12 45.4015 110.12C45.4018 110.12 45.4021 110.12 45.4024 110.12C45.4027 110.12 45.403 110.12 45.4033 110.12C45.4036 110.12 45.4039 110.12 45.4043 110.12C45.4046 110.12 45.4049 110.12 45.4052 110.12C45.4055 110.12 45.4058 110.12 45.4061 110.12C45.4064 110.12 45.4067 110.12 45.407 110.12C45.4073 110.12 45.4076 110.12 45.4079 110.12C45.4082 110.12 45.4085 110.12 45.4088 110.12C45.4091 110.12 45.4094 110.12 45.4097 110.12C45.41 110.12 45.4103 110.12 45.4106 110.12C45.4109 110.12 45.4112 110.12 45.4115 110.12C45.4118 110.12 45.4121 110.12 45.4124 110.12C45.4128 110.12 45.4131 110.12 45.4134 110.12C45.4137 110.12 45.414 110.12 45.4143 110.12C45.4146 110.12 45.4149 110.12 45.4152 110.12C45.4155 110.12 45.4158 110.12 45.4161 110.12C45.4164 110.12 45.4167 110.12 45.417 110.12C45.4173 110.12 45.4176 110.12 45.418 110.12C45.4183 110.12 45.4186 110.12 45.4189 110.12C45.4192 110.12 45.4195 110.12 45.4198 110.12C45.4201 110.12 45.4204 110.12 45.4207 110.12C45.421 110.12 45.4213 110.12 45.4216 110.12C45.422 110.12 45.4223 110.12 45.4226 110.12C45.4229 110.12 45.4232 110.12 45.4235 110.12C45.4238 110.12 45.4241 110.12 45.4244 110.12C45.4247 110.12 45.425 110.12 45.4254 110.12C45.4257 110.12 45.426 110.12 45.4263 110.12C45.4266 110.12 45.4269 110.12 45.4272 110.12C45.4275 110.12 45.4278 110.12 45.4281 110.12C45.4285 110.12 45.4288 110.12 45.4291 110.12C45.4294 110.12 45.4297 110.12 45.43 110.12C45.4303 110.12 45.4306 110.12 45.4309 110.12C45.4313 110.12 45.4316 110.12 45.4319 110.12C45.4322 110.12 45.4325 110.12 45.4328 110.12C45.4331 110.12 45.4334 110.12 45.4338 110.12C45.4341 110.12 45.4344 110.12 45.4347 110.12C45.435 110.12 45.4353 110.12 45.4356 110.12C45.4359 110.12 45.4363 110.12 45.4366 110.12C45.4369 110.12 45.4372 110.12 45.4375 110.12C45.4378 110.12 45.4381 110.12 45.4385 110.12C45.4388 110.12 45.4391 110.12 45.4394 110.12C45.4397 110.12 45.44 110.12 45.4403 110.12C45.4407 110.12 45.441 110.12 45.4413 110.12C45.4416 110.12 45.4419 110.12 45.4422 110.12C45.4425 110.12 45.4429 110.12 45.4432 110.12C45.4435 110.12 45.4438 110.12 45.4441 110.12C45.4444 110.12 45.4448 110.12 45.4451 110.12C45.4454 110.12 45.4457 110.12 45.446 110.12C45.4463 110.12 45.4467 110.12 45.447 110.12C45.4473 110.12 45.4476 110.12 45.4479 110.12C45.4482 110.12 45.4486 110.12 45.4489 110.12C45.4492 110.12 45.4495 110.12 45.4498 110.12C45.4501 110.12 45.4505 110.12 45.4508 110.12C45.4511 110.12 45.4514 110.12 45.4517 110.12C45.4521 110.12 45.4524 110.12 45.4527 110.12C45.453 110.12 45.4533 110.12 45.4537 110.12C45.454 110.12 45.4543 110.12 45.4546 110.12C45.4549 110.12 45.4553 110.12 45.4556 110.12C45.4559 110.12 45.4562 110.12 45.4565 110.12C45.4569 110.12 45.4572 110.12 45.4575 110.12C45.4578 110.12 45.4581 110.12 45.4585 110.12C45.4588 110.12 45.4591 110.12 45.4594 110.12C45.4597 110.12 45.4601 110.12 45.4604 110.12C45.4607 110.12 45.461 110.12 45.4613 110.12C45.4617 110.12 45.462 110.12 45.4623 110.12C45.4626 110.12 45.463 110.12 45.4633 110.12C45.4636 110.12 45.4639 110.12 45.4643 110.12C45.4646 110.12 45.4649 110.12 45.4652 110.12C45.4655 110.12 45.4659 110.12 45.4662 110.12C45.4665 110.12 45.4668 110.12 45.4672 110.12C45.4675 110.12 45.4678 110.12 45.4681 110.12C45.4685 110.12 45.4688 110.12 45.4691 110.12C45.4694 110.12 45.4698 110.12 45.4701 110.12C45.4704 110.12 45.4707 110.12 45.4711 110.12C45.4714 110.12 45.4717 110.12 45.472 110.12C45.4724 110.12 45.4727 110.12 45.473 110.12C45.4733 110.12 45.4737 110.12 45.474 110.12C45.4743 110.12 45.4746 110.12 45.475 110.12C45.4753 110.12 45.4756 110.12 45.4759 110.12C45.4763 110.12 45.4766 110.12 45.4769 110.12C45.4773 110.12 45.4776 110.12 45.4779 110.12C45.4782 110.12 45.4786 110.12 45.4789 110.12C45.4792 110.12 45.4795 110.12 45.4799 110.12C45.4802 110.12 45.4805 110.12 45.4809 110.12C45.4812 110.12 45.4815 110.12 45.4818 110.12C45.4822 110.12 45.4825 110.12 45.4828 110.12C45.4832 110.12 45.4835 110.12 45.4838 110.12C45.4842 110.12 45.4845 110.12 45.4848 110.12C45.4851 110.12 45.4855 110.12 45.4858 110.12C45.4861 110.12 45.4865 110.12 45.4868 110.12C45.4871 110.12 45.4875 110.12 45.4878 110.12C45.4881 110.12 45.4884 110.12 45.4888 110.12C45.4891 110.12 45.4894 110.12 45.4898 110.12C45.4901 110.12 45.4904 110.12 45.4908 110.12C45.4911 110.12 45.4914 110.12 45.4918 110.12C45.4921 110.12 45.4924 110.12 45.4928 110.12C45.4931 110.12 45.4934 110.12 45.4938 110.12C45.4941 110.12 45.4944 110.12 45.4948 110.12C45.4951 110.12 45.4954 110.12 45.4958 110.12C45.4961 110.12 45.4964 110.12 45.4968 110.12C45.4971 110.12 45.4974 110.12 45.4978 110.12C45.4981 110.12 45.4984 110.12 45.4988 110.12C45.4991 110.12 45.4994 110.12 45.4998 110.12C45.5001 110.12 45.5004 110.12 45.5008 110.12C45.5011 110.12 45.5014 110.12 45.5018 110.12C45.5021 110.12 45.5024 110.12 45.5028 110.12C45.5031 110.12 45.5034 110.12 45.5038 110.12C45.5041 110.12 45.5045 110.12 45.5048 110.12C45.5051 110.12 45.5055 110.12 45.5058 110.12C45.5061 110.12 45.5065 110.12 45.5068 110.12C45.5071 110.12 45.5075 110.12 45.5078 110.12C45.5082 110.12 45.5085 110.12 45.5088 110.12C45.5092 110.12 45.5095 110.12 45.5098 110.12C45.5102 110.12 45.5105 110.12 45.5109 110.12C45.5112 110.12 45.5115 110.12 45.5119 110.12C45.5122 110.12 45.5126 110.12 45.5129 110.12C45.5132 110.12 45.5136 110.12 45.5139 110.12C45.5142 110.12 45.5146 110.12 45.5149 110.12C45.5153 110.12 45.5156 110.12 45.5159 110.12C45.5163 110.12 45.5166 110.12 45.517 110.12C45.5173 110.12 45.5176 110.12 45.518 110.12C45.5183 110.12 45.5187 110.12 45.519 110.12C45.5193 110.12 45.5197 110.12 45.52 110.12C45.5204 110.12 45.5207 110.12 45.5211 110.12C45.5214 110.12 45.5217 110.12 45.5221 110.12C45.5224 110.12 45.5228 110.12 45.5231 110.12C45.5234 110.12 45.5238 110.12 45.5241 110.12C45.5245 110.12 45.5248 110.12 45.5252 110.12C45.5255 110.12 45.5258 110.12 45.5262 110.12C45.5265 110.12 45.5269 110.12 45.5272 110.12C45.5276 110.12 45.5279 110.12 45.5283 110.12C45.5286 110.12 45.5289 110.12 45.5293 110.12C45.5296 110.12 45.53 110.12 45.5303 110.12C45.5307 110.12 45.531 110.12 45.5313 110.12C45.5317 110.12 45.532 110.12 45.5324 110.12C45.5327 110.12 45.5331 110.12 45.5334 110.12C45.5338 110.12 45.5341 110.12 45.5345 110.12C45.5348 110.12 45.5351 110.12 45.5355 110.12C45.5358 110.12 45.5362 110.12 45.5365 110.12C45.5369 110.12 45.5372 110.12 45.5376 110.12C45.5379 110.12 45.5383 110.12 45.5386 110.12C45.539 110.12 45.5393 110.12 45.5397 110.12C45.54 110.12 45.5403 110.12 45.5407 110.12C45.541 110.12 45.5414 110.12 45.5417 110.12C45.5421 110.12 45.5424 110.12 45.5428 110.12C45.5431 110.12 45.5435 110.12 45.5438 110.12C45.5442 110.12 45.5445 110.12 45.5449 110.12C45.5452 110.12 45.5456 110.12 45.5459 110.12C45.5463 110.12 45.5466 110.12 45.547 110.12C45.5473 110.12 45.5477 110.12 45.548 110.12C45.5484 110.12 45.5487 110.12 45.5491 110.12C45.5494 110.12 45.5498 110.12 45.5501 110.12C45.5505 110.12 45.5508 110.12 45.5512 110.12C45.5515 110.12 45.5519 110.12 45.5522 110.12C45.5526 110.12 45.5529 110.12 45.5533 110.12C45.5536 110.12 45.554 110.12 45.5543 110.12C45.5547 110.12 45.555 110.12 45.5554 110.12C45.5557 110.12 45.5561 110.12 45.5565 110.12C45.5568 110.12 45.5572 110.12 45.5575 110.12C45.5579 110.12 45.5582 110.12 45.5586 110.12C45.5589 110.12 45.5593 110.12 45.5596 110.12C45.56 110.12 45.5603 110.12 45.5607 110.12C45.561 110.12 45.5614 110.12 45.5618 110.12C45.5621 110.12 45.5625 110.12 45.5628 110.12C45.5632 110.12 45.5635 110.12 45.5639 110.12C45.5642 110.12 45.5646 110.12 45.5649 110.12C45.5653 110.12 45.5657 110.12 45.566 110.12C45.5664 110.12 45.5667 110.12 45.5671 110.12C45.5674 110.12 45.5678 110.12 45.5681 110.12C45.5685 110.12 45.5689 110.12 45.5692 110.12C45.5696 110.12 45.5699 110.12 45.5703 110.12C45.5706 110.12 45.571 110.12 45.5714 110.12C45.5717 110.12 45.5721 110.12 45.5724 110.12C45.5728 110.12 45.5731 110.12 45.5735 110.12C45.5739 110.12 45.5742 110.12 45.5746 110.12C45.5749 110.12 45.5753 110.12 45.5756 110.12C45.576 110.12 45.5764 110.12 45.5767 110.12C45.5771 110.12 45.5774 110.12 45.5778 110.12C45.5782 110.12 45.5785 110.12 45.5789 110.12C45.5792 110.12 45.5796 110.12 45.58 110.12C45.5803 110.12 45.5807 110.12 45.581 110.12C45.5814 110.12 45.5818 110.12 45.5821 110.12C45.5825 110.12 45.5828 110.12 45.5832 110.12C45.5836 110.12 45.5839 110.12 45.5843 110.12C45.5846 110.12 45.585 110.12 45.5854 110.12C45.5857 110.12 45.5861 110.12 45.5864 110.12C45.5868 110.12 45.5872 110.12 45.5875 110.12C45.5879 110.12 45.5883 110.12 45.5886 110.12C45.589 110.12 45.5893 110.12 45.5897 110.12C45.5901 110.12 45.5904 110.12 45.5908 110.12C45.5912 110.12 45.5915 110.12 45.5919 110.12C45.5922 110.12 45.5926 110.12 45.593 110.12C45.5933 110.12 45.5937 110.12 45.5941 110.12C45.5944 110.12 45.5948 110.12 45.5952 110.12C45.5955 110.12 45.5959 110.12 45.5963 110.12C45.5966 110.12 45.597 110.12 45.5973 110.12C45.5977 110.12 45.5981 110.12 45.5984 110.12C45.5988 110.12 45.5992 110.12 45.5995 110.12C45.5999 110.12 45.6003 110.12 45.6006 110.12C45.601 110.12 45.6014 110.12 45.6017 110.12C45.6021 110.12 45.6025 110.12 45.6028 110.12C45.6032 110.12 45.6036 110.12 45.6039 110.12C45.6043 110.12 45.6047 110.12 45.605 110.12C45.6054 110.12 45.6058 110.12 45.6061 110.12C45.6065 110.12 45.6069 110.12 45.6072 110.12C45.6076 110.12 45.608 110.12 45.6083 110.12C45.6087 110.12 45.6091 110.12 45.6094 110.12C45.6098 110.12 45.6102 110.12 45.6106 110.12C45.6109 110.12 45.6113 110.12 45.6117 110.12C45.612 110.12 45.6124 110.12 45.6128 110.12C45.6131 110.12 45.6135 110.12 45.6139 110.12C45.6142 110.12 45.6146 110.12 45.615 110.12C45.6154 110.12 45.6157 110.12 45.6161 110.12C45.6165 110.12 45.6168 110.12 45.6172 110.12C45.6176 110.12 45.6179 110.12 45.6183 110.12C45.6187 110.12 45.6191 110.12 45.6194 110.12C45.6198 110.12 45.6202 110.12 45.6205 110.12C45.6209 110.12 45.6213 110.12 45.6217 110.12C45.622 110.12 45.6224 110.12 45.6228 110.12C45.6232 110.12 45.6235 110.12 45.6239 110.12C45.6243 110.12 45.6246 110.12 45.625 110.12C45.6254 110.12 45.6258 110.12 45.6261 110.12C45.6265 110.12 45.6269 110.12 45.6273 110.12C45.6276 110.12 45.628 110.12 45.6284 110.12C45.6288 110.12 45.6291 110.12 45.6295 110.12C45.6299 110.12 45.6303 110.12 45.6306 110.12C45.631 110.12 45.6314 110.12 45.6318 110.12C45.6321 110.12 45.6325 110.12 45.6329 110.12C45.6333 110.12 45.6336 110.12 45.634 110.12C45.6344 110.12 45.6348 110.12 45.6351 110.12C45.6355 110.12 45.6359 110.12 45.6363 110.12C45.6366 110.12 45.637 110.12 45.6374 110.12C45.6378 110.12 45.6381 110.12 45.6385 110.12C45.6389 110.12 45.6393 110.12 45.6396 110.12C45.64 110.12 45.6404 110.12 45.6408 110.12C45.6412 110.12 45.6415 110.12 45.6419 110.12C45.6423 110.12 45.6427 110.12 45.643 110.12C45.6434 110.12 45.6438 110.12 45.6442 110.12C45.6446 110.12 45.6449 110.12 45.6453 110.12C45.6457 110.12 45.6461 110.12 45.6465 110.12C45.6468 110.12 45.6472 110.12 45.6476 110.12C45.648 110.12 45.6484 110.12 45.6487 110.12C45.6491 110.12 45.6495 110.12 45.6499 110.12C45.6503 110.12 45.6506 110.12 45.651 110.12C45.6514 110.12 45.6518 110.12 45.6522 110.12C45.6525 110.12 45.6529 110.12 45.6533 110.12C45.6537 110.12 45.6541 110.12 45.6544 110.12C45.6548 110.12 45.6552 110.12 45.6556 110.12C45.656 110.12 45.6564 110.12 45.6567 110.12C45.6571 110.12 45.6575 110.12 45.6579 110.12C45.6583 110.12 45.6586 110.12 45.659 110.12C45.6594 110.12 45.6598 110.12 45.6602 110.12C45.6606 110.12 45.6609 110.12 45.6613 110.12C45.6617 110.12 45.6621 110.12 45.6625 110.12C45.6629 110.12 45.6632 110.12 45.6636 110.12C45.664 110.12 45.6644 110.12 45.6648 110.12C45.6652 110.12 45.6656 110.12 45.6659 110.12C45.6663 110.12 45.6667 110.12 45.6671 110.12C45.6675 110.12 45.6679 110.12 45.6683 110.12C45.6686 110.12 45.669 110.12 45.6694 110.12C45.6698 110.12 45.6702 110.12 45.6706 110.12C45.671 110.12 45.6713 110.12 45.6717 110.12C45.6721 110.12 45.6725 110.12 45.6729 110.12C45.6733 110.12 45.6737 110.12 45.674 110.12C45.6744 110.12 45.6748 110.12 45.6752 110.12C45.6756 110.12 45.676 110.12 45.6764 110.12C45.6768 110.12 45.6771 110.12 45.6775 110.12C45.6779 110.12 45.6783 110.12 45.6787 110.12C45.6791 110.12 45.6795 110.12 45.6799 110.12C45.6803 110.12 45.6806 110.12 45.681 110.12C45.6814 110.12 45.6818 110.12 45.6822 110.12C45.6826 110.12 45.683 110.12 45.6834 110.12C45.6838 110.12 45.6841 110.12 45.6845 110.12C45.6849 110.12 45.6853 110.12 45.6857 110.12C45.6861 110.12 45.6865 110.12 45.6869 110.12C45.6873 110.12 45.6877 110.12 45.688 110.12C45.6884 110.12 45.6888 110.12 45.6892 110.12C45.6896 110.12 45.69 110.12 45.6904 110.12C45.6908 110.12 45.6912 110.12 45.6916 110.12C45.692 110.12 45.6924 110.12 45.6927 110.12C45.6931 110.12 45.6935 110.12 45.6939 110.12C45.6943 110.12 45.6947 110.12 45.6951 110.12C45.6955 110.12 45.6959 110.12 45.6963 110.12C45.6967 110.12 45.6971 110.12 45.6975 110.12C45.6979 110.12 45.6982 110.12 45.6986 110.12C45.699 110.12 45.6994 110.12 45.6998 110.12C45.7002 110.12 45.7006 110.12 45.701 110.12C45.7014 110.12 45.7018 110.12 45.7022 110.12C45.7026 110.12 45.703 110.12 45.7034 110.12C45.7038 110.12 45.7042 110.12 45.7046 110.12C45.705 110.12 45.7054 110.12 45.7058 110.12C45.7061 110.12 45.7065 110.12 45.7069 110.12C45.7073 110.12 45.7077 110.12 45.7081 110.12C45.7085 110.12 45.7089 110.12 45.7093 110.12C45.7097 110.12 45.7101 110.12 45.7105 110.12C45.7109 110.12 45.7113 110.12 45.7117 110.12C45.7121 110.12 45.7125 110.12 45.7129 110.12C45.7133 110.12 45.7137 110.12 45.7141 110.12C45.7145 110.12 45.7149 110.12 45.7153 110.12C45.7157 110.12 45.7161 110.12 45.7165 110.12C45.7169 110.12 45.7173 110.12 45.7177 110.12C45.7181 110.12 45.7185 110.12 45.7189 110.12C45.7193 110.12 45.7197 110.12 45.7201 110.12C45.7205 110.12 45.7209 110.12 45.7213 110.12C45.7217 110.12 45.7221 110.12 45.7225 110.12C45.7229 110.12 45.7233 110.12 45.7237 110.12C45.7241 110.12 45.7245 110.12 45.7249 110.12C45.7253 110.12 45.7257 110.12 45.7261 110.12C45.7265 110.12 45.7269 110.12 45.7273 110.12C45.7277 110.12 45.7281 110.12 45.7285 110.12C45.7289 110.12 45.7293 110.12 45.7297 110.12C45.7301 110.12 45.7305 110.12 45.7309 110.12C45.7313 110.12 45.7317 110.12 45.7321 110.12C45.7325 110.12 45.7329 110.12 45.7333 110.12C45.7337 110.12 45.7341 110.12 45.7345 110.12C45.7349 110.12 45.7353 110.12 45.7357 110.12C45.7361 110.12 45.7366 110.12 45.737 110.12C45.7374 110.12 45.7378 110.12 45.7382 110.12C45.7386 110.12 45.739 110.12 45.7394 110.12C45.7398 110.12 45.7402 110.12 45.7406 110.12C45.741 110.12 45.7414 110.12 45.7418 110.12C45.7422 110.12 45.7426 110.12 45.743 110.12C45.7434 110.12 45.7438 110.12 45.7443 110.12C45.7447 110.12 45.7451 110.12 45.7455 110.12C45.7459 110.12 45.7463 110.12 45.7467 110.12C45.7471 110.12 45.7475 110.12 45.7479 110.12C45.7483 110.12 45.7487 110.12 45.7491 110.12C45.7495 110.12 45.7499 110.12 45.7504 110.12C45.7508 110.12 45.7512 110.12 45.7516 110.12C45.752 110.12 45.7524 110.12 45.7528 110.12C45.7532 110.12 45.7536 110.12 45.754 110.12C45.7544 110.12 45.7548 110.12 45.7553 110.12C45.7557 110.12 45.7561 110.12 45.7565 110.12C45.7569 110.12 45.7573 110.12 45.7577 110.12C45.7581 110.12 45.7585 110.12 45.7589 110.12C45.7594 110.12 45.7598 110.12 45.7602 110.12C45.7606 110.12 45.761 110.12 45.7614 110.12C45.7618 110.12 45.7622 110.12 45.7626 110.12C45.7631 110.12 45.7635 110.12 45.7639 110.12C45.7643 110.12 45.7647 110.12 45.7651 110.12C45.7655 110.12 45.7659 110.12 45.7663 110.12C45.7668 110.12 45.7672 110.12 45.7676 110.12C45.768 110.12 45.7684 110.12 45.7688 110.12C45.7692 110.12 45.7696 110.12 45.7701 110.12C45.7705 110.12 45.7709 110.12 45.7713 110.12C45.7717 110.12 45.7721 110.12 45.7725 110.12C45.773 110.12 45.7734 110.12 45.7738 110.12C45.7742 110.12 45.7746 110.12 45.775 110.12C45.7754 110.12 45.7759 110.12 45.7763 110.12C45.7767 110.12 45.7771 110.12 45.7775 110.12C45.7779 110.12 45.7783 110.12 45.7788 110.12C45.7792 110.12 45.7796 110.12 45.78 110.12C45.7804 110.12 45.7808 110.12 45.7813 110.12C45.7817 110.12 45.7821 110.12 45.7825 110.12C45.7829 110.12 45.7833 110.12 45.7838 110.12V108.12C45.7833 108.12 45.7829 108.12 45.7825 108.12C45.7821 108.12 45.7817 108.12 45.7813 108.12C45.7808 108.12 45.7804 108.12 45.78 108.12C45.7796 108.12 45.7792 108.12 45.7788 108.12C45.7783 108.12 45.7779 108.12 45.7775 108.12C45.7771 108.12 45.7767 108.12 45.7763 108.12C45.7759 108.12 45.7754 108.12 45.775 108.12C45.7746 108.12 45.7742 108.12 45.7738 108.12C45.7734 108.12 45.773 108.12 45.7725 108.12C45.7721 108.12 45.7717 108.12 45.7713 108.12C45.7709 108.12 45.7705 108.12 45.7701 108.12C45.7696 108.12 45.7692 108.12 45.7688 108.12C45.7684 108.12 45.768 108.12 45.7676 108.12C45.7672 108.12 45.7668 108.12 45.7663 108.12C45.7659 108.12 45.7655 108.12 45.7651 108.12C45.7647 108.12 45.7643 108.12 45.7639 108.12C45.7635 108.12 45.7631 108.12 45.7626 108.12C45.7622 108.12 45.7618 108.12 45.7614 108.12C45.761 108.12 45.7606 108.12 45.7602 108.12C45.7598 108.12 45.7594 108.12 45.7589 108.12C45.7585 108.12 45.7581 108.12 45.7577 108.12C45.7573 108.12 45.7569 108.12 45.7565 108.12C45.7561 108.12 45.7557 108.12 45.7553 108.12C45.7548 108.12 45.7544 108.12 45.754 108.12C45.7536 108.12 45.7532 108.12 45.7528 108.12C45.7524 108.12 45.752 108.12 45.7516 108.12C45.7512 108.12 45.7508 108.12 45.7504 108.12C45.7499 108.12 45.7495 108.12 45.7491 108.12C45.7487 108.12 45.7483 108.12 45.7479 108.12C45.7475 108.12 45.7471 108.12 45.7467 108.12C45.7463 108.12 45.7459 108.12 45.7455 108.12C45.7451 108.12 45.7447 108.12 45.7443 108.12C45.7438 108.12 45.7434 108.12 45.743 108.12C45.7426 108.12 45.7422 108.12 45.7418 108.12C45.7414 108.12 45.741 108.12 45.7406 108.12C45.7402 108.12 45.7398 108.12 45.7394 108.12C45.739 108.12 45.7386 108.12 45.7382 108.12C45.7378 108.12 45.7374 108.12 45.737 108.12C45.7366 108.12 45.7361 108.12 45.7357 108.12C45.7353 108.12 45.7349 108.12 45.7345 108.12C45.7341 108.12 45.7337 108.12 45.7333 108.12C45.7329 108.12 45.7325 108.12 45.7321 108.12C45.7317 108.12 45.7313 108.12 45.7309 108.12C45.7305 108.12 45.7301 108.12 45.7297 108.12C45.7293 108.12 45.7289 108.12 45.7285 108.12C45.7281 108.12 45.7277 108.12 45.7273 108.12C45.7269 108.12 45.7265 108.12 45.7261 108.12C45.7257 108.12 45.7253 108.12 45.7249 108.12C45.7245 108.12 45.7241 108.12 45.7237 108.12C45.7233 108.12 45.7229 108.12 45.7225 108.12C45.7221 108.12 45.7217 108.12 45.7213 108.12C45.7209 108.12 45.7205 108.12 45.7201 108.12C45.7197 108.12 45.7193 108.12 45.7189 108.12C45.7185 108.12 45.7181 108.12 45.7177 108.12C45.7173 108.12 45.7169 108.12 45.7165 108.12C45.7161 108.12 45.7157 108.12 45.7153 108.12C45.7149 108.12 45.7145 108.12 45.7141 108.12C45.7137 108.12 45.7133 108.12 45.7129 108.12C45.7125 108.12 45.7121 108.12 45.7117 108.12C45.7113 108.12 45.7109 108.12 45.7105 108.12C45.7101 108.12 45.7097 108.12 45.7093 108.12C45.7089 108.12 45.7085 108.12 45.7081 108.12C45.7077 108.12 45.7073 108.12 45.7069 108.12C45.7065 108.12 45.7061 108.12 45.7058 108.12C45.7054 108.12 45.705 108.12 45.7046 108.12C45.7042 108.12 45.7038 108.12 45.7034 108.12C45.703 108.12 45.7026 108.12 45.7022 108.12C45.7018 108.12 45.7014 108.12 45.701 108.12C45.7006 108.12 45.7002 108.12 45.6998 108.12C45.6994 108.12 45.699 108.12 45.6986 108.12C45.6982 108.12 45.6979 108.12 45.6975 108.12C45.6971 108.12 45.6967 108.12 45.6963 108.12C45.6959 108.12 45.6955 108.12 45.6951 108.12C45.6947 108.12 45.6943 108.12 45.6939 108.12C45.6935 108.12 45.6931 108.12 45.6927 108.12C45.6924 108.12 45.692 108.12 45.6916 108.12C45.6912 108.12 45.6908 108.12 45.6904 108.12C45.69 108.12 45.6896 108.12 45.6892 108.12C45.6888 108.12 45.6884 108.12 45.688 108.12C45.6877 108.12 45.6873 108.12 45.6869 108.12C45.6865 108.12 45.6861 108.12 45.6857 108.12C45.6853 108.12 45.6849 108.12 45.6845 108.12C45.6841 108.12 45.6838 108.12 45.6834 108.12C45.683 108.12 45.6826 108.12 45.6822 108.12C45.6818 108.12 45.6814 108.12 45.681 108.12C45.6806 108.12 45.6803 108.12 45.6799 108.12C45.6795 108.12 45.6791 108.12 45.6787 108.12C45.6783 108.12 45.6779 108.12 45.6775 108.12C45.6771 108.12 45.6768 108.12 45.6764 108.12C45.676 108.12 45.6756 108.12 45.6752 108.12C45.6748 108.12 45.6744 108.12 45.674 108.12C45.6737 108.12 45.6733 108.12 45.6729 108.12C45.6725 108.12 45.6721 108.12 45.6717 108.12C45.6713 108.12 45.671 108.12 45.6706 108.12C45.6702 108.12 45.6698 108.12 45.6694 108.12C45.669 108.12 45.6686 108.12 45.6683 108.12C45.6679 108.12 45.6675 108.12 45.6671 108.12C45.6667 108.12 45.6663 108.12 45.6659 108.12C45.6656 108.12 45.6652 108.12 45.6648 108.12C45.6644 108.12 45.664 108.12 45.6636 108.12C45.6632 108.12 45.6629 108.12 45.6625 108.12C45.6621 108.12 45.6617 108.12 45.6613 108.12C45.6609 108.12 45.6606 108.12 45.6602 108.12C45.6598 108.12 45.6594 108.12 45.659 108.12C45.6586 108.12 45.6583 108.12 45.6579 108.12C45.6575 108.12 45.6571 108.12 45.6567 108.12C45.6564 108.12 45.656 108.12 45.6556 108.12C45.6552 108.12 45.6548 108.12 45.6544 108.12C45.6541 108.12 45.6537 108.12 45.6533 108.12C45.6529 108.12 45.6525 108.12 45.6522 108.12C45.6518 108.12 45.6514 108.12 45.651 108.12C45.6506 108.12 45.6503 108.12 45.6499 108.12C45.6495 108.12 45.6491 108.12 45.6487 108.12C45.6484 108.12 45.648 108.12 45.6476 108.12C45.6472 108.12 45.6468 108.12 45.6465 108.12C45.6461 108.12 45.6457 108.12 45.6453 108.12C45.6449 108.12 45.6446 108.12 45.6442 108.12C45.6438 108.12 45.6434 108.12 45.643 108.12C45.6427 108.12 45.6423 108.12 45.6419 108.12C45.6415 108.12 45.6412 108.12 45.6408 108.12C45.6404 108.12 45.64 108.12 45.6396 108.12C45.6393 108.12 45.6389 108.12 45.6385 108.12C45.6381 108.12 45.6378 108.12 45.6374 108.12C45.637 108.12 45.6366 108.12 45.6363 108.12C45.6359 108.12 45.6355 108.12 45.6351 108.12C45.6348 108.12 45.6344 108.12 45.634 108.12C45.6336 108.12 45.6333 108.12 45.6329 108.12C45.6325 108.12 45.6321 108.12 45.6318 108.12C45.6314 108.12 45.631 108.12 45.6306 108.12C45.6303 108.12 45.6299 108.12 45.6295 108.12C45.6291 108.12 45.6288 108.12 45.6284 108.12C45.628 108.12 45.6276 108.12 45.6273 108.12C45.6269 108.12 45.6265 108.12 45.6261 108.12C45.6258 108.12 45.6254 108.12 45.625 108.12C45.6246 108.12 45.6243 108.12 45.6239 108.12C45.6235 108.12 45.6232 108.12 45.6228 108.12C45.6224 108.12 45.622 108.12 45.6217 108.12C45.6213 108.12 45.6209 108.12 45.6205 108.12C45.6202 108.12 45.6198 108.12 45.6194 108.12C45.6191 108.12 45.6187 108.12 45.6183 108.12C45.6179 108.12 45.6176 108.12 45.6172 108.12C45.6168 108.12 45.6165 108.12 45.6161 108.12C45.6157 108.12 45.6154 108.12 45.615 108.12C45.6146 108.12 45.6142 108.12 45.6139 108.12C45.6135 108.12 45.6131 108.12 45.6128 108.12C45.6124 108.12 45.612 108.12 45.6117 108.12C45.6113 108.12 45.6109 108.12 45.6106 108.12C45.6102 108.12 45.6098 108.12 45.6094 108.12C45.6091 108.12 45.6087 108.12 45.6083 108.12C45.608 108.12 45.6076 108.12 45.6072 108.12C45.6069 108.12 45.6065 108.12 45.6061 108.12C45.6058 108.12 45.6054 108.12 45.605 108.12C45.6047 108.12 45.6043 108.12 45.6039 108.12C45.6036 108.12 45.6032 108.12 45.6028 108.12C45.6025 108.12 45.6021 108.12 45.6017 108.12C45.6014 108.12 45.601 108.12 45.6006 108.12C45.6003 108.12 45.5999 108.12 45.5995 108.12C45.5992 108.12 45.5988 108.12 45.5984 108.12C45.5981 108.12 45.5977 108.12 45.5973 108.12C45.597 108.12 45.5966 108.12 45.5963 108.12C45.5959 108.12 45.5955 108.12 45.5952 108.12C45.5948 108.12 45.5944 108.12 45.5941 108.12C45.5937 108.12 45.5933 108.12 45.593 108.12C45.5926 108.12 45.5922 108.12 45.5919 108.12C45.5915 108.12 45.5912 108.12 45.5908 108.12C45.5904 108.12 45.5901 108.12 45.5897 108.12C45.5893 108.12 45.589 108.12 45.5886 108.12C45.5883 108.12 45.5879 108.12 45.5875 108.12C45.5872 108.12 45.5868 108.12 45.5864 108.12C45.5861 108.12 45.5857 108.12 45.5854 108.12C45.585 108.12 45.5846 108.12 45.5843 108.12C45.5839 108.12 45.5836 108.12 45.5832 108.12C45.5828 108.12 45.5825 108.12 45.5821 108.12C45.5818 108.12 45.5814 108.12 45.581 108.12C45.5807 108.12 45.5803 108.12 45.58 108.12C45.5796 108.12 45.5792 108.12 45.5789 108.12C45.5785 108.12 45.5782 108.12 45.5778 108.12C45.5774 108.12 45.5771 108.12 45.5767 108.12C45.5764 108.12 45.576 108.12 45.5756 108.12C45.5753 108.12 45.5749 108.12 45.5746 108.12C45.5742 108.12 45.5739 108.12 45.5735 108.12C45.5731 108.12 45.5728 108.12 45.5724 108.12C45.5721 108.12 45.5717 108.12 45.5714 108.12C45.571 108.12 45.5706 108.12 45.5703 108.12C45.5699 108.12 45.5696 108.12 45.5692 108.12C45.5689 108.12 45.5685 108.12 45.5681 108.12C45.5678 108.12 45.5674 108.12 45.5671 108.12C45.5667 108.12 45.5664 108.12 45.566 108.12C45.5657 108.12 45.5653 108.12 45.5649 108.12C45.5646 108.12 45.5642 108.12 45.5639 108.12C45.5635 108.12 45.5632 108.12 45.5628 108.12C45.5625 108.12 45.5621 108.12 45.5618 108.12C45.5614 108.12 45.561 108.12 45.5607 108.12C45.5603 108.12 45.56 108.12 45.5596 108.12C45.5593 108.12 45.5589 108.12 45.5586 108.12C45.5582 108.12 45.5579 108.12 45.5575 108.12C45.5572 108.12 45.5568 108.12 45.5565 108.12C45.5561 108.12 45.5557 108.12 45.5554 108.12C45.555 108.12 45.5547 108.12 45.5543 108.12C45.554 108.12 45.5536 108.12 45.5533 108.12C45.5529 108.12 45.5526 108.12 45.5522 108.12C45.5519 108.12 45.5515 108.12 45.5512 108.12C45.5508 108.12 45.5505 108.12 45.5501 108.12C45.5498 108.12 45.5494 108.12 45.5491 108.12C45.5487 108.12 45.5484 108.12 45.548 108.12C45.5477 108.12 45.5473 108.12 45.547 108.12C45.5466 108.12 45.5463 108.12 45.5459 108.12C45.5456 108.12 45.5452 108.12 45.5449 108.12C45.5445 108.12 45.5442 108.12 45.5438 108.12C45.5435 108.12 45.5431 108.12 45.5428 108.12C45.5424 108.12 45.5421 108.12 45.5417 108.12C45.5414 108.12 45.541 108.12 45.5407 108.12C45.5403 108.12 45.54 108.12 45.5397 108.12C45.5393 108.12 45.539 108.12 45.5386 108.12C45.5383 108.12 45.5379 108.12 45.5376 108.12C45.5372 108.12 45.5369 108.12 45.5365 108.12C45.5362 108.12 45.5358 108.12 45.5355 108.12C45.5351 108.12 45.5348 108.12 45.5345 108.12C45.5341 108.12 45.5338 108.12 45.5334 108.12C45.5331 108.12 45.5327 108.12 45.5324 108.12C45.532 108.12 45.5317 108.12 45.5313 108.12C45.531 108.12 45.5307 108.12 45.5303 108.12C45.53 108.12 45.5296 108.12 45.5293 108.12C45.5289 108.12 45.5286 108.12 45.5283 108.12C45.5279 108.12 45.5276 108.12 45.5272 108.12C45.5269 108.12 45.5265 108.12 45.5262 108.12C45.5258 108.12 45.5255 108.12 45.5252 108.12C45.5248 108.12 45.5245 108.12 45.5241 108.12C45.5238 108.12 45.5234 108.12 45.5231 108.12C45.5228 108.12 45.5224 108.12 45.5221 108.12C45.5217 108.12 45.5214 108.12 45.5211 108.12C45.5207 108.12 45.5204 108.12 45.52 108.12C45.5197 108.12 45.5193 108.12 45.519 108.12C45.5187 108.12 45.5183 108.12 45.518 108.12C45.5176 108.12 45.5173 108.12 45.517 108.12C45.5166 108.12 45.5163 108.12 45.5159 108.12C45.5156 108.12 45.5153 108.12 45.5149 108.12C45.5146 108.12 45.5142 108.12 45.5139 108.12C45.5136 108.12 45.5132 108.12 45.5129 108.12C45.5126 108.12 45.5122 108.12 45.5119 108.12C45.5115 108.12 45.5112 108.12 45.5109 108.12C45.5105 108.12 45.5102 108.12 45.5098 108.12C45.5095 108.12 45.5092 108.12 45.5088 108.12C45.5085 108.12 45.5082 108.12 45.5078 108.12C45.5075 108.12 45.5071 108.12 45.5068 108.12C45.5065 108.12 45.5061 108.12 45.5058 108.12C45.5055 108.12 45.5051 108.12 45.5048 108.12C45.5045 108.12 45.5041 108.12 45.5038 108.12C45.5034 108.12 45.5031 108.12 45.5028 108.12C45.5024 108.12 45.5021 108.12 45.5018 108.12C45.5014 108.12 45.5011 108.12 45.5008 108.12C45.5004 108.12 45.5001 108.12 45.4998 108.12C45.4994 108.12 45.4991 108.12 45.4988 108.12C45.4984 108.12 45.4981 108.12 45.4978 108.12C45.4974 108.12 45.4971 108.12 45.4968 108.12C45.4964 108.12 45.4961 108.12 45.4958 108.12C45.4954 108.12 45.4951 108.12 45.4948 108.12C45.4944 108.12 45.4941 108.12 45.4938 108.12C45.4934 108.12 45.4931 108.12 45.4928 108.12C45.4924 108.12 45.4921 108.12 45.4918 108.12C45.4914 108.12 45.4911 108.12 45.4908 108.12C45.4904 108.12 45.4901 108.12 45.4898 108.12C45.4894 108.12 45.4891 108.12 45.4888 108.12C45.4884 108.12 45.4881 108.12 45.4878 108.12C45.4875 108.12 45.4871 108.12 45.4868 108.12C45.4865 108.12 45.4861 108.12 45.4858 108.12C45.4855 108.12 45.4851 108.12 45.4848 108.12C45.4845 108.12 45.4842 108.12 45.4838 108.12C45.4835 108.12 45.4832 108.12 45.4828 108.12C45.4825 108.12 45.4822 108.12 45.4818 108.12C45.4815 108.12 45.4812 108.12 45.4809 108.12C45.4805 108.12 45.4802 108.12 45.4799 108.12C45.4795 108.12 45.4792 108.12 45.4789 108.12C45.4786 108.12 45.4782 108.12 45.4779 108.12C45.4776 108.12 45.4773 108.12 45.4769 108.12C45.4766 108.12 45.4763 108.12 45.4759 108.12C45.4756 108.12 45.4753 108.12 45.475 108.12C45.4746 108.12 45.4743 108.12 45.474 108.12C45.4737 108.12 45.4733 108.12 45.473 108.12C45.4727 108.12 45.4724 108.12 45.472 108.12C45.4717 108.12 45.4714 108.12 45.4711 108.12C45.4707 108.12 45.4704 108.12 45.4701 108.12C45.4698 108.12 45.4694 108.12 45.4691 108.12C45.4688 108.12 45.4685 108.12 45.4681 108.12C45.4678 108.12 45.4675 108.12 45.4672 108.12C45.4668 108.12 45.4665 108.12 45.4662 108.12C45.4659 108.12 45.4655 108.12 45.4652 108.12C45.4649 108.12 45.4646 108.12 45.4643 108.12C45.4639 108.12 45.4636 108.12 45.4633 108.12C45.463 108.12 45.4626 108.12 45.4623 108.12C45.462 108.12 45.4617 108.12 45.4613 108.12C45.461 108.12 45.4607 108.12 45.4604 108.12C45.4601 108.12 45.4597 108.12 45.4594 108.12C45.4591 108.12 45.4588 108.12 45.4585 108.12C45.4581 108.12 45.4578 108.12 45.4575 108.12C45.4572 108.12 45.4569 108.12 45.4565 108.12C45.4562 108.12 45.4559 108.12 45.4556 108.12C45.4553 108.12 45.4549 108.12 45.4546 108.12C45.4543 108.12 45.454 108.12 45.4537 108.12C45.4533 108.12 45.453 108.12 45.4527 108.12C45.4524 108.12 45.4521 108.12 45.4517 108.12C45.4514 108.12 45.4511 108.12 45.4508 108.12C45.4505 108.12 45.4501 108.12 45.4498 108.12C45.4495 108.12 45.4492 108.12 45.4489 108.12C45.4486 108.12 45.4482 108.12 45.4479 108.12C45.4476 108.12 45.4473 108.12 45.447 108.12C45.4467 108.12 45.4463 108.12 45.446 108.12C45.4457 108.12 45.4454 108.12 45.4451 108.12C45.4448 108.12 45.4444 108.12 45.4441 108.12C45.4438 108.12 45.4435 108.12 45.4432 108.12C45.4429 108.12 45.4425 108.12 45.4422 108.12C45.4419 108.12 45.4416 108.12 45.4413 108.12C45.441 108.12 45.4407 108.12 45.4403 108.12C45.44 108.12 45.4397 108.12 45.4394 108.12C45.4391 108.12 45.4388 108.12 45.4385 108.12C45.4381 108.12 45.4378 108.12 45.4375 108.12C45.4372 108.12 45.4369 108.12 45.4366 108.12C45.4363 108.12 45.4359 108.12 45.4356 108.12C45.4353 108.12 45.435 108.12 45.4347 108.12C45.4344 108.12 45.4341 108.12 45.4338 108.12C45.4334 108.12 45.4331 108.12 45.4328 108.12C45.4325 108.12 45.4322 108.12 45.4319 108.12C45.4316 108.12 45.4313 108.12 45.4309 108.12C45.4306 108.12 45.4303 108.12 45.43 108.12C45.4297 108.12 45.4294 108.12 45.4291 108.12C45.4288 108.12 45.4285 108.12 45.4281 108.12C45.4278 108.12 45.4275 108.12 45.4272 108.12C45.4269 108.12 45.4266 108.12 45.4263 108.12C45.426 108.12 45.4257 108.12 45.4254 108.12C45.425 108.12 45.4247 108.12 45.4244 108.12C45.4241 108.12 45.4238 108.12 45.4235 108.12C45.4232 108.12 45.4229 108.12 45.4226 108.12C45.4223 108.12 45.422 108.12 45.4216 108.12C45.4213 108.12 45.421 108.12 45.4207 108.12C45.4204 108.12 45.4201 108.12 45.4198 108.12C45.4195 108.12 45.4192 108.12 45.4189 108.12C45.4186 108.12 45.4183 108.12 45.418 108.12C45.4176 108.12 45.4173 108.12 45.417 108.12C45.4167 108.12 45.4164 108.12 45.4161 108.12C45.4158 108.12 45.4155 108.12 45.4152 108.12C45.4149 108.12 45.4146 108.12 45.4143 108.12C45.414 108.12 45.4137 108.12 45.4134 108.12C45.4131 108.12 45.4128 108.12 45.4124 108.12C45.4121 108.12 45.4118 108.12 45.4115 108.12C45.4112 108.12 45.4109 108.12 45.4106 108.12C45.4103 108.12 45.41 108.12 45.4097 108.12C45.4094 108.12 45.4091 108.12 45.4088 108.12C45.4085 108.12 45.4082 108.12 45.4079 108.12C45.4076 108.12 45.4073 108.12 45.407 108.12C45.4067 108.12 45.4064 108.12 45.4061 108.12C45.4058 108.12 45.4055 108.12 45.4052 108.12C45.4049 108.12 45.4046 108.12 45.4043 108.12C45.4039 108.12 45.4036 108.12 45.4033 108.12C45.403 108.12 45.4027 108.12 45.4024 108.12C45.4021 108.12 45.4018 108.12 45.4015 108.12C45.4012 108.12 45.4009 108.12 45.4006 108.12C45.4003 108.12 45.4 108.12 45.3997 108.12C45.3994 108.12 45.3991 108.12 45.3988 108.12C45.3985 108.12 45.3982 108.12 45.3979 108.12C45.3976 108.12 45.3973 108.12 45.397 108.12C45.3967 108.12 45.3964 108.12 45.3961 108.12C45.3958 108.12 45.3955 108.12 45.3952 108.12C45.3949 108.12 45.3946 108.12 45.3943 108.12C45.394 108.12 45.3937 108.12 45.3934 108.12C45.3931 108.12 45.3928 108.12 45.3926 108.12C45.3923 108.12 45.392 108.12 45.3917 108.12C45.3914 108.12 45.3911 108.12 45.3908 108.12C45.3905 108.12 45.3902 108.12 45.3899 108.12C45.3896 108.12 45.3893 108.12 45.389 108.12C45.3887 108.12 45.3884 108.12 45.3881 108.12C45.3878 108.12 45.3875 108.12 45.3872 108.12C45.3869 108.12 45.3866 108.12 45.3863 108.12C45.386 108.12 45.3857 108.12 45.3854 108.12C45.3851 108.12 45.3848 108.12 45.3845 108.12C45.3843 108.12 45.384 108.12 45.3837 108.12C45.3834 108.12 45.3831 108.12 45.3828 108.12C45.3825 108.12 45.3822 108.12 45.3819 108.12C45.3816 108.12 45.3813 108.12 45.381 108.12C45.3807 108.12 45.3804 108.12 45.3801 108.12C45.3798 108.12 45.3796 108.12 45.3793 108.12C45.379 108.12 45.3787 108.12 45.3784 108.12C45.3781 108.12 45.3778 108.12 45.3775 108.12C45.3772 108.12 45.3769 108.12 45.3766 108.12C45.3763 108.12 45.376 108.12 45.3758 108.12C45.3755 108.12 45.3752 108.12 45.3749 108.12C45.3746 108.12 45.3743 108.12 45.374 108.12C45.3737 108.12 45.3734 108.12 45.3731 108.12C45.3728 108.12 45.3725 108.12 45.3723 108.12C45.372 108.12 45.3717 108.12 45.3714 108.12C45.3711 108.12 45.3708 108.12 45.3705 108.12C45.3702 108.12 45.3699 108.12 45.3696 108.12C45.3694 108.12 45.3691 108.12 45.3688 108.12C45.3685 108.12 45.3682 108.12 45.3679 108.12C45.3676 108.12 45.3673 108.12 45.367 108.12C45.3668 108.12 45.3665 108.12 45.3662 108.12C45.3659 108.12 45.3656 108.12 45.3653 108.12C45.365 108.12 45.3647 108.12 45.3645 108.12C45.3642 108.12 45.3639 108.12 45.3636 108.12C45.3633 108.12 45.363 108.12 45.3627 108.12C45.3624 108.12 45.3622 108.12 45.3619 108.12C45.3616 108.12 45.3613 108.12 45.361 108.12C45.3607 108.12 45.3604 108.12 45.3602 108.12C45.3599 108.12 45.3596 108.12 45.3593 108.12C45.359 108.12 45.3587 108.12 45.3584 108.12C45.3582 108.12 45.3579 108.12 45.3576 108.12C45.3573 108.12 45.357 108.12 45.3567 108.12C45.3565 108.12 45.3562 108.12 45.3559 108.12C45.3556 108.12 45.3553 108.12 45.355 108.12C45.3547 108.12 45.3545 108.12 45.3542 108.12C45.3539 108.12 45.3536 108.12 45.3533 108.12C45.353 108.12 45.3528 108.12 45.3525 108.12C45.3522 108.12 45.3519 108.12 45.3516 108.12C45.3514 108.12 45.3511 108.12 45.3508 108.12C45.3505 108.12 45.3502 108.12 45.3499 108.12C45.3497 108.12 45.3494 108.12 45.3491 108.12C45.3488 108.12 45.3485 108.12 45.3483 108.12C45.348 108.12 45.3477 108.12 45.3474 108.12C45.3471 108.12 45.3468 108.12 45.3466 108.12C45.3463 108.12 45.346 108.12 45.3457 108.12C45.3454 108.12 45.3452 108.12 45.3449 108.12C45.3446 108.12 45.3443 108.12 45.344 108.12C45.3438 108.12 45.3435 108.12 45.3432 108.12C45.3429 108.12 45.3426 108.12 45.3424 108.12C45.3421 108.12 45.3418 108.12 45.3415 108.12C45.3413 108.12 45.341 108.12 45.3407 108.12C45.3404 108.12 45.3401 108.12 45.3399 108.12C45.3396 108.12 45.3393 108.12 45.339 108.12C45.3388 108.12 45.3385 108.12 45.3382 108.12C45.3379 108.12 45.3376 108.12 45.3374 108.12C45.3371 108.12 45.3368 108.12 45.3365 108.12C45.3363 108.12 45.336 108.12 45.3357 108.12C45.3354 108.12 45.3352 108.12 45.3349 108.12C45.3346 108.12 45.3343 108.12 45.334 108.12C45.3338 108.12 45.3335 108.12 45.3332 108.12C45.3329 108.12 45.3327 108.12 45.3324 108.12C45.3321 108.12 45.3318 108.12 45.3316 108.12C45.3313 108.12 45.331 108.12 45.3307 108.12C45.3305 108.12 45.3302 108.12 45.3299 108.12C45.3297 108.12 45.3294 108.12 45.3291 108.12C45.3288 108.12 45.3286 108.12 45.3283 108.12C45.328 108.12 45.3277 108.12 45.3275 108.12C45.3272 108.12 45.3269 108.12 45.3266 108.12C45.3264 108.12 45.3261 108.12 45.3258 108.12C45.3256 108.12 45.3253 108.12 45.325 108.12C45.3247 108.12 45.3245 108.12 45.3242 108.12C45.3239 108.12 45.3236 108.12 45.3234 108.12C45.3231 108.12 45.3228 108.12 45.3226 108.12C45.3223 108.12 45.322 108.12 45.3218 108.12C45.3215 108.12 45.3212 108.12 45.3209 108.12C45.3207 108.12 45.3204 108.12 45.3201 108.12C45.3199 108.12 45.3196 108.12 45.3193 108.12C45.319 108.12 45.3188 108.12 45.3185 108.12C45.3182 108.12 45.318 108.12 45.3177 108.12C45.3174 108.12 45.3172 108.12 45.3169 108.12C45.3166 108.12 45.3164 108.12 45.3161 108.12C45.3158 108.12 45.3156 108.12 45.3153 108.12C45.315 108.12 45.3147 108.12 45.3145 108.12C45.3142 108.12 45.3139 108.12 45.3137 108.12C45.3134 108.12 45.3131 108.12 45.3129 108.12C45.3126 108.12 45.3123 108.12 45.3121 108.12C45.3118 108.12 45.3115 108.12 45.3113 108.12C45.311 108.12 45.3107 108.12 45.3105 108.12C45.3102 108.12 45.3099 108.12 45.3097 108.12C45.3094 108.12 45.3091 108.12 45.3089 108.12C45.3086 108.12 45.3083 108.12 45.3081 108.12C45.3078 108.12 45.3075 108.12 45.3073 108.12C45.307 108.12 45.3068 108.12 45.3065 108.12C45.3062 108.12 45.306 108.12 45.3057 108.12C45.3054 108.12 45.3052 108.12 45.3049 108.12C45.3046 108.12 45.3044 108.12 45.3041 108.12C45.3038 108.12 45.3036 108.12 45.3033 108.12C45.3031 108.12 45.3028 108.12 45.3025 108.12C45.3023 108.12 45.302 108.12 45.3017 108.12C45.3015 108.12 45.3012 108.12 45.301 108.12C45.3007 108.12 45.3004 108.12 45.3002 108.12C45.2999 108.12 45.2996 108.12 45.2994 108.12C45.2991 108.12 45.2989 108.12 45.2986 108.12C45.2983 108.12 45.2981 108.12 45.2978 108.12C45.2976 108.12 45.2973 108.12 45.297 108.12C45.2968 108.12 45.2965 108.12 45.2963 108.12C45.296 108.12 45.2957 108.12 45.2955 108.12C45.2952 108.12 45.2949 108.12 45.2947 108.12C45.2944 108.12 45.2942 108.12 45.2939 108.12C45.2937 108.12 45.2934 108.12 45.2931 108.12C45.2929 108.12 45.2926 108.12 45.2924 108.12C45.2921 108.12 45.2918 108.12 45.2916 108.12C45.2913 108.12 45.2911 108.12 45.2908 108.12C45.2905 108.12 45.2903 108.12 45.29 108.12C45.2898 108.12 45.2895 108.12 45.2893 108.12C45.289 108.12 45.2887 108.12 45.2885 108.12C45.2882 108.12 45.288 108.12 45.2877 108.12C45.2875 108.12 45.2872 108.12 45.2869 108.12C45.2867 108.12 45.2864 108.12 45.2862 108.12C45.2859 108.12 45.2857 108.12 45.2854 108.12C45.2852 108.12 45.2849 108.12 45.2846 108.12C45.2844 108.12 45.2841 108.12 45.2839 108.12C45.2836 108.12 45.2834 108.12 45.2831 108.12C45.2829 108.12 45.2826 108.12 45.2823 108.12C45.2821 108.12 45.2818 108.12 45.2816 108.12C45.2813 108.12 45.2811 108.12 45.2808 108.12C45.2806 108.12 45.2803 108.12 45.2801 108.12C45.2798 108.12 45.2796 108.12 45.2793 108.12C45.279 108.12 45.2788 108.12 45.2785 108.12C45.2783 108.12 45.278 108.12 45.2778 108.12C45.2775 108.12 45.2773 108.12 45.277 108.12C45.2768 108.12 45.2765 108.12 45.2763 108.12C45.276 108.12 45.2758 108.12 45.2755 108.12C45.2753 108.12 45.275 108.12 45.2748 108.12C45.2745 108.12 45.2743 108.12 45.274 108.12C45.2738 108.12 45.2735 108.12 45.2733 108.12C45.273 108.12 45.2728 108.12 45.2725 108.12C45.2723 108.12 45.272 108.12 45.2718 108.12V110.12ZM45.8833 110.115C46.0966 110.094 46.3099 110.072 46.5233 110.051L46.3242 108.061C46.1109 108.082 45.8976 108.104 45.6842 108.125L45.8833 110.115ZM46.5143 110.052C46.7517 110.03 46.9787 110.009 47.1953 109.987L46.9962 107.997C46.7862 108.018 46.5652 108.039 46.3332 108.06L46.5143 110.052ZM47.2746 109.976C47.5031 109.934 47.6814 109.905 47.8132 109.886L47.5303 107.906C47.3635 107.93 47.1577 107.964 46.9169 108.008L47.2746 109.976ZM47.8679 109.877C47.9292 109.864 47.9172 109.874 47.8591 109.869C47.8126 109.865 47.5876 109.842 47.3806 109.635L48.7949 108.221C48.5239 107.95 48.1975 107.889 48.0124 107.875C47.8156 107.86 47.6276 107.885 47.4756 107.915L47.8679 109.877ZM47.533 109.76C47.3597 109.644 47.2823 109.502 47.2539 109.438C47.2254 109.374 47.223 109.338 47.2258 109.357L49.2057 109.075C49.1786 108.885 49.0895 108.394 48.6425 108.096L47.533 109.76ZM47.2302 109.385L47.5822 111.433L49.5533 111.095L49.2013 109.047L47.2302 109.385ZM63.7223 108.416L63.9767 109.383L63.9886 109.38L64.0003 109.377L63.7223 108.416ZM65.9943 107.648L66.3608 108.578L66.3746 108.573L66.3882 108.567L65.9943 107.648ZM66.6023 107.584L65.9776 108.365L66.0114 108.392L66.0475 108.416L66.6023 107.584ZM66.8903 107.968L65.9539 108.319L65.9661 108.352L65.9804 108.383L66.8903 107.968ZM67.7222 109.792L66.8124 110.207L66.8198 110.223L66.8278 110.239L67.7222 109.792ZM67.8823 110.432L68.8107 110.803L68.8216 110.776L68.8309 110.748L67.8823 110.432ZM67.5623 110.752L68.0693 111.614L68.0809 111.607L68.0922 111.6L67.5623 110.752ZM64.0743 112.032L64.2442 113.017L64.2442 113.017L64.0743 112.032ZM53.1302 109.536L52.3777 110.195L52.3819 110.199L53.1302 109.536ZM51.4023 96.224L50.455 95.9036L50.455 95.9036L51.4023 96.224ZM53.4503 92.512L52.6899 91.8625L52.6899 91.8625L53.4503 92.512ZM56.6183 90.144L57.0273 91.0565L57.0338 91.0536L57.0403 91.0506L56.6183 90.144ZM63.6903 89.536L63.5224 90.5218L63.5259 90.5224L63.6903 89.536ZM66.7943 90.624L66.3255 91.5073L66.3362 91.513L66.347 91.5184L66.7943 90.624ZM67.1143 90.944L66.1656 91.2602L66.2003 91.3644L66.2568 91.4585L67.1143 90.944ZM67.0183 91.552L67.9188 91.9867L67.9286 91.9665L67.9374 91.9459L67.0183 91.552ZM66.1223 93.408L65.2217 92.9733L65.2066 93.0044L65.1938 93.0366L66.1223 93.408ZM65.3863 93.76L65.8001 92.8496L65.7767 92.839L65.7528 92.8296L65.3863 93.76ZM63.2103 93.12L62.9812 94.0934L62.9976 94.0973L63.0141 94.1006L63.2103 93.12ZM58.1223 93.536L57.6286 92.6663L57.6184 92.6722L58.1223 93.536ZM56.2023 95.36L55.3702 94.8053L55.3665 94.8108L56.2023 95.36ZM55.0823 97.984L54.1133 97.7366L54.1114 97.744L54.1097 97.7514L55.0823 97.984ZM55.0183 104.064L54.0385 104.264L54.0412 104.277L54.0442 104.291L55.0183 104.064ZM56.0423 106.496L55.2102 107.051L55.22 107.065L55.2302 107.08L56.0423 106.496ZM57.9943 108.128L57.547 109.022L57.5563 109.027L57.9943 108.128ZM61.0663 109.736C62.1 109.736 63.072 109.621 63.9767 109.383L63.4678 107.449C62.7512 107.638 61.9525 107.736 61.0663 107.736V109.736ZM64.0003 109.377C64.8376 109.134 65.6247 108.868 66.3608 108.578L65.6277 106.718C64.9558 106.982 64.2283 107.228 63.4442 107.455L64.0003 109.377ZM66.3882 108.567C66.4932 108.522 66.5143 108.526 66.4749 108.531C66.4418 108.534 66.2118 108.552 65.9776 108.365L67.2269 106.803C66.8861 106.53 66.5014 106.517 66.2656 106.541C66.0235 106.567 65.7939 106.646 65.6003 106.729L66.3882 108.567ZM66.0475 108.416C66.0135 108.393 65.9875 108.367 65.9703 108.344C65.9539 108.322 65.9507 108.311 65.9539 108.319L67.8266 107.617C67.7029 107.287 67.4899 106.974 67.157 106.752L66.0475 108.416ZM65.9804 108.383L66.8124 110.207L68.6321 109.377L67.8001 107.553L65.9804 108.383ZM66.8278 110.239C66.8548 110.293 66.8737 110.336 66.8864 110.368C66.8994 110.401 66.9037 110.417 66.9041 110.419C66.9048 110.421 66.8982 110.397 66.8967 110.351C66.8953 110.306 66.8985 110.221 66.9336 110.116L68.8309 110.748C68.9393 110.423 68.891 110.12 68.8444 109.933C68.7934 109.73 68.709 109.529 68.6167 109.345L66.8278 110.239ZM66.9538 110.061C66.9958 109.955 67.0493 109.899 67.0631 109.885C67.0777 109.87 67.0733 109.878 67.0323 109.904L68.0922 111.6C68.3228 111.456 68.6492 111.207 68.8107 110.803L66.9538 110.061ZM67.0552 109.89C66.0707 110.469 65.0221 110.854 63.9043 111.047L64.2442 113.017C65.601 112.784 66.8778 112.315 68.0693 111.614L67.0552 109.89ZM63.9043 111.047C62.7182 111.251 61.5805 111.352 60.4903 111.352V113.352C61.704 113.352 62.9557 113.24 64.2442 113.017L63.9043 111.047ZM60.4903 111.352C57.4446 111.352 55.3008 110.477 53.8786 108.873L52.3819 110.199C54.2877 112.349 57.0506 113.352 60.4903 113.352V111.352ZM53.8828 108.877C52.4641 107.256 51.6663 104.71 51.6663 101.056H49.6663C49.6663 104.954 50.511 108.061 52.3777 110.195L53.8828 108.877ZM51.6663 101.056C51.6663 99.3776 51.8988 97.8771 52.3495 96.5444L50.455 95.9036C49.9244 97.4722 49.6663 99.1931 49.6663 101.056H51.6663ZM52.3495 96.5444C52.805 95.1979 53.4292 94.0763 54.2106 93.1615L52.6899 91.8625C51.722 92.9957 50.9809 94.3488 50.455 95.9036L52.3495 96.5444ZM54.2106 93.1615C54.9884 92.2509 55.9241 91.551 57.0273 91.0565L56.2092 89.2315C54.8377 89.8463 53.6614 90.7251 52.6899 91.8625L54.2106 93.1615ZM57.0403 91.0506C58.1315 90.5426 59.3613 90.28 60.7463 90.28V88.28C59.1019 88.28 57.5796 88.5934 56.1962 89.2374L57.0403 91.0506ZM60.7463 90.28C61.6468 90.28 62.572 90.36 63.5225 90.5218L63.8581 88.5502C62.8032 88.3706 61.7657 88.28 60.7463 88.28V90.28ZM63.5259 90.5224C64.4298 90.6731 65.3623 90.9962 66.3255 91.5073L67.263 89.7406C66.1355 89.1424 64.9987 88.7403 63.8546 88.5496L63.5259 90.5224ZM66.347 91.5184C66.3798 91.5348 66.2363 91.4726 66.1656 91.2602L68.0629 90.6278C67.9068 90.1594 67.55 89.8838 67.2415 89.7296L66.347 91.5184ZM66.2568 91.4585C66.1811 91.3324 66.157 91.2164 66.1496 91.1449C66.1423 91.0749 66.149 91.0295 66.1505 91.02C66.1527 91.0063 66.1471 91.0462 66.0991 91.1581L67.9374 91.9459C68.0174 91.7591 68.0919 91.5483 68.126 91.332C68.1566 91.1383 68.1813 90.7788 67.9717 90.4295L66.2568 91.4585ZM66.1177 91.1172L65.2217 92.9733L67.0228 93.8427L67.9188 91.9867L66.1177 91.1172ZM65.1938 93.0366C65.1798 93.0717 65.1679 93.0983 65.1584 93.1177C65.1489 93.1374 65.1434 93.1467 65.1426 93.1479C65.1415 93.1496 65.1486 93.1377 65.1653 93.1179C65.1817 93.0985 65.2144 93.0629 65.2662 93.024L66.4663 94.624C66.7907 94.3806 66.9593 94.0078 67.0507 93.7794L65.1938 93.0366ZM65.2662 93.024C65.5193 92.8342 65.7656 92.8583 65.8144 92.8648C65.872 92.8724 65.8745 92.8835 65.8001 92.8496L64.9724 94.6704C65.1326 94.7432 65.3325 94.8182 65.5501 94.8472C65.7589 94.8751 66.1279 94.8778 66.4663 94.624L65.2662 93.024ZM65.7528 92.8296C64.9932 92.5304 64.2108 92.3003 63.4064 92.1394L63.0141 94.1006C63.703 94.2384 64.3713 94.435 65.0197 94.6904L65.7528 92.8296ZM63.4393 92.1466C62.6326 91.9568 61.7873 91.864 60.9063 91.864V93.864C61.6465 93.864 62.3372 93.9419 62.9812 94.0934L63.4393 92.1466ZM60.9063 91.864C59.6971 91.864 58.5929 92.119 57.6286 92.6663L58.6159 94.4057C59.2302 94.057 59.9821 93.864 60.9063 93.864V91.864ZM57.6184 92.6722C56.7138 93.1999 55.9633 93.9156 55.3702 94.8053L57.0343 95.9147C57.4652 95.2684 57.9947 94.7681 58.6261 94.3998L57.6184 92.6722ZM55.3665 94.8108C54.8063 95.6634 54.3925 96.6433 54.1133 97.7366L56.0512 98.2314C56.284 97.3193 56.6169 96.55 57.038 95.9092L55.3665 94.8108ZM54.1097 97.7514C53.8558 98.8132 53.7303 99.9155 53.7303 101.056H55.7303C55.7303 100.063 55.8394 99.1175 56.0548 98.2166L54.1097 97.7514ZM53.7303 101.056C53.7303 102.183 53.8316 103.253 54.0385 104.264L55.998 103.864C55.8209 102.998 55.7303 102.063 55.7303 101.056H53.7303ZM54.0442 104.291C54.2817 105.312 54.6671 106.236 55.2102 107.051L56.8743 105.941C56.4787 105.348 56.1814 104.651 55.9923 103.837L54.0442 104.291ZM55.2302 107.08C55.8228 107.904 56.603 108.55 57.547 109.022L58.4415 107.234C57.7642 106.895 57.243 106.453 56.8543 105.912L55.2302 107.08ZM57.5563 109.027C58.5606 109.516 59.7442 109.736 61.0663 109.736V107.736C59.9563 107.736 59.0919 107.55 58.4322 107.229L57.5563 109.027ZM71.534 111.584L70.7747 112.235L70.7867 112.249L70.7992 112.262L71.534 111.584ZM72.942 89.568L72.942 90.568L72.9474 90.568L72.942 89.568ZM78.862 89.536L78.862 88.536L78.8566 88.536L78.862 89.536ZM83.374 90.368L83.7716 89.4504L83.7716 89.4504L83.374 90.368ZM86.542 92.672L87.3048 92.0253L87.3048 92.0253L86.542 92.672ZM88.398 96.192L87.4393 96.4766L87.4406 96.4807L88.398 96.192ZM88.462 105.12L89.4295 105.373L89.4295 105.373L88.462 105.12ZM86.734 108.736L87.5198 109.355L87.526 109.347L86.734 108.736ZM83.662 111.136L84.084 112.043L84.0907 112.039L83.662 111.136ZM84.654 97.696L83.6743 97.8964L83.677 97.9095L83.68 97.9225L84.654 97.696ZM83.63 95.264L82.8096 95.8358L82.8138 95.8417L82.818 95.8476L83.63 95.264ZM81.646 93.632L81.208 94.531L81.2174 94.5356L81.2269 94.54L81.646 93.632ZM75.086 93.024V92.024H74.086V93.024H75.086ZM75.086 108.512H74.086V109.512H75.086V108.512ZM81.71 107.936L82.1381 108.84L82.1477 108.835L82.1572 108.83L81.71 107.936ZM83.63 106.304L82.8096 105.732L82.806 105.737L83.63 106.304ZM84.654 103.84L83.6778 103.623L83.676 103.631L83.6743 103.64L84.654 103.84ZM72.942 111C72.6618 111 72.4758 110.971 72.3613 110.937C72.2495 110.904 72.2432 110.878 72.2688 110.906L70.7992 112.262C71.3503 112.859 72.1884 113 72.942 113V111ZM72.2933 110.933C72.2643 110.899 72.15 110.717 72.15 110.176H70.15C70.15 110.915 70.2917 111.671 70.7747 112.235L72.2933 110.933ZM72.15 110.176V91.392H70.15V110.176H72.15ZM72.15 91.392C72.15 90.8824 72.2601 90.7055 72.2933 90.6668L70.7747 89.3652C70.2959 89.9239 70.15 90.6643 70.15 91.392H72.15ZM72.2933 90.6668C72.2732 90.6902 72.2793 90.6653 72.3812 90.6329C72.4881 90.5989 72.6669 90.568 72.942 90.568V88.568C72.1716 88.568 71.3222 88.7265 70.7747 89.3652L72.2933 90.6668ZM72.9474 90.568L78.8674 90.536L78.8566 88.536L72.9366 88.568L72.9474 90.568ZM78.862 90.536C80.4849 90.536 81.848 90.7966 82.9764 91.2856L83.7716 89.4504C82.34 88.8301 80.6951 88.536 78.862 88.536V90.536ZM82.9764 91.2856C84.1276 91.7844 85.0547 92.4641 85.7792 93.3187L87.3048 92.0253C86.3653 90.9172 85.1804 90.0609 83.7716 89.4504L82.9764 91.2856ZM85.7792 93.3187C86.5124 94.1834 87.0693 95.2299 87.4394 96.4766L89.3566 95.9074C88.9161 94.4234 88.2356 93.1233 87.3048 92.0253L85.7792 93.3187ZM87.4406 96.4807C87.8137 97.7179 88.006 99.1017 88.006 100.64H90.006C90.006 98.9357 89.793 97.3541 89.3554 95.9033L87.4406 96.4807ZM88.006 100.64C88.006 102.164 87.8333 103.572 87.4945 104.867L89.4295 105.373C89.8161 103.895 90.006 102.316 90.006 100.64H88.006ZM87.4945 104.867C87.1621 106.138 86.641 107.219 85.942 108.125L87.526 109.347C88.4057 108.205 89.0366 106.875 89.4295 105.373L87.4945 104.867ZM85.9483 108.117C85.2629 108.988 84.3656 109.695 83.2333 110.233L84.0907 112.039C85.4758 111.382 86.6264 110.489 87.5197 109.355L85.9483 108.117ZM83.24 110.229C82.1666 110.729 80.8251 111 79.182 111V113C81.0375 113 82.6828 112.695 84.084 112.043L83.24 110.229ZM79.182 111H72.942V113H79.182V111ZM85.974 100.704C85.974 99.5512 85.861 98.4715 85.628 97.4695L83.68 97.9225C83.8736 98.7552 83.974 99.6808 83.974 100.704H85.974ZM85.6337 97.4956C85.4174 96.438 85.0257 95.4925 84.442 94.6804L82.818 95.8476C83.2156 96.4009 83.5066 97.0766 83.6743 97.8964L85.6337 97.4956ZM84.4504 94.6922C83.8513 93.8326 83.047 93.1772 82.0651 92.724L81.2269 94.54C81.909 94.8548 82.4274 95.2874 82.8096 95.8358L84.4504 94.6922ZM82.084 92.733C81.0776 92.2427 79.8823 92.024 78.542 92.024V94.024C79.6763 94.024 80.5504 94.2106 81.208 94.531L82.084 92.733ZM78.542 92.024H75.086V94.024H78.542V92.024ZM74.086 93.024V108.512H76.086V93.024H74.086ZM75.086 109.512H78.638V107.512H75.086V109.512ZM78.638 109.512C79.9705 109.512 81.1529 109.306 82.1381 108.84L81.2819 107.032C80.6458 107.334 79.7801 107.512 78.638 107.512V109.512ZM82.1572 108.83C83.1046 108.357 83.88 107.705 84.454 106.871L82.806 105.737C82.4413 106.268 81.9367 106.705 81.2628 107.042L82.1572 108.83ZM84.4504 106.876C85.0275 106.048 85.4176 105.097 85.6337 104.04L83.6743 103.64C83.5064 104.46 83.2138 105.152 82.8096 105.732L84.4504 106.876ZM85.6302 104.057C85.8615 103.016 85.974 101.897 85.974 100.704H83.974C83.974 101.772 83.8732 102.744 83.6778 103.623L85.6302 104.057ZM97.0213 95.424V94.424H96.0213V95.424H97.0213ZM96.8613 111.904L97.4612 112.704L97.4737 112.695L97.4859 112.685L96.8613 111.904ZM93.3733 111.872L92.8185 112.704L92.8186 112.704L93.3733 111.872ZM93.5653 90.048L92.8096 89.3931L92.806 89.3972L93.5653 90.048ZM97.3733 89.888L96.7331 90.6562L96.7528 90.6726L96.7733 90.688L97.3733 89.888ZM98.2693 90.976L99.1263 90.4607L99.1191 90.4487L99.1115 90.4369L98.2693 90.976ZM104.637 101.568L105.498 101.06L105.494 101.053L104.637 101.568ZM107.357 106.176L106.496 106.684L106.786 107.176H107.357V106.176ZM107.485 106.176V107.176H108.485V106.176H107.485ZM110.941 111.52L111.722 112.145L111.732 112.132L111.741 112.12L110.941 111.52ZM107.133 111.712L107.714 110.898L107.714 110.898L107.133 111.712ZM106.685 111.296L105.853 111.851L105.89 111.905L105.933 111.955L106.685 111.296ZM106.237 110.624L105.381 111.14L105.392 111.16L105.405 111.179L106.237 110.624ZM99.8373 100L98.975 100.507L98.9807 100.516L99.8373 100ZM97.1493 95.424L98.0115 94.9175L97.7216 94.424H97.1493V95.424ZM96.0213 95.424V111.328H98.0213V95.424H96.0213ZM96.0213 111.328C96.0213 111.427 96.0114 111.451 96.0177 111.428C96.0226 111.411 96.0661 111.259 96.2366 111.123L97.4859 112.685C97.763 112.463 97.8865 112.173 97.9448 111.964C98.0045 111.749 98.0213 111.528 98.0213 111.328H96.0213ZM96.2613 111.104C96.306 111.07 96.3464 111.047 96.377 111.032C96.4079 111.017 96.4332 111.007 96.4501 111.001C96.4824 110.99 96.4982 110.988 96.4889 110.99C96.481 110.991 96.4604 110.994 96.4242 110.996C96.3885 110.998 96.3426 111 96.2853 111V113C96.4639 113 96.6467 112.991 96.8176 112.962C96.9615 112.938 97.2238 112.882 97.4612 112.704L96.2613 111.104ZM96.2853 111H93.9173V113H96.2853V111ZM93.9173 111C93.8886 111 93.8676 110.999 93.8533 110.997C93.8389 110.996 93.8331 110.994 93.8343 110.995C93.836 110.995 93.8742 111.004 93.9279 111.04L92.8186 112.704C93.1761 112.942 93.5818 113 93.9173 113V111ZM93.928 111.04C94.0849 111.145 94.1505 111.278 94.1722 111.339C94.1907 111.391 94.1813 111.399 94.1813 111.328H92.1813C92.1813 111.678 92.2488 112.324 92.8185 112.704L93.928 111.04ZM94.1813 111.328V91.52H92.1813V111.328H94.1813ZM94.1813 91.52C94.1813 90.9165 94.3031 90.7237 94.3245 90.6988L92.806 89.3972C92.3154 89.9696 92.1813 90.7582 92.1813 91.52H94.1813ZM94.3209 90.7029C94.3212 90.7027 94.3224 90.7012 94.3255 90.6987C94.3285 90.696 94.3342 90.6917 94.3432 90.686C94.3616 90.6745 94.3953 90.657 94.4513 90.6387C94.5675 90.6008 94.755 90.568 95.0373 90.568V88.568C94.2292 88.568 93.3718 88.7444 92.8096 89.3931L94.3209 90.7029ZM95.0373 90.568H96.1573V88.568H95.0373V90.568ZM96.1573 90.568C96.3746 90.568 96.5249 90.5893 96.6228 90.6151C96.7193 90.6405 96.7426 90.6642 96.7331 90.6562L98.0134 89.1198C97.4919 88.6852 96.8025 88.568 96.1573 88.568V90.568ZM96.7733 90.688C96.8798 90.7679 97.0997 91.0036 97.427 91.5151L99.1115 90.4369C98.7562 89.8817 98.3787 89.3921 97.9733 89.088L96.7733 90.688ZM97.4122 91.4913L103.78 102.083L105.494 101.053L99.1263 90.4607L97.4122 91.4913ZM103.776 102.076L106.496 106.684L108.218 105.668L105.498 101.06L103.776 102.076ZM107.357 107.176H107.485V105.176H107.357V107.176ZM108.485 106.176V90.24H106.485V106.176H108.485ZM108.485 90.24C108.485 90.1566 108.494 90.1453 108.485 90.1782C108.475 90.2108 108.427 90.3509 108.27 90.4769L107.021 88.9151C106.756 89.1265 106.629 89.3999 106.566 89.6138C106.503 89.828 106.485 90.046 106.485 90.24H108.485ZM108.27 90.4769C108.214 90.5213 108.165 90.5461 108.135 90.5591C108.105 90.5721 108.087 90.5761 108.086 90.5762C108.085 90.5764 108.096 90.5741 108.12 90.5719C108.144 90.5697 108.177 90.568 108.221 90.568V88.568C107.913 88.568 107.413 88.6011 107.021 88.9151L108.27 90.4769ZM108.221 90.568H110.589V88.568H108.221V90.568ZM110.589 90.568C110.633 90.568 110.667 90.5697 110.691 90.5719C110.715 90.5741 110.725 90.5764 110.724 90.5762C110.724 90.5761 110.706 90.5721 110.675 90.5591C110.645 90.5461 110.596 90.5213 110.541 90.4769L111.79 88.9151C111.397 88.6011 110.898 88.568 110.589 88.568V90.568ZM110.541 90.4769C110.383 90.3509 110.335 90.2108 110.326 90.1782C110.316 90.1453 110.325 90.1566 110.325 90.24H112.325C112.325 90.046 112.308 89.828 112.245 89.6138C112.182 89.3999 112.054 89.1265 111.79 88.9151L110.541 90.4769ZM110.325 90.24V110.08H112.325V90.24H110.325ZM110.325 110.08C110.325 110.576 110.221 110.814 110.141 110.92L111.741 112.12C112.174 111.543 112.325 110.821 112.325 110.08H110.325ZM110.16 110.895C110.182 110.868 110.179 110.894 110.071 110.929C109.957 110.966 109.766 111 109.469 111V113C110.275 113 111.171 112.834 111.722 112.145L110.16 110.895ZM109.469 111H108.349V113H109.469V111ZM108.349 111C108.118 111 107.961 110.982 107.862 110.96L107.428 112.912C107.714 112.976 108.026 113 108.349 113V111ZM107.862 110.96C107.792 110.944 107.747 110.921 107.714 110.898L106.552 112.526C106.818 112.716 107.115 112.843 107.428 112.912L107.862 110.96ZM107.714 110.898C107.641 110.846 107.548 110.763 107.438 110.637L105.933 111.955C106.122 112.17 106.327 112.365 106.552 112.526L107.714 110.898ZM107.517 110.741C107.389 110.549 107.24 110.325 107.069 110.069L105.405 111.179C105.576 111.435 105.725 111.659 105.853 111.851L107.517 110.741ZM107.094 110.108L100.694 99.484L98.9807 100.516L105.381 111.14L107.094 110.108ZM100.699 99.4935L98.0115 94.9175L96.287 95.9305L98.975 100.506L100.699 99.4935ZM97.1493 94.424H97.0213V96.424H97.1493V94.424Z" fill="white" mask="url(#path-2-outside-1_4937_224)"/>
<path d="M72.4376 71.4114C76.5627 69.3841 80.248 66.5642 83.2832 63.1127C86.3184 59.6611 88.644 55.6455 90.1273 51.2952C91.6106 46.9448 92.2225 42.3449 91.9281 37.7581C91.6337 33.1713 90.4387 28.6874 88.4114 24.5623C86.3841 20.4373 83.5642 16.752 80.1127 13.7168C76.6611 10.6816 72.6455 8.35599 68.2952 6.87268C63.9448 5.38938 59.3449 4.77746 54.7581 5.07188C50.1713 5.36629 45.6873 6.56126 41.5623 8.58856L57 40L72.4376 71.4114Z" fill="#E63946"/>
<path d="M41.2824 8.7277C37.1757 10.7918 33.5157 13.6445 30.5114 17.123C27.5072 20.6016 25.2175 24.6378 23.7731 29.0012C22.3287 33.3646 21.7579 37.9698 22.0933 42.5538C22.4287 47.1378 23.6636 51.6109 25.7277 55.7176C27.7918 59.8243 30.6445 63.4843 34.123 66.4886C37.6016 69.4928 41.6378 71.7825 46.0012 73.2269C50.3646 74.6713 54.9698 75.2421 59.5538 74.9067C64.1378 74.5713 68.6109 73.3364 72.7176 71.2723L57 40L41.2824 8.7277Z" fill="white"/>
<path d="M50.9236 49.6192C50.8781 53.1031 48.0548 55.89 44.6178 55.8438C41.1808 55.7976 38.4314 52.9358 38.477 49.4518C38.5226 45.9679 41.3458 43.181 44.7829 43.2272C48.2199 43.2734 50.9692 46.1352 50.9236 49.6192ZM42.2511 49.5026C42.2331 50.8737 43.3152 52 44.6678 52.0182C46.0205 52.0364 47.1316 50.9396 47.1496 49.5684C47.1675 48.1973 46.0855 47.071 44.7328 47.0528C43.3801 47.0346 42.269 48.1314 42.2511 49.5026Z" fill="#E63946"/>
<path d="M49.5442 31.9735L54.1419 35.9012L48.8493 48.0599L43.4831 45.4324L49.5442 31.9735Z" fill="#E63946"/>
<path d="M47.5 36.5L50.0068 30.8574C50.0068 30.8574 50.2277 30.3457 50.7452 30.3344C51.1336 30.326 51.4385 30.8245 51.4385 30.8245L76.2598 68.8244L71.3698 72.1589L47.5 36.5Z" fill="#E63946"/>
<path d="M63.1027 29.8291C63.1483 26.3451 65.9715 23.5582 69.4086 23.6045C72.8456 23.6507 75.5949 26.5124 75.5493 29.9964C75.5038 33.4804 72.6805 36.2672 69.2435 36.221C65.8065 36.1748 63.0571 33.313 63.1027 29.8291ZM71.7753 29.9457C71.7932 28.5745 70.7112 27.4482 69.3585 27.43C68.0058 27.4119 66.8947 28.5087 66.8768 29.8798C66.8588 31.251 67.9409 32.3772 69.2935 32.3954C70.6462 32.4136 71.7573 31.3168 71.7753 29.9457Z" fill="white"/>
<path d="M65.0262 46.4486L59.9471 43.623L65.0507 31.3838L70.376 33.896L65.0262 46.4486Z" fill="white"/>
<path d="M66.5268 42.9491L64.2284 48.4491C64.2284 48.4491 64.0264 48.9482 63.5266 48.9476C63.1516 48.9471 62.846 48.4491 62.846 48.4491L38.0269 10.4491L42.6776 7.27488L66.5268 42.9491Z" fill="white"/>
<path d="M96 40C96 61.5391 78.5391 79 57 79C35.4609 79 18 61.5391 18 40C18 18.4609 35.4609 1 57 1C78.5391 1 96 18.4609 96 40ZM26.2099 40C26.2099 57.0049 39.9951 70.7901 57 70.7901C74.0049 70.7901 87.7901 57.0049 87.7901 40C87.7901 22.9951 74.0049 9.20989 57 9.20989C39.9951 9.20989 26.2099 22.9951 26.2099 40Z" fill="#E63946"/>
</svg>
